<?xml version="1.0" encoding="utf-8"?>
<!-- Generator: Adobe Illustrator 24.2.1, SVG Export Plug-In . SVG Version: 6.00 Build 0)  -->
<svg version="1.1" id="katman_1" xmlns="http://www.w3.org/2000/svg" xmlns:xlink="http://www.w3.org/1999/xlink" x="0px" y="0px"
	 viewBox="0 0 1920 1080" style="enable-background:new 0 0 1920 1080;" xml:space="preserve">
<style type="text/css">
	.st0{display:none;}
	.st1{clip-path:url(#SVGID_2_);}
	.st2{opacity:0.1;fill:#FFFFFF;}
	.st3{fill:#0D9D44;}
	.st4{fill:#7D456E;}
	.st5{fill:#36AE63;}
	.st6{fill:#52B979;}
	.st7{fill:#856987;}
	.st8{fill:#24A656;}
	.st9{fill:#754465;}
	.st10{fill:#57BB7D;}
	.st11{fill:#00983A;}
	.st12{fill:#78426A;}
	.st13{fill:#703E64;}
	.st14{fill:#8F516F;}
	.st15{fill:#5A3C5C;}
	.st16{fill:#543857;}
	.st17{fill:#AB576F;}
	.st18{fill:#964D66;}
	.st19{fill:#C46375;}
	.st20{fill:#8A475E;}
	.st21{fill:#D66D8A;}
	.st22{fill:#54BA7B;}
	.st23{fill:#45B46F;}
	.st24{fill:#63C087;}
	.st25{fill:#FFE11A;}
	.st26{fill:#B0728D;}
	.st27{fill:#B282B8;}
	.st28{fill:#B88CBD;}
	.st29{fill:#EF8449;}
	.st30{fill:#BA90C0;}
	.st31{fill:#EA5B0C;}
	.st32{fill:#AA76B1;}
	.st33{fill:#27348B;}
	.st34{fill:#95549D;}
	.st35{fill:#FFE63D;}
	.st36{fill:#AF7EB5;}
	.st37{fill:#A56EAC;}
	.st38{fill:#BE96C3;}
	.st39{fill:#ED702C;}
	.st40{fill:#5C3A5B;}
	.st41{fill:#874D69;}
	.st42{fill:#129F48;}
	.st43{fill:#21A554;}
	.st44{fill:#33AD61;}
	.st45{fill:#E51724;}
	.st46{fill:#E30613;}
	.st47{fill:#5B65A7;}
	.st48{fill:#863C8F;}
	.st49{fill:#B85571;}
	.st50{fill:#B78ABC;}
	.st51{fill:#B080B7;}
	.st52{fill:#9E62A5;}
	.st53{fill:#96569E;}
	.st54{fill:#C8A7CC;}
	.st55{fill:#DCC7DF;}
	.st56{opacity:0.1;}
	.st57{fill:none;stroke:#FFFFFF;stroke-width:4;stroke-miterlimit:10;stroke-dasharray:14.9614,14.9614;}
	.st58{fill:#9CC9B5;}
	.st59{fill:#672A40;}
	.st60{fill:#99D4D3;}
	.st61{fill:#CE2409;}
	.st62{fill:#BF2723;}
	.st63{fill:#9B1648;}
	.st64{fill:#5E2D48;}
	.st65{opacity:0.4;fill:#99D4D3;}
	.st66{fill:#1C3D3B;}
	.st67{fill:#691E67;}
	.st68{fill:#552068;}
	.st69{fill:#412B56;}
	.st70{fill:#648687;}
	.st71{fill:#6E9495;}
	.st72{fill:#CC1D60;}
	.st73{fill:#84AB99;}
	.st74{fill:#709182;}
	.st75{fill:#6D7B9E;}
	.st76{opacity:0.56;fill:#6D7B9E;}
	.st77{fill:#D93B76;}
	.st78{opacity:0.39;fill:#99D4D3;}
	.st79{fill:#B6AAB9;}
	.st80{fill:#2643FF;}
	.st81{fill:#E8E7E3;}
	.st82{fill:#3E58FF;}
	.st83{fill:#2C49FF;}
	.st84{opacity:0.4;fill:#E8E7E3;}
	.st85{fill:#B2B0A1;}
	.st86{fill:#2441FF;}
	.st87{fill:#9190B3;}
	.st88{fill:#908FB2;}
	.st89{fill:#CECCC3;}
	.st90{fill:#D3D1C8;}
	.st91{fill:#455DFF;}
	.st92{fill:#98889D;}
	.st93{fill:#7E6A85;}
	.st94{fill:#CCFFD9;}
	.st95{opacity:0.56;fill:#CCFFD9;}
	.st96{fill:#5F74FF;}
	.st97{opacity:0.39;fill:#E8E7E3;}
	.st98{opacity:0.2;fill:#FFFFFF;}
	.st99{fill:#5B6BDD;}
	.st100{fill:#91FFAD;}
	.st101{fill:#92ACFF;}
</style>
<rect class="st0" width="1920" height="1080"/>
<g>
	<defs>
		<rect id="SVGID_1_" width="1920" height="1080"/>
	</defs>
	<clipPath id="SVGID_2_">
		<use xlink:href="#SVGID_1_"  style="overflow:visible;"/>
	</clipPath>
	<g class="st1">
		<path class="st2" d="M1920,1037.4h-461.4c-109.6-169.5-0.4-258.1,88-268.9c-7.1-122.1,108.7-185.8,203.5-128.4
			c29.3-39.6,82.7-108.1,170-61V1037.4z"/>
		<path class="st2" d="M0,861.4h461.4c109.6-169.5,0.4-258.1-88-268.9c7.1-122.1-108.7-185.8-203.5-128.4
			c-29.3-39.6-82.7-108.1-170-61L0,861.4z"/>
		<g>
			<g>
				<path class="st3" d="M1888.1,816c2.1-37.9,13.9-66.6,32.2-69.7c0.6-37.9,18-48.6,32.2-49.5c14.2-0.9,21.5,13.9,21.5,35v118.4
					h-85.9V816z"/>
				<path class="st4" d="M1876.8,779c1.3,13.8,1.1,27.6-0.6,41.4l-4.9-1.4c2.3-15.9,3.2-39.1,3.2-39.1L1876.8,779z"/>
				<path class="st5" d="M1882,784.7h19.1c-2.9-5.2-9.6-6.4-18.3-6.9c3.9-3.7,8.1-7.1,12.5-10.1c-8.1-4.6-18.3,1.2-20.6,8.7
					c-8.1-6.7-19.4-6.1-25.3,1.7c5.8-0.2,11.6,0.4,17.1,2c-8.4,5.5-8.4,7.2-10.4,12.4l18.8-6.1l11.9,12.4c0.9-2.6,1-5.4,0.1-8
					C1886.2,788.4,1884.4,786.2,1882,784.7L1882,784.7z"/>
				<path class="st5" d="M1856.5,812.2c-7.6-38.5-20.9-60.5-67.3-48c-8.4-20-31.6-18.2-45.8-2.6c-52.2-28.6-106.8-13.9-109.4,98.4
					l109.4,15l171.7-20.5C1908.1,813.1,1875.1,801.8,1856.5,812.2L1856.5,812.2z"/>
				<path class="st6" d="M1723.4,791.1c1.1-2.4,3.1-4.4,5.5-5.6c2.4-1.2,5.2-1.4,7.8-0.8c0,0,5.5-10.4,12.2-7.5
					c-3.9,3.5-7.1,7.6-9.6,12.2L1723.4,791.1z"/>
				<path class="st7" d="M1697.5,780.1c3.2,23.7,0,53.5,0,53.5l-6.4-1.7c2.9-20.8,3.5-50.6,3.5-50.6L1697.5,780.1z"/>
				<path class="st6" d="M1689.7,781.3l-19.1,5.2c2-8.1,9.6-11.9,19.4-9.5c-2.9-2.9-10.4-12.7-10.4-12.7c3.5,0.1,7,1.2,9.9,3.2
					c2.9,2,5.2,4.8,6.6,8.1c3.6-1.5,7.6-1.8,11.4-1.1c3.8,0.8,7.3,2.7,10.1,5.4h-16c9.6,4.9,9,10.1,9.6,16.5l-13.6-10.4l-12.8,14.5
					C1684.8,800.4,1683.6,786.5,1689.7,781.3L1689.7,781.3z"/>
				<path class="st6" d="M1698.4,815.1c-14.2-2-25.5,6.4-30.8,21.7c-13.1-0.9-18.6,8.7-19.1,22.3h74.8c0.9-17.7-2.3-28.1-8.7-29.8
					C1714.9,821.8,1709.1,816.6,1698.4,815.1L1698.4,815.1z"/>
				<path class="st8" d="M1739.6,825.8c0-27.2,5.2-39.9,20-40.8c14.8-0.9,17.7,16.2,16.8,26.9c8.7,0,15.4,5.2,16,17.4
					c0.6,12.2,0,34.4,0,34.4l-52.8,3.2L1739.6,825.8z"/>
				<path class="st9" d="M1787.5,731.2c11,55,7.6,125.6,7.6,125.6l-15.1-2.9c3.8-49.5,1.2-124.1,1.2-124.1L1787.5,731.2z"/>
				<path class="st10" d="M1768.6,728.9l-38.3,11.9c6.4-15.9,15.7-22.9,39.2-28.1c-8.4-7.2-28.4-18.5-28.4-18.5
					c12.5-4.1,32.5-2.6,49.3,13.6c15.1-7.5,27.8-6.7,52.2,9.8c-14.9,0.5-29.6,2.6-44.1,6.1c18.6,13.3,25.3,24.9,19.1,44.3
					l-32.2-30.1l-29.3,37.3C1756.1,775.2,1754.4,747.1,1768.6,728.9L1768.6,728.9z"/>
				<path class="st11" d="M1911.6,827.3c1.5-31,22.1-39.4,35.1-33.3c13.1,6.1,13.1,33.6,13.1,42.5c4.9,0.9,8.7,6.7,9.6,19.1h-57.7
					C1911.6,855.6,1911.1,845.2,1911.6,827.3z"/>
				<path class="st12" d="M1974,855.9v293.4h-781.5c-1.2-10.1-2.6-20.3-3.8-30.1c-0.3-4.3-0.9-8.7-1.4-13c-0.6-4.3-0.3-4.3-0.6-6.4
					c-0.3-2-0.9-8.4-1.4-12.7c-1.2-10.7-2.3-21.4-3.2-31.3c-0.1-2-0.2-4.1-0.6-6.1c0-2-0.3-4.1-0.3-5.8c0-1.7-0.6-6.1-0.9-8.7
					c-0.3-2.6-0.3-6.4-0.6-9.6c-0.3-3.2-0.6-6.7-0.6-9.8c-1.1-14.9-0.5-29.8,1.7-44.6c2.5-15.2,9.8-29.2,20.9-39.9
					c0.1,0,0.2,0,0.2-0.1c0.1-0.1,0.1-0.1,0.1-0.2h0.3c20.9-20,57.1-34.1,118.4-51.5c94.9-22,268.6-26.9,361.5-25.5
					c16.8,0.6,33.6,6.1,50.2,4.9c59.5-4.9,112.5-2.3,170.3-0.3C1925.6,858.8,1949.1,856.2,1974,855.9L1974,855.9z"/>
				<path class="st13" d="M1619.5,971.1c-2.1,12.2-3.2,24.4-3.5,36.8c0,16.5-3.8,32.8-11.3,47.5c-7.8,16.5-52.2,51.5-53.1,54.1
					c-0.9,2.6-3.2,32.1-4.1,39.9H1520c0.9-9.2,1.2-18.5,0.9-27.8c-0.6-9.6,27-59.3,28.1-70.6c0.8-13.3,0.9-26.6,0.3-39.9
					c-0.3-8.4-7.3-39.9,1.2-80.2l82.7-5.2L1619.5,971.1z"/>
				<path class="st14" d="M1777.3,921.6c-7.2,26.3-10.4,43.7-10.4,49.5s-14.2,17.7-19.2,24.9c-4.9,7.2-7.3,7.5-7.8,17.9
					c-0.6,10.4-15.1,72.6-15.1,72.6l-50.5,18.8c0,0,9.3-38.5,11-50.9c1.7-12.4,7-28.9,7-35s0.3-10.4,7.5-17.1
					c7.3-6.7,21.2-23.7,27.6-28.9c6.4-5.2,6.7-8.7,9.3-19.7l11.6-43.4L1777.3,921.6z"/>
				<path class="st15" d="M1515.4,1024.3c0.3,14.5-2,38.8-2,38.8s-9,17.7-11.6,25.5c-2.8,7.8-5,15.9-6.7,24c-0.9,6.7-0.3,11-14.2,0
					c-13.9-11-27.6-18.8-31.9-24.6c-4.4-5.8-2.9-8.7-2.3-16.2s-0.6-27.8-0.6-27.8L1515.4,1024.3z"/>
				<path class="st16" d="M1867,904.3l107-11v256.1h-136l-0.6-27.8l-44.4-42l22.3-160l1.4-10.4L1867,904.3z"/>
				<path class="st15" d="M1914.8,933.2l59.2-11.9v124.4l-7.2-3.2c-26.4-11.6-29.3-7.5-36.6-22.3c-7.2-14.8-17.1-32.4-28.1-65.1
					c-0.8-2.3-1-4.7-0.8-7.1s1-4.7,2.2-6.8c1.2-2.1,2.9-3.9,4.8-5.3C1910.2,934.7,1912.5,933.7,1914.8,933.2L1914.8,933.2z"/>
				<path class="st17" d="M1441.1,1022.3c0,2.6-20.3,14.2-20.6,16.8c-1.4,16.2-0.9,28.6-1.4,35c-0.6,6.4-16.5,20.8-19.4,26.6
					c-2.9,5.8-8.4,15-9.6,47.5v1.2h-196.7c-5.8-48.9-11.6-100.1-13.1-133.4c-1.2-20.3-0.6-36.7,3.2-50.9c3.1-13,9.8-24.8,19.4-34.1
					l231.8-22.6l-9.6,55.3v2.6C1428.6,981.2,1439.9,1007.8,1441.1,1022.3L1441.1,1022.3z"/>
				<path class="st18" d="M1287.6,1037.4l-3.2,15.3v15.9c0,1.2-1.7,11-1.7,11c-0.3,9.8-0.6,20.5-2,22.9
					c-1.4,2.3-13.9,17.1-15.1,22.9c-1.2,5.8-2.6,13.9-4.3,24h-7.8c1.2-9.3,2.3-18.2,2.3-20.5c0-2.3-0.6-5.8,4.1-12.2
					c4.6-6.4,14.8-17.7,15.7-18.8c0.9-1.2,0.3-11.3,0-21.1c-0.3-3.8-0.6-26.9-0.6-26.9l2.9-22.9c-1.4-5.5-4.9-17.4-4.9-24.6
					c0-7.2,0.3-27.5,1.7-44.9h3.8c0,0,2,21.1,2,28.1c0.4,11.3,1.6,22.7,3.5,33.9C1285.6,1029.3,1287.6,1033.3,1287.6,1037.4
					L1287.6,1037.4z"/>
				<path class="st18" d="M1328,1149.3h-54.8c2.3-8.4,5.2-17.1,9.3-20c4.1-2.9,20-11.9,33.9,4.1
					C1320.7,1138.3,1324.6,1143.7,1328,1149.3L1328,1149.3z"/>
				<path class="st19" d="M1373.5,1087.1c-0.3,5.1-0.3,10.2,0,15.3c0.3,6.5,0.2,12.9-0.3,19.4c-0.9,7.8-1.7,16.5-1.7,19.1
					s0.6-0.3,4.4-6.4c4.8-7,9.2-14.4,13.1-22c1.7-4.3,0.9-5.5,1.4-8.7c0.6-3.2-4.9-20.3-4.9-20.3L1373.5,1087.1z"/>
				<path class="st19" d="M1239.2,1116.9c-0.3,4.1-3.8,14.5-4.9,27.5c-0.1,1.7-0.3,3.3-0.6,4.9h-6.7v-39.6c0-5.2-1.2-17.1,0-22.6
					c1.2-5.5,5.8-8.1,9.6-10.1c0.3-0.2,0.6-0.2,0.9-0.2c0.3,0,0.6,0.1,0.9,0.2c0.3,0.1,0.5,0.4,0.6,0.6c0.2,0.3,0.2,0.5,0.3,0.8
					C1239.2,1091.5,1239.5,1113.2,1239.2,1116.9L1239.2,1116.9z"/>
				<path class="st18" d="M1285.3,952.6c5.2,32.1,7,37,7.5,41.1c0.6,4.1,17.4,10.1,31,15.6c13.6,5.5,30.8,12.7,35.4,13
					c4.6,0.3,8.4-10.7,12.2-18.2c3.8-7.5,13.6-25.2,14.8-27.8c1.2-2.6,11.3-34.1,11.3-34.1L1285.3,952.6z"/>
				<path class="st20" d="M1296.3,959.2c0.3,0.9,0.9,1.8,1.6,2.4c0.8,0.6,1.7,1,2.7,1.1c5.5,0.5,10.9,1.3,16.2,2.3
					c5.7,0.1,11.5-0.2,17.1-1.2c5.5-0.9,8.7-5.2,12.8-6.4c2.9-1.3,5.5-3.3,7.5-5.8h-60.1L1296.3,959.2z"/>
				<path class="st21" d="M1209.6,1019.4c-0.1,5.1-0.8,10.1-2,15c-2,6.9-8.4,17.4-9.9,23.7c-1.6,5.5-2.6,11.1-2.9,16.8
					c0,6.1,6.4,25.8,7.5,38.5c1.2,12.7,2.9,26.3,3.8,35.9h-13.6c-1.2-10.1-2.6-20.3-3.8-30.1c-0.3-4.3-0.9-8.7-1.4-13
					c-0.6-4.3-0.3-4.3-0.6-6.4c-0.3-2-0.9-8.4-1.4-12.7c-1.2-10.7-2.3-21.4-3.2-31.3c-0.1-2-0.2-4.1-0.6-6.1c0-2-0.3-4.1-0.3-5.8
					c0-1.7-0.6-6.1-0.9-8.7c-0.3-2.6-0.3-6.4-0.6-9.6c-0.3-3.2-0.6-6.7-0.6-9.8c-0.6-9.3-3.5-22-3.5-31c0-1.7,0.4-3.4,1.2-4.9
					c0.8-1.2,1.4-2.6,1.7-4.1c1.2-2,1.7-3.5,2.3-4.6c1-2,1.5-4.2,1.4-6.4h1.2l26.1,3.2C1209.3,986.4,1209.6,1015.7,1209.6,1019.4
					L1209.6,1019.4z"/>
				<path class="st22" d="M1330,857.1c-1.4-11.6-18.9-14.5-21.5,4.3c-15.4-6.9-18.6,13.9-11.6,24.3l52.8-12.7
					C1362.2,853,1341.3,852.5,1330,857.1L1330,857.1z"/>
				<path class="st23" d="M1974,847.2v63.1l-106.8,2.3c-17.5,0.5-34.9,2.9-51.9,6.9l-9.6,2.9c-25.8,9.3-42,1.4-78.3-2.6
					c0,0-95.2,8.7-129.4,14.5c-33.6,5.7-67.8,7.3-101.8,4.6c-34.8-2.6-48.4-0.6-67.3,3.2c-18.9,3.8-66.1,9.8-87.6,12.4
					c-10.7,1.3-21.5,1.6-32.2,0.9c-8.7-0.3-17.5,0.9-25.8,3.5c-10.7,3.5-26.4,8.4-40.6,12.2c-24.9,6.7-29.6-3.2-61.8,0
					c0.6-6.7,0.3-11.6,2-15.9c3.5-9.5,6.4-17.7,18.9-24c0,0,0.1,0,0.1,0s0.1,0,0.1-0.1c0,0,0-0.1,0.1-0.1c0,0,0-0.1,0-0.1h0.3
					c24.1-29.5,75.4-42.2,76.9-42.5c29.3-7.5,56-13.9,79.8-19.4c23.8-5.5,41.5-7.2,48.2-7.2c1.9-0.1,3.7,0.1,5.5,0.6l33.4-3.5
					l22.6-1.7c11.6-1.2,23.5-1.7,35.4-2.6l12.5-0.9c27.8-1.7,56.3-3.2,84.7-4.1C1750.3,843.2,1902.1,845.8,1974,847.2L1974,847.2z"
					/>
				<path class="st24" d="M1974,910.3v-63.1l-36.6-0.6c-55.4,3.5-73.7,18.5-85,24.9c-75.1,1.7-112.9,13.9-138.7,49.8l13.6-1.4
					c36.3,4.1,52.5,11.9,78.3,2.6l9.6-2.9c17-4.1,34.4-6.4,51.9-6.9L1974,910.3z"/>
				<path class="st24" d="M1237.4,937.2c-24.9-3.2-37.1,3.2-40.9,14.5L1237.4,937.2z"/>
				<path class="st24" d="M1515.4,1024.3c-36,20.8-94.9,42.2-121.8,56.7c-27,14.5-27.9,10.4,3.2-33.6c31-44,65-28.1,65-28.1
					S1503.5,982.1,1515.4,1024.3z"/>
				<path class="st25" d="M1408.9,1053l30.5-28.6C1426.3,1024.3,1415.3,1027.5,1408.9,1053z"/>
				<path class="st5" d="M1461.7,1019.4c-2-0.9-4.2-1.6-6.4-2c-3,3.5-5.1,7.7-6.2,12.1c-1.1,4.5-1.2,9.1-0.2,13.6
					c-17.7,8.7-24.7,11.6-27,16.8c-1.3,2.9-2.2,5.9-2.6,9c29.6-13.3,69-29.2,96-44.6C1503.5,982.1,1461.7,1019.4,1461.7,1019.4
					L1461.7,1019.4z"/>
				<path class="st26" d="M1237.7,985.6c-0.7,6.6-3,13-6.7,18.5c-2.6,4.9-5.2,1.4-4.6-6.7c0.6-8.1-0.9-15.3,2.6-15
					C1232.5,982.7,1238.3,981.2,1237.7,985.6z"/>
				<path class="st24" d="M1974,898.5v11.9l-106.8,2.3c-17.5,0.5-34.9,2.9-51.9,6.9l-9.6,2.9c-25.8,9.3-42,1.4-78.3-2.6
					c0,0-95.2,8.7-129.4,14.5c-33.6,5.7-67.8,7.3-101.8,4.6c-34.8-2.6-48.4-0.6-67.3,3.2c-18.9,3.8-66.1,9.8-87.6,12.4
					c-10.7,1.3-21.5,1.6-32.2,0.9c-8.7-0.3-17.5,0.9-25.8,3.5c-10.7,3.5-26.4,8.4-40.6,12.2c-24.9,6.7-29.6-3.2-61.8,0
					c11-4.9,25.5-6.7,51.1-11c12.2-2,31.6-6.9,45-8.7c13.3-1.7,22.6-3.2,33.9-4.3c20.9-1.7,40.3-3.8,57.1-6.1l20-2.9
					c16-8.4,34.5-7.2,42.1-2.9h0.3c36.8-15.3,66.4-5.2,72.5-4.3c21.5-4.9,43.8-2,47.6,0c20.9-5.2,52.5-10.1,67.9-9
					c39.2-4.6,81.5-10.7,91.7-9.8c10.2,0.9,41.2-0.6,51.9,5.5c12.8-2.6,27.9-9.8,37.1-5.8c20-5.5,52.5-11,67.9-7.5h1.8
					C1886.7,901.6,1936.9,899,1974,898.5L1974,898.5z"/>
				<path class="st24" d="M1294,912.4c38-9,47.3-13.9,46.7-14.8c-0.6-0.9-9.3-1.2-32.5,3.2C1285,905.1,1294,912.4,1294,912.4z"/>
				<path class="st27" d="M1315.2,904.8c-9.3-40.8-25.8-59-45.5-59.3c-19.7-0.3-31,41.7-32.2,76.1c0,0,10.4-0.3,42.1-6.1
					C1311.1,909.7,1315.2,904.8,1315.2,904.8L1315.2,904.8z"/>
				<path class="st28" d="M1281.2,870.1c-4.1-9.8-15.7-19.1-26.7-15c-2.1,2.7-3.9,5.8-5.2,9c14.5-4.6,14.5,12.4,15.4,27.8
					c10.4-3.2,24.7-1.4,29.3,20.5c5.2-1.2,10.3-2.6,15.4-4.3h1.2C1308.2,890.6,1296,870.4,1281.2,870.1L1281.2,870.1z"/>
				<path class="st29" d="M1306.8,925.7c5.5-13.6,22.6-17.1,28.4-8.7L1306.8,925.7z"/>
				<path class="st30" d="M1249.3,885.4c-4.6,2-4.9,9-3.2,14.5c1.7,5.5,6.7,1.7,6.4-3.5C1252.2,891.2,1252.8,883.7,1249.3,885.4
					L1249.3,885.4z"/>
				<path class="st31" d="M1274.9,912.4c-0.3-10.1-3.5-20.5-9.6-18.8c-6.1,1.7-2.3,12.2-0.9,17.9c0,0-4.1-4.1-7.8-0.9
					c-3.8,3.2-0.9,10.1,7.8,14.2l15.1-3.2C1290,908,1278.1,903.7,1274.9,912.4L1274.9,912.4z"/>
				<path class="st32" d="M1269.6,845.5c-16.8-2.3-21.2-11.6-12.8-11.3c8.4,0.3,15.4,8.7,15.4,8.7L1269.6,845.5z"/>
				<path class="st33" d="M1270.8,842.9c-5.8-1.4-9.3-2.3-9.6-0.3c-0.3,2-0.3,3.8,9.9,2.9L1270.8,842.9z"/>
				<path class="st34" d="M1270.8,845.8c-0.8-0.5-1.6-1.2-2.1-2.1c-0.5-0.9-0.8-1.8-0.8-2.8c0.9-14.8,7.8-21.4,10.4-13.3
					c1.4,3.8,2.5,7.8,3.2,11.9c14.5-1.7,9.3,8.4,0,8.7C1277.8,848.4,1274.1,847.6,1270.8,845.8z"/>
				<path class="st35" d="M1686.2,868.7c-0.9-20.5-9.3-28.1-13.6-30.1c-4.3-2-4.6,5.8,0.6,16.8c-12.8-8.1-17.4-5.5-18-2
					c-0.6,3.5,9.3,8.7,15.4,11.9c-13.1-2.6-26.1,1.2-7.8,7.5c8,3.2,16.2,5.7,24.7,7.5L1686.2,868.7z"/>
				<path class="st36" d="M1668.2,883.1c2.3-22.6,16.5-26.3,16.5-26.3c0.3-10.1,5.5-19.1,12.2-19.7c6.7-0.6,17.1,3.2,26.4,12.2
					c9.3,9,17.7,8.7,17.7,24C1720.5,878.5,1679,889.2,1668.2,883.1z"/>
				<path class="st37" d="M1730.6,875.9c0.3-2.3,0-4.6-0.9-6.7c-0.9-2.1-2.3-4-4.1-5.4c-6.4-5.8-8.1-4.6-8.1-4.6
					c2.2-3.5,3.5-7.5,3.8-11.6c-8.7-7.5-18-11.3-24.4-10.4c-1.5,0.2-3,0.8-4.3,1.6s-2.4,2-3.2,3.3c6.7-2.9,18,2,20.9,10.4
					c-9.3,1.7-9.3,9.6-9,14.5c6.1-4.6,18.6,0.9,18.9,6.1c0.2,1.8,0.3,3.7,0.3,5.5L1730.6,875.9z"/>
				<path class="st38" d="M1682.7,862c-5.5,2.9-5.2,6.1-5.2,6.9c0,0.9,3.8-2,7-3.5C1687.7,864,1690.6,858,1682.7,862L1682.7,862z"/>
				<path class="st23" d="M1890.2,864.3c4.3-6.7,18.8-7.8,27.2-1.7L1890.2,864.3z"/>
				<path class="st39" d="M1717.6,898.8c-1-14.4-4-28.7-9-42.2c-2.3-5.2-2.3-1.2,0.9,8.7c2.6,10.9,4.6,21.9,6.1,33L1717.6,898.8z"/>
				<path class="st39" d="M1727.7,867.8c2-4.9,2.6-3.2,1.4-0.9c-4.7,10.3-8.6,20.9-11.6,31.8h-1.2
					C1719.3,888.1,1723.1,877.8,1727.7,867.8L1727.7,867.8z"/>
				<path class="st24" d="M1706.5,898.8c-11-7.2-48.7-10.4-57.7,8.7L1706.5,898.8z"/>
				<path class="st39" d="M1503.7,908.9c3-0.3,5.4-1.1,5.4-1.7c-0.1-0.6-2.6-0.9-5.6-0.6c-3,0.3-5.4,1.1-5.4,1.7
					C1498.1,909,1500.6,909.2,1503.7,908.9L1503.7,908.9z"/>
				<path class="st25" d="M1806.6,896.1c2.3-2.3,6.4,0,9,3.2l-20.9,0.9C1796.2,896.4,1801.4,894.4,1806.6,896.1L1806.6,896.1z"/>
				<path class="st39" d="M1233.4,915.8c-2.2-10.6-5.8-20.8-10.7-30.4C1223.3,896.4,1227,906.9,1233.4,915.8z"/>
				<path class="st39" d="M1233.4,915.8c-2.5-10.8-3.4-21.9-2.9-33c0.9-3.5,1.4-4.6,1.7,3.5c0.3,8.1,2.6,29.2,2.6,29.2L1233.4,915.8
					z"/>
				<path class="st24" d="M1726.5,920.2l-9.9,0.9L1726.5,920.2z"/>
				<path class="st23" d="M1867,904.3c-15.4-3.5-47.9,2-67.9,7.5c-9.3-4.1-24.4,3.2-37.1,5.8c-8.1-4.6-27.6-4.9-41.2-5.2l-7,9h2.9
					l9.9-0.9h0.9c36.3,4.1,52.5,11.9,78.3,2.6l9.6-2.9c17-4.1,34.4-6.4,51.9-6.9l106.8-2.3V899c-37.1,0.6-87.3,3.2-105.3,6.1
					L1867,904.3z"/>
				<path class="st25" d="M1857.1,850.7h-48.7c-4.6-5.2-5.2-23.2,7.2-22c0-12.2,17.4-15.6,19.2-3.8c15.1-5.8,20.9,1.2,20,9
					C1876,826.1,1873,844.4,1857.1,850.7L1857.1,850.7z"/>
				<path class="st5" d="M1974,853c-9.3-4.3-38.9,0.3-35.1,20.8c-28.1-0.6-22.6,11.3-22.6,11.3h57.7L1974,853z"/>
				<path class="st14" d="M1787.5,1149.3h-11c-0.5-5.2-0.9-10.1-0.9-12.7c0-2.6,0.9-28.4,0.9-28.4l7.8,1.2c0.2,13,1.1,25.9,2.9,38.8
					L1787.5,1149.3z"/>
				<path class="st40" d="M1619.5,1097.8c0,7.8,1.5,17.9,1.7,21.7c0.3,3.8,2.9,1.7,6.1-3.8c2.3-3.8,4.1-7.9,5.5-12.2
					c0.3-3.9,0.3-7.9,0-11.9L1619.5,1097.8z"/>
				<path class="st40" d="M1740.2,1119.3l-6.7,15.9l-1.2,4.1l-2.3,10.1h-4.9l3.5-10.4l1.4-4.3c0,0,5.2-14.2,5.5-15.9
					c0.3-1.7-1.2-26.9-1.2-26.9l5.8,1.4C1740.5,1100.4,1740.2,1119.3,1740.2,1119.3L1740.2,1119.3z"/>
				<path class="st40" d="M1689.1,1095.2c0,0-2,26-3.5,29.2c-1.4,3.2-4.1,15.9-6.4,22.6c-0.1,0.8-0.3,1.6-0.6,2.3h-42.4v-0.6
					l2.6-17.4v-33.6L1689.1,1095.2z"/>
				<path class="st41" d="M1717,1044.9c2.9-18.5,6.1-36.5,9-41.7c2.9-5.2,5.2-8.1,11.6-15c6.4-6.9,2.6-2.3,2.6,1.7
					c0,4.1-3.2,6.4-4.4,13.3c-1.2,6.9-3.8,28.1-3.8,28.1l-2,18.8L1717,1044.9z"/>
				<path class="st14" d="M1609.1,1133.4c-0.9,2.3-4.9,9.3-8.7,15.9h-20.9c3.5-5.8,7-13.6,7-15.9s0-31.5,0-31.5l14.5-6.7
					c0,0,3.5,11,5.5,19.4C1608.5,1123,1611.1,1129.1,1609.1,1133.4L1609.1,1133.4z"/>
				<path class="st42" d="M1974,1074.7v-74.9c-89.6,1.4-149.1,12.4-196.1,24.6c-54,1.7-84.1,8.7-100.1,19.4
					c-55.7,6.1-62.1,12.2-89.1,51.5c-7.5,11-1.2,7.8,34.2,4.1c35.4-3.8,91.1-4.1,117.2-3.2c21.5,19.1,36,19.4,65.6,12.7
					c24.1-5.2,67.6-13,67.6-13c42.4-3.5,100.7-5.8,100.7-5.8V1074.7z"/>
				<path class="st43" d="M1950.5,1052.1c0,0-4.9-19.1-38.9-22.3c-33.9-3.2-119.5,16.8-142.4,13.9c-22.9-2.9-34.5,11.3-41.8,27.8
					c-15.4-0.6-31.9,5.2-48.2,23.7v0.9c23.5-0.6,46.4-0.6,60.6,0c21.5,19.1,36,19.4,65.6,12.7c24.1-5.2,67.6-13,67.6-13
					c42.4-3.5,100.7-5.8,100.7-5.8v-37.9L1950.5,1052.1z"/>
				<path class="st11" d="M1927.6,1066.6c-7.2-26,8.4-59.9,46.4-58.5v58.5L1927.6,1066.6z"/>
				<path class="st11" d="M1782.8,1042.3c-13.9-0.6-23.2,15.3-14.5,26.6h25.3C1800.8,1060.2,1796.5,1043.1,1782.8,1042.3z"/>
				<path class="st11" d="M1663.3,1069.2c8.4-9.3,21.2-10.1,26.1-7.5c5.5-6.4,18-6.1,18.3,3.2
					C1684.2,1066.3,1663.3,1069.2,1663.3,1069.2z"/>
				<path class="st40" d="M1752.4,1149.3h-44.7c4.9-7.2,10.7-10.7,16.8-10.7h7.8C1740.5,1140.7,1748.3,1143.8,1752.4,1149.3z"/>
				<path class="st40" d="M1974,1101v31.5c-13.1,7.5-15.1,9.3-18.3,16.8h-67c1.3-2.5,2.7-4.9,4.4-7.2c4.9-7.2,6.1-8.1,19.7-15.6
					C1932.6,1116.6,1953,1108.1,1974,1101L1974,1101z"/>
				<path class="st44" d="M1595.7,1035.6c-1,1-1.7,2.1-2.3,3.4c-0.5,1.3-0.8,2.6-0.8,4c0,1.4,0.3,2.7,0.8,4c0.5,1.3,1.3,2.4,2.3,3.4
					c8.1,8.9,14.9,18.9,20,29.8l6.1-7.5c-1.7-11.6-4.7-23-9-33.9c-0.7-1.5-1.8-2.9-3.2-3.9c-1.3-1-2.9-1.7-4.6-2
					c-1.7-0.3-3.4-0.2-5,0.3C1598.4,1033.6,1596.9,1034.5,1595.7,1035.6L1595.7,1035.6z"/>
				<path class="st44" d="M1591.7,1061.1c20.3,4.3,30.2,11.6,30.2,11.6l-6.1,7.5c-8.1-3.1-16.8-4.6-25.5-4.3c-1.1,0-2.2-0.2-3.2-0.7
					c-1-0.5-1.9-1.1-2.6-1.9c-0.7-0.8-1.2-1.8-1.5-2.9c-0.3-1.1-0.4-2.2-0.2-3.2c0.1-1,0.5-2,1-2.9c0.5-0.9,1.3-1.6,2.1-2.2
					c0.8-0.6,1.8-1,2.8-1.1C1589.6,1060.8,1590.7,1060.8,1591.7,1061.1L1591.7,1061.1z"/>
				<path class="st44" d="M1625.9,1054.1c-2.6,10.1-4.1,18.5-4.1,18.5l-9.3,1.2c-1-7.5-0.7-15.1,0.9-22.6c0.2-0.8,0.5-1.6,1-2.3
					c0.5-0.7,1.1-1.3,1.9-1.7c0.7-0.4,1.6-0.7,2.4-0.8c0.9-0.1,1.7,0,2.5,0.3c1.6,0.4,3,1.4,3.8,2.8
					C1625.9,1050.8,1626.2,1052.5,1625.9,1054.1L1625.9,1054.1z"/>
				<path class="st43" d="M1616.9,1075.3h-0.6c-8.7-3.1-17.8-5.2-27-6.1c-0.9,0-1.4-0.9-1.2-1.4c0-0.4,0.2-0.8,0.4-1
					c0.3-0.3,0.6-0.4,1-0.4c8.5,1,17,2.7,25.2,5.2c-1.2-3.8-4.6-12.2-13.9-28.6c-0.1-0.4-0.2-0.7-0.1-1.1c0.1-0.4,0.3-0.7,0.6-0.9
					c0.1-0.2,0.3-0.3,0.5-0.4s0.4-0.1,0.7,0c0.2,0.1,0.4,0.2,0.6,0.3c0.1,0.2,0.2,0.4,0.3,0.6c14.2,25.2,14.8,32.1,15.1,32.4
					c0,0.3,0,0.6-0.2,0.9c-0.2,0.3-0.4,0.5-0.7,0.6L1616.9,1075.3z"/>
				<path class="st43" d="M1616.9,1075.3c-0.4-0.1-0.8-0.3-1-0.6c-0.3-0.3-0.4-0.7-0.4-1.1c0,0,0.9-12.2,2.6-23.4
					c0-0.4,0.2-0.7,0.4-1c0.3-0.3,0.6-0.4,1-0.4c0.4,0.1,0.8,0.3,1,0.6c0.3,0.3,0.4,0.7,0.4,1.1c-1.7,11.3-2.3,23.4-2.3,23.4
					c-0.1,0.4-0.3,0.8-0.6,1C1617.7,1075.1,1617.3,1075.3,1616.9,1075.3L1616.9,1075.3z"/>
			</g>
		</g>
		<g>
			<g>
				<path class="st3" d="M85.9,746.6c-2.1-37.9-13.9-66.6-32.2-69.7c-0.6-37.9-18-48.6-32.2-49.5C7.2,626.6,0,641.3,0,662.4l0,118.4
					h85.9V746.6z"/>
				<path class="st4" d="M97.2,709.6c-1.3,13.8-1.1,27.6,0.6,41.4l4.9-1.4c-2.3-15.9-3.2-39.1-3.2-39.1L97.2,709.6z"/>
				<path class="st5" d="M92,715.4H72.8c2.9-5.2,9.6-6.4,18.3-6.9c-3.9-3.7-8.1-7.1-12.5-10.1c8.1-4.6,18.3,1.2,20.6,8.7
					c8.1-6.7,19.4-6.1,25.3,1.7c-5.8-0.2-11.6,0.4-17.1,2c8.4,5.5,8.4,7.2,10.4,12.4l-18.8-6.1L87,729.6c-0.9-2.6-1-5.4-0.1-8
					S89.6,716.8,92,715.4L92,715.4z"/>
				<path class="st5" d="M117.5,742.9c7.6-38.5,20.9-60.5,67.3-48c8.4-20,31.6-18.2,45.8-2.6c52.2-28.6,106.8-13.9,109.4,98.4
					l-109.4,15L58.9,785.1C65.9,743.8,98.9,732.5,117.5,742.9L117.5,742.9z"/>
				<path class="st6" d="M250.6,721.8c-1.1-2.4-3.1-4.4-5.5-5.6c-2.4-1.2-5.2-1.4-7.8-0.8c0,0-5.5-10.4-12.2-7.5
					c3.9,3.5,7.1,7.6,9.6,12.2L250.6,721.8z"/>
				<path class="st7" d="M276.5,710.8c-3.2,23.7,0,53.5,0,53.5l6.4-1.7c-2.9-20.8-3.5-50.6-3.5-50.6L276.5,710.8z"/>
				<path class="st6" d="M284.3,711.9l19.1,5.2c-2-8.1-9.6-11.9-19.4-9.5c2.9-2.9,10.4-12.7,10.4-12.7c-3.5,0.1-7,1.2-9.9,3.2
					c-2.9,2-5.2,4.8-6.6,8.1c-3.6-1.5-7.6-1.8-11.4-1.1c-3.8,0.8-7.3,2.7-10.1,5.4h16c-9.6,4.9-9,10.1-9.6,16.5l13.6-10.4l12.8,14.5
					C289.2,731,290.4,717.1,284.3,711.9L284.3,711.9z"/>
				<path class="st6" d="M275.6,745.8c14.2-2,25.5,6.4,30.8,21.7c13.1-0.9,18.6,8.7,19.1,22.3h-74.8c-0.9-17.7,2.3-28.1,8.7-29.8
					C259.1,752.4,264.9,747.2,275.6,745.8L275.6,745.8z"/>
				<path class="st8" d="M234.4,756.5c0-27.2-5.2-39.9-20-40.8c-14.8-0.9-17.7,16.2-16.8,26.9c-8.7,0-15.4,5.2-16,17.4
					c-0.6,12.2,0,34.4,0,34.4l52.8,3.2L234.4,756.5z"/>
				<path class="st9" d="M186.5,661.9c-11,55-7.6,125.6-7.6,125.6l15.1-2.9c-3.8-49.5-1.2-124.1-1.2-124.1L186.5,661.9z"/>
				<path class="st10" d="M205.4,659.5l38.3,11.9c-6.4-15.9-15.7-22.9-39.2-28.1c8.4-7.2,28.4-18.5,28.4-18.5
					c-12.5-4.1-32.5-2.6-49.3,13.6c-15.1-7.5-27.8-6.7-52.2,9.8c14.9,0.5,29.6,2.6,44.1,6.1c-18.6,13.3-25.3,24.9-19.1,44.3
					l32.2-30.1l29.3,37.3C217.9,705.8,219.6,677.8,205.4,659.5L205.4,659.5z"/>
				<path class="st11" d="M62.4,757.9c-1.5-31-22.1-39.4-35.1-33.3s-13.1,33.6-13.1,42.5c-4.9,0.9-8.7,6.7-9.6,19.1h57.7
					C62.4,786.3,62.9,775.9,62.4,757.9z"/>
				<path class="st12" d="M0,786.6L0,1080h781.5c1.2-10.1,2.6-20.3,3.8-30.1c0.3-4.3,0.9-8.7,1.4-13c0.6-4.3,0.3-4.3,0.6-6.4
					c0.3-2,0.9-8.4,1.4-12.7c1.2-10.7,2.3-21.4,3.2-31.3c0.1-2,0.2-4.1,0.6-6.1c0-2,0.3-4.1,0.3-5.8c0-1.7,0.6-6.1,0.9-8.7
					c0.3-2.6,0.3-6.4,0.6-9.6c0.3-3.2,0.6-6.7,0.6-9.8c1.1-14.9,0.5-29.8-1.7-44.6c-2.5-15.2-9.8-29.2-20.9-39.9
					c-0.1,0-0.2,0-0.2-0.1c-0.1-0.1-0.1-0.1-0.1-0.2h-0.3c-20.9-20-57.1-34.1-118.4-51.5c-94.9-22-268.6-26.9-361.5-25.5
					c-16.8,0.6-33.6,6.1-50.2,4.9c-59.5-4.9-112.5-2.3-170.3-0.3C48.4,789.5,24.9,786.9,0,786.6L0,786.6z"/>
				<path class="st13" d="M354.5,901.7c2.1,12.2,3.2,24.4,3.5,36.8c0,16.5,3.8,32.8,11.3,47.5c7.8,16.5,52.2,51.5,53.1,54.1
					c0.9,2.6,3.2,32.1,4.1,39.9H454c-0.9-9.2-1.2-18.5-0.9-27.8c0.6-9.6-27-59.3-28.1-70.6c-0.8-13.3-0.9-26.6-0.3-39.9
					c0.3-8.4,7.3-39.9-1.2-80.2l-82.7-5.2L354.5,901.7z"/>
				<path class="st14" d="M196.7,852.3c7.2,26.3,10.4,43.7,10.4,49.5c0,5.8,14.2,17.7,19.2,24.9c4.9,7.2,7.3,7.5,7.8,17.9
					c0.6,10.4,15.1,72.6,15.1,72.6l50.5,18.8c0,0-9.3-38.5-11-50.9s-7-28.9-7-35c0-6.1-0.3-10.4-7.5-17.1
					c-7.3-6.7-21.2-23.7-27.6-28.9c-6.4-5.2-6.7-8.7-9.3-19.7L225.7,841L196.7,852.3z"/>
				<path class="st16" d="M107,834.9l-107-11L0,1080h136l0.6-27.8l44.4-42l-22.3-160l-1.4-10.4L107,834.9z"/>
				<path class="st15" d="M59.2,863.8L0,852l0,124.4l7.2-3.2c26.4-11.6,29.3-7.5,36.6-22.3c7.2-14.8,17.1-32.4,28.1-65.1
					c0.8-2.3,1-4.7,0.8-7.1c-0.2-2.4-1-4.7-2.2-6.8s-2.9-3.9-4.8-5.3C63.8,865.3,61.5,864.3,59.2,863.8L59.2,863.8z"/>
				<path class="st17" d="M532.9,953c0,2.6,20.3,14.2,20.6,16.8c1.4,16.2,0.9,28.6,1.4,35s16.5,20.8,19.4,26.6
					c2.9,5.8,8.4,15,9.6,47.5v1.2h196.7c5.8-48.9,11.6-100.1,13.1-133.4c1.2-20.3,0.6-36.7-3.2-50.9c-3.1-13-9.8-24.8-19.4-34.1
					L539.3,839l9.6,55.3v2.6C545.4,911.9,534.1,938.5,532.9,953L532.9,953z"/>
				<path class="st18" d="M686.4,968l3.2,15.3v15.9c0,1.2,1.7,11,1.7,11c0.3,9.8,0.6,20.5,2,22.9c1.4,2.3,13.9,17.1,15.1,22.9
					c1.2,5.8,2.6,13.9,4.3,24h7.8c-1.2-9.3-2.3-18.2-2.3-20.5c0-2.3,0.6-5.8-4.1-12.2c-4.6-6.4-14.8-17.7-15.7-18.8
					c-0.9-1.2-0.3-11.3,0-21.1c0.3-3.8,0.6-26.9,0.6-26.9l-2.9-22.9c1.4-5.5,4.9-17.4,4.9-24.6s-0.3-27.5-1.7-44.9h-3.8
					c0,0-2,21.1-2,28.1c-0.4,11.3-1.6,22.7-3.5,33.9C688.4,959.9,686.4,964,686.4,968L686.4,968z"/>
				<path class="st18" d="M646,1080h54.8c-2.3-8.4-5.2-17.1-9.3-20c-4.1-2.9-20-11.9-33.9,4.1C653.3,1069,649.4,1074.3,646,1080
					L646,1080z"/>
				<path class="st19" d="M734.8,1047.6c0.3,4.1,3.8,14.5,4.9,27.5c0.1,1.7,0.3,3.3,0.6,4.9h6.7v-39.6c0-5.2,1.2-17.1,0-22.6
					c-1.2-5.5-5.8-8.1-9.6-10.1c-0.3-0.2-0.6-0.2-0.9-0.2c-0.3,0-0.6,0.1-0.9,0.2c-0.3,0.1-0.5,0.4-0.6,0.6
					c-0.2,0.3-0.2,0.5-0.3,0.8C734.8,1022.1,734.5,1043.8,734.8,1047.6L734.8,1047.6z"/>
				<path class="st18" d="M688.7,883.2c-5.2,32.1-7,37-7.5,41.1c-0.6,4.1-17.4,10.1-31,15.6c-13.6,5.5-30.8,12.7-35.4,13
					c-4.6,0.3-8.4-10.7-12.2-18.2s-13.6-25.2-14.8-27.8c-1.2-2.6-11.3-34.1-11.3-34.1L688.7,883.2z"/>
				<path class="st20" d="M677.7,889.9c-0.3,0.9-0.9,1.8-1.6,2.4c-0.8,0.6-1.7,1-2.7,1.1c-5.5,0.5-10.9,1.3-16.2,2.3
					c-5.7,0.1-11.5-0.2-17.1-1.2c-5.5-0.9-8.7-5.2-12.8-6.4c-2.9-1.3-5.5-3.3-7.5-5.8h60.1L677.7,889.9z"/>
				<path class="st21" d="M764.4,950.1c0.1,5.1,0.8,10.1,2,15c2,6.9,8.4,17.4,9.9,23.7c1.6,5.5,2.6,11.1,2.9,16.8
					c0,6.1-6.4,25.8-7.5,38.5c-1.2,12.7-2.9,26.3-3.8,35.9h13.6c1.2-10.1,2.6-20.3,3.8-30.1c0.3-4.3,0.9-8.7,1.4-13
					c0.6-4.3,0.3-4.3,0.6-6.4c0.3-2,0.9-8.4,1.4-12.7c1.2-10.7,2.3-21.4,3.2-31.3c0.1-2,0.2-4.1,0.6-6.1c0-2,0.3-4.1,0.3-5.8
					c0-1.7,0.6-6.1,0.9-8.7c0.3-2.6,0.3-6.4,0.6-9.6c0.3-3.2,0.6-6.7,0.6-9.8c0.6-9.3,3.5-22,3.5-31c0-1.7-0.4-3.4-1.2-4.9
					c-0.8-1.2-1.4-2.6-1.7-4.1c-1.2-2-1.7-3.5-2.3-4.6c-1-2-1.5-4.2-1.4-6.4h-1.2l-26.1,3.2C764.7,917.1,764.4,946.3,764.4,950.1
					L764.4,950.1z"/>
				<path class="st22" d="M644,787.7c1.4-11.6,18.9-14.5,21.5,4.3c15.4-6.9,18.6,13.9,11.6,24.3l-52.8-12.7
					C611.8,783.7,632.7,783.1,644,787.7L644,787.7z"/>
				<path class="st23" d="M0,777.9L0,841l106.8,2.3c17.5,0.5,34.9,2.9,51.9,6.9l9.6,2.9c25.8,9.3,42,1.4,78.3-2.6
					c0,0,95.2,8.7,129.4,14.5c33.6,5.7,67.8,7.3,101.8,4.6c34.8-2.6,48.4-0.6,67.3,3.2c18.9,3.8,66.1,9.8,87.6,12.4
					c10.7,1.3,21.5,1.6,32.2,0.9c8.7-0.3,17.5,0.9,25.8,3.5c10.7,3.5,26.4,8.4,40.6,12.2c24.9,6.7,29.6-3.2,61.8,0
					c-0.6-6.7-0.3-11.6-2-15.9c-3.5-9.5-6.4-17.7-18.9-24c0,0-0.1,0-0.1,0c0,0-0.1,0-0.1-0.1c0,0,0-0.1-0.1-0.1c0,0,0-0.1,0-0.1
					h-0.3c-24.1-29.5-75.4-42.2-76.9-42.5c-29.3-7.5-56-13.9-79.8-19.4c-23.8-5.5-41.5-7.2-48.2-7.2c-1.9-0.1-3.7,0.1-5.5,0.6
					l-33.4-3.5l-22.6-1.7c-11.6-1.2-23.5-1.7-35.4-2.6l-12.5-0.9c-27.8-1.7-56.3-3.2-84.7-4.1C223.7,773.8,71.9,776.5,0,777.9
					L0,777.9z"/>
				<path class="st24" d="M0,841l0-63.1l36.6-0.6c55.4,3.5,73.7,18.5,85,24.9c75.1,1.7,112.9,13.9,138.7,49.8l-13.6-1.4
					c-36.3,4.1-52.5,11.9-78.3,2.6l-9.6-2.9c-17-4.1-34.4-6.4-51.9-6.9L0,841z"/>
				<path class="st24" d="M736.6,867.9c24.9-3.2,37.1,3.2,40.9,14.5L736.6,867.9z"/>
				<path class="st26" d="M736.3,916.2c0.7,6.6,3,13,6.7,18.5c2.6,4.9,5.2,1.4,4.6-6.7c-0.6-8.1,0.9-15.3-2.6-15
					C741.5,913.3,735.7,911.9,736.3,916.2z"/>
				<path class="st24" d="M0,829.1L0,841l106.8,2.3c17.5,0.5,34.9,2.9,51.9,6.9l9.6,2.9c25.8,9.3,42,1.4,78.3-2.6
					c0,0,95.2,8.7,129.4,14.5c33.6,5.7,67.8,7.3,101.8,4.6c34.8-2.6,48.4-0.6,67.3,3.2c18.9,3.8,66.1,9.8,87.6,12.4
					c10.7,1.3,21.5,1.6,32.2,0.9c8.7-0.3,17.5,0.9,25.8,3.5c10.7,3.5,26.4,8.4,40.6,12.2c24.9,6.7,29.6-3.2,61.8,0
					c-11-4.9-25.5-6.7-51.1-11c-12.2-2-31.6-6.9-45-8.7c-13.3-1.7-22.6-3.2-33.9-4.3c-20.9-1.7-40.3-3.8-57.1-6.1l-20-2.9
					c-16-8.4-34.5-7.2-42.1-2.9h-0.3c-36.8-15.3-66.4-5.2-72.5-4.3c-21.5-4.9-43.8-2-47.6,0c-20.9-5.2-52.5-10.1-67.9-9
					c-39.2-4.6-81.5-10.7-91.7-9.8c-10.2,0.9-41.2-0.6-51.9,5.5c-12.8-2.6-27.9-9.8-37.1-5.8c-20-5.5-52.5-11-67.9-7.5h-1.8
					C87.3,832.3,37.1,829.7,0,829.1L0,829.1z"/>
				<path class="st24" d="M680,843c-38-9-47.3-13.9-46.7-14.8c0.6-0.9,9.3-1.2,32.5,3.2C689,835.8,680,843,680,843z"/>
				<path class="st35" d="M287.8,799.3c0.9-20.5,9.3-28.1,13.6-30.1c4.3-2,4.6,5.8-0.6,16.8c12.8-8.1,17.4-5.5,18-2
					c0.6,3.5-9.3,8.7-15.4,11.9c13.1-2.6,26.1,1.2,7.8,7.5c-8,3.2-16.2,5.7-24.7,7.5L287.8,799.3z"/>
				<path class="st36" d="M305.8,813.8c-2.3-22.6-16.5-26.3-16.5-26.3c-0.3-10.1-5.5-19.1-12.2-19.7c-6.7-0.6-17.1,3.2-26.4,12.2
					c-9.3,9-17.7,8.7-17.7,24C253.5,809.1,295,819.9,305.8,813.8z"/>
				<path class="st37" d="M243.4,806.5c-0.3-2.3,0-4.6,0.9-6.7c0.9-2.1,2.3-4,4.1-5.4c6.4-5.8,8.1-4.6,8.1-4.6
					c-2.2-3.5-3.5-7.5-3.8-11.6c8.7-7.5,18-11.3,24.4-10.4c1.5,0.2,3,0.8,4.3,1.6c1.3,0.8,2.4,2,3.2,3.3c-6.7-2.9-18,2-20.9,10.4
					c9.3,1.7,9.3,9.6,9,14.5c-6.1-4.6-18.6,0.9-18.9,6.1c-0.2,1.8-0.3,3.7-0.3,5.5L243.4,806.5z"/>
				<path class="st38" d="M291.3,792.7c5.5,2.9,5.2,6.1,5.2,6.9c0,0.9-3.8-2-7-3.5C286.3,794.7,283.4,788.6,291.3,792.7L291.3,792.7
					z"/>
				<path class="st23" d="M83.8,795c-4.3-6.7-18.8-7.8-27.2-1.7L83.8,795z"/>
				<path class="st39" d="M256.4,829.4c1-14.4,4-28.7,9-42.2c2.3-5.2,2.3-1.2-0.9,8.7c-2.6,10.9-4.6,21.9-6.1,33L256.4,829.4z"/>
				<path class="st39" d="M246.3,798.4c-2-4.9-2.6-3.2-1.4-0.9c4.7,10.3,8.6,20.9,11.6,31.8h1.2
					C254.7,818.8,250.9,808.4,246.3,798.4L246.3,798.4z"/>
				<path class="st24" d="M267.5,829.4c11-7.2,48.7-10.4,57.7,8.7L267.5,829.4z"/>
				<path class="st25" d="M167.4,826.8c-2.3-2.3-6.4,0-9,3.2l20.9,0.9C177.8,827.1,172.6,825.1,167.4,826.8L167.4,826.8z"/>
				<path class="st24" d="M247.5,850.8l9.9,0.9L247.5,850.8z"/>
				<path class="st23" d="M107,834.9c15.4-3.5,47.9,2,67.9,7.5c9.3-4.1,24.4,3.2,37.1,5.8c8.1-4.6,27.6-4.9,41.2-5.2l7,9h-2.9
					l-9.9-0.9h-0.9c-36.3,4.1-52.5,11.9-78.3,2.6l-9.6-2.9c-17-4.1-34.4-6.4-51.9-6.9L0,841.6l0-11.9c37.1,0.6,87.3,3.2,105.3,6.1
					L107,834.9z"/>
				<path class="st25" d="M116.9,781.4h48.7c4.6-5.2,5.2-23.2-7.2-22c0-12.2-17.4-15.6-19.2-3.8c-15.1-5.8-20.9,1.2-20,9
					C98,756.8,101,775,116.9,781.4L116.9,781.4z"/>
				<path class="st5" d="M0,783.7c9.3-4.3,38.9,0.3,35.1,20.8c28.1-0.6,22.6,11.3,22.6,11.3H0L0,783.7z"/>
				<path class="st14" d="M186.5,1080h11c0.5-5.2,0.9-10.1,0.9-12.7s-0.9-28.4-0.9-28.4l-7.8,1.2c-0.2,13-1.1,25.9-2.9,38.8
					L186.5,1080z"/>
				<path class="st40" d="M354.5,1028.5c0,7.8-1.5,17.9-1.7,21.7s-2.9,1.7-6.1-3.8c-2.3-3.8-4.1-7.9-5.5-12.2
					c-0.3-3.9-0.3-7.9,0-11.9L354.5,1028.5z"/>
				<path class="st40" d="M233.8,1049.9l6.7,15.9l1.2,4.1l2.3,10.1h4.9l-3.5-10.4l-1.4-4.3c0,0-5.2-14.2-5.5-15.9
					c-0.3-1.7,1.2-26.9,1.2-26.9l-5.8,1.4C233.5,1031.1,233.8,1049.9,233.8,1049.9L233.8,1049.9z"/>
				<path class="st40" d="M284.9,1025.9c0,0,2,26,3.5,29.2c1.4,3.2,4.1,15.9,6.4,22.6c0.1,0.8,0.3,1.6,0.6,2.3h42.4v-0.6l-2.6-17.4
					v-33.6L284.9,1025.9z"/>
				<path class="st41" d="M257,975.5c-2.9-18.5-6.1-36.5-9-41.7c-2.9-5.2-5.2-8.1-11.6-15c-6.4-6.9-2.6-2.3-2.6,1.7
					c0,4.1,3.2,6.4,4.4,13.3c1.2,6.9,3.8,28.1,3.8,28.1l2,18.8L257,975.5z"/>
				<path class="st14" d="M364.9,1064.1c0.9,2.3,4.9,9.3,8.7,15.9h20.9c-3.5-5.8-7-13.6-7-15.9c0-2.3,0-31.5,0-31.5l-14.5-6.7
					c0,0-3.5,11-5.5,19.4C365.5,1053.7,362.9,1059.7,364.9,1064.1L364.9,1064.1z"/>
				<path class="st42" d="M0,1005.3l0-74.9c89.6,1.4,149.1,12.4,196.1,24.6c54,1.7,84.1,8.7,100.1,19.4
					c55.7,6.1,62.1,12.2,89.1,51.5c7.5,11,1.2,7.8-34.2,4.1c-35.4-3.8-91.1-4.1-117.2-3.2c-21.5,19.1-36,19.4-65.6,12.7
					c-24.1-5.2-67.6-13-67.6-13C58.3,1023,0,1020.7,0,1020.7L0,1005.3z"/>
				<path class="st45" d="M95.4,937c12.2-18.2,11.3-48.3-6.7-42c1.4-27.8-26.4-26.9-27.3-6.1c-13.1-11-28.1-7.8-20.9,9.6
					c-9.3-6.7-23.2-6.1-21.7,10.4S44.4,937,44.4,937H95.4z"/>
				<path class="st46" d="M62.1,934.4l0.9-0.6c0.2-0.1,0.3-0.3,0.4-0.4c0.1-0.2,0.2-0.3,0.2-0.5c0-0.2,0-0.4,0-0.6
					c0-0.2-0.1-0.4-0.2-0.5c-2.1-2.4-3.7-5.2-4.9-8.1c-0.2-0.3-0.4-0.6-0.4-0.9c-0.1-0.3-0.1-0.7-0.1-1c0.1-0.3,0.2-0.6,0.4-0.9
					c0.2-0.3,0.4-0.5,0.7-0.7c1.4-1.2,4.9-1.2,8.7,1.7c0.2,0.2,0.5,0.2,0.9,0.2c0.3,0,0.6-0.1,0.9-0.2c0.3-0.1,0.5-0.3,0.6-0.6
					c0.1-0.3,0.1-0.6,0-0.8c0,0-0.9-4.9-1.8-14.8c-0.5-3.5,0.6-6.1,2.9-6.9c0.6-0.2,1.2-0.2,1.8,0c0.6,0.2,1.1,0.6,1.4,1.2l0.9,0.6
					c0.6,0.3,0.9,0.3,1.2,0c0.8-0.4,1.7-0.5,2.6-0.3c2,1.2,3.2,4.6,3.5,9.3c0.3,4.6,0.3,0.9,0.9,1.2c0.2,0.2,0.4,0.3,0.7,0.3
					c0.2,0,0.5-0.1,0.7-0.3c0.7-0.6,1.5-1,2.4-1.1c0.9-0.1,1.8,0.1,2.5,0.5c1,0.5,1.8,1.4,2.3,2.4c0.5,1,0.6,2.2,0.3,3.3
					c0.1,0.3,0.3,0.6,0.6,0.8c0.3,0.2,0.6,0.3,0.9,0.4c0.3,0,0.7,0,1-0.2c0.3-0.2,0.5-0.4,0.7-0.7c0.2-1.8-0.1-3.5-0.9-5.1
					c-0.8-1.6-2-2.9-3.5-3.9c-2-0.8-4.1-0.9-6.1-0.3c-0.6-6.1-3.2-8.4-4.6-9.3c-1.3-0.7-2.9-0.8-4.4-0.3c-0.8-0.7-1.7-1.2-2.7-1.5
					c-1-0.3-2.1-0.2-3.1,0c-2.9,0.9-5.8,4.1-5.2,10.4c0.5,6.4,1.1,9,1.4,11.6c-1.4-0.9-3.1-1.3-4.8-1.3c-1.7,0-3.3,0.5-4.8,1.3
					c-1,0.8-1.6,2-1.9,3.2c-0.2,1.3-0.1,2.6,0.5,3.7c1.4,3.3,3.2,6.3,5.5,9L62.1,934.4z"/>
				<path class="st43" d="M23.5,982.8c0,0,4.9-19.1,38.9-22.3c33.9-3.2,119.5,16.8,142.4,13.9c22.9-2.9,34.5,11.3,41.8,27.8
					c15.4-0.6,31.9,5.2,48.2,23.7v0.9c-23.5-0.6-46.4-0.6-60.6,0c-21.5,19.1-36,19.4-65.6,12.7c-24.1-5.2-67.6-13-67.6-13
					c-42.4-3.5-100.7-5.8-100.7-5.8v-37.9L23.5,982.8z"/>
				<path class="st11" d="M46.4,997.2c7.2-26-8.4-59.9-46.4-58.5l0,58.5L46.4,997.2z"/>
				<path class="st27" d="M228.6,994.6c-7.5-29.5-8.1-47.7-35.4-57c-1.1-15.6-3.5-31.1-7.2-46.3c-2.9-12.2-4.6-20.3-22.9-16.8
					c-9,1.7-33.4,17.9-33.4,17.9s-28.4,11-37.1,17.1c-16.2,11.6-19.4,26-21.2,42.5c-1,7.2-1.4,14.4-1.1,21.7
					C70.2,973.8,137.2,971.2,228.6,994.6L228.6,994.6z"/>
				<path class="st32" d="M176.7,910.1c-7.6,2-12.5,19.7-12.5,28.1c-15.4,0.3-27.6,23.4-27.6,37.9v1.4c-22-2.7-44.2-4-66.4-3.8
					c-0.2-3.4-0.1-6.8,0.3-10.1c7.2-8.1,27-6.9,34.5-2l5.8-18.8c3.8-12.2,19.7-14.5,38.6-14.5c0,0,3.5-11,7.8-22.3
					c4.3-11.3,20.6-16.2,28.7-14.8c1.2,5.5,2.6,11.6,3.8,18.2C185.4,908.9,180.9,909.1,176.7,910.1L176.7,910.1z"/>
				<path class="st47" d="M149.4,979c-9-13.6-25.8-18.2-34.3-13c-8.4,5.2-13.6,17.4-13.6,17.4s-8.1,0-9.9,2.9l61.8,4.9
					C151.7,984.8,151.7,982.8,149.4,979L149.4,979z"/>
				<path class="st11" d="M191.2,972.9c13.9-0.6,23.2,15.3,14.5,26.6h-25.3C173.2,990.9,177.5,973.8,191.2,972.9z"/>
				<path class="st48" d="M312.1,965.1L304,970l-9.9-3.2l-8.1-9.5l18.9,2.9L312.1,965.1z"/>
				<path class="st49" d="M263.4,938.5c-1.2-8.4-7.8-15.6-18-13c-10.2,2.6-11.6,20.8-19.4,25.8c0,0,0.9,18.5,22.6,20L263.4,938.5z"
					/>
				<path class="st50" d="M253.3,992c59.5,4.1,70.2,4.3,70.2,4.3c-1.9-8-4.4-15.8-7.5-23.4c-6.1-2.6-22-7.8-22-7.8l-0.9-2.3
					c6.4,0.3,12.8,1.1,19.1,2.3c-15.1-28.6-35.1-31.3-48.7-26.6C245.4,944.3,238.8,956.2,253.3,992L253.3,992z"/>
				<path class="st51" d="M330.4,997.2l-57.4-3.8c-1.2-3.2-2.3-7.2-3.8-11.3c-3.2-8.7-5.8-17.7,1.7-19.7c7.5-2,13.1,5.2,15.7,13.3
					l38.3,3.2C325.8,981.6,329.6,993.8,330.4,997.2z"/>
				<path class="st52" d="M272.3,972.9c-1.3-2.8-0.5-5.8,1.7-6.8c2.2-1,5,0.4,6.3,3.2c1.3,2.8,0.5,5.8-1.6,6.8
					C276.4,977.1,273.6,975.7,272.3,972.9z"/>
				<path class="st53" d="M321.4,982.8l3.2,10.4l-3.8-0.6l-2.3-10.4L321.4,982.8z"/>
				<path class="st53" d="M313.3,981.9l2.3,10.1l-3.5-0.3l-2-10.1L313.3,981.9z"/>
				<path class="st11" d="M310.7,999.8c-8.4-9.3-21.2-10.1-26.1-7.5c-5.5-6.4-18-6.1-18.3,3.2C289.8,996.9,310.7,999.8,310.7,999.8z
					"/>
				<path class="st53" d="M304.3,981.3l1.7,9.8l-4.1-0.3l-1.7-10.1L304.3,981.3z"/>
				<path class="st54" d="M286,957.3c7.9,0.1,15.8,1.2,23.5,3.2l2.6,4.6c-6.3-1.2-12.7-2-19.1-2.3l0.9,2.3c0,0,16,5.2,22,7.8
					c0.5,1.1,0.9,2.3,1.2,3.5l-27-7.8L286,957.3z"/>
				<path class="st55" d="M300.5,935.6l-5.5-2.3c-0.3,0-0.3-0.3,0-0.3l5.5-2.3l2.6-5.5l2.6,5.5l5.5,2.3c0.3,0,0.3,0.3,0,0.3
					l-5.5,2.3l-2.6,5.5L300.5,935.6z"/>
				<path class="st51" d="M267.2,939.7c-6.7,1.4-9.9,5.8-10.2,9.3c-0.3,3.5,4.6,4.1,9,0.3C270.4,945.4,274.7,937.9,267.2,939.7
					L267.2,939.7z"/>
				<path class="st54" d="M322.3,979l4.4,17.9l3.8,0.3l-5.2-18.2H322.3z"/>
				<path class="st40" d="M221.6,1080h44.7c-4.9-7.2-10.7-10.7-16.8-10.7h-7.8C233.5,1071.3,225.7,1074.5,221.6,1080z"/>
				<path class="st40" d="M0,1031.7l0,31.5c13.1,7.5,15.1,9.3,18.3,16.8h67c-1.3-2.5-2.7-4.9-4.4-7.2c-4.9-7.2-6.1-8.1-19.7-15.6
					C41.4,1047.2,21,1038.7,0,1031.7L0,1031.7z"/>
				<path class="st44" d="M378.3,966.3c1,1,1.7,2.1,2.3,3.4c0.5,1.3,0.8,2.6,0.8,4c0,1.4-0.3,2.7-0.8,4c-0.5,1.3-1.3,2.4-2.3,3.4
					c-8.1,8.9-14.9,18.9-20,29.8l-6.1-7.5c1.7-11.6,4.7-23,9-33.9c0.7-1.5,1.8-2.9,3.2-3.9c1.3-1,2.9-1.7,4.6-2
					c1.7-0.3,3.4-0.2,5,0.3C375.6,964.2,377.1,965.1,378.3,966.3L378.3,966.3z"/>
				<path class="st44" d="M382.3,991.7c-20.3,4.3-30.2,11.6-30.2,11.6l6.1,7.5c8.1-3.1,16.8-4.6,25.5-4.3c1.1,0,2.2-0.2,3.2-0.7
					c1-0.5,1.9-1.1,2.6-1.9c0.7-0.8,1.2-1.8,1.5-2.9c0.3-1.1,0.4-2.2,0.2-3.2c-0.1-1-0.5-2-1-2.9c-0.5-0.9-1.3-1.6-2.1-2.2
					c-0.8-0.6-1.8-1-2.8-1.1C384.4,991.4,383.3,991.5,382.3,991.7L382.3,991.7z"/>
				<path class="st44" d="M348.1,984.8c2.6,10.1,4.1,18.5,4.1,18.5l9.3,1.2c1-7.5,0.7-15.1-0.9-22.6c-0.2-0.8-0.5-1.6-1-2.3
					s-1.1-1.3-1.9-1.7c-0.7-0.4-1.6-0.7-2.4-0.8c-0.9-0.1-1.7,0-2.5,0.3c-1.6,0.4-3,1.4-3.8,2.8
					C348.1,981.5,347.8,983.2,348.1,984.8L348.1,984.8z"/>
				<path class="st43" d="M357.1,1005.9h0.6c8.7-3.1,17.8-5.2,27-6.1c0.9,0,1.4-0.9,1.2-1.4c0-0.4-0.2-0.8-0.4-1s-0.6-0.4-1-0.4
					c-8.5,1-17,2.7-25.2,5.2c1.2-3.8,4.6-12.2,13.9-28.6c0.1-0.4,0.2-0.7,0.1-1.1c-0.1-0.4-0.3-0.7-0.6-0.9
					c-0.1-0.2-0.3-0.3-0.5-0.4c-0.2-0.1-0.4-0.1-0.7,0c-0.2,0.1-0.4,0.2-0.6,0.3c-0.1,0.2-0.2,0.4-0.3,0.6
					c-14.2,25.2-14.8,32.1-15.1,32.4c0,0.3,0,0.6,0.2,0.9c0.2,0.3,0.4,0.5,0.7,0.6L357.1,1005.9z"/>
				<path class="st43" d="M357.1,1005.9c0.4-0.1,0.8-0.3,1-0.6c0.3-0.3,0.4-0.7,0.4-1.1c0,0-0.9-12.2-2.6-23.4c0-0.4-0.2-0.7-0.4-1
					c-0.3-0.3-0.6-0.4-1-0.4c-0.4,0.1-0.8,0.3-1,0.6c-0.3,0.3-0.4,0.7-0.4,1.1c1.7,11.3,2.3,23.4,2.3,23.4c0.1,0.4,0.3,0.8,0.6,1
					C356.3,1005.8,356.7,1005.9,357.1,1005.9L357.1,1005.9z"/>
				<path class="st46" d="M42.9,911h0.6c0.2-0.1,0.4-0.2,0.5-0.3c0.2-0.1,0.3-0.3,0.4-0.5s0.1-0.4,0.1-0.6c0-0.2,0-0.4-0.1-0.6
					c-1.4-2.9-1.2-3.8-0.9-3.8c0.3,0,2.9-0.6,4.6-0.6h0.6c0.4,0,0.8-0.1,1.1-0.4c0.3-0.3,0.5-0.6,0.6-1c0-0.9,0.3-2.6,1.5-2.9
					c1.1-0.3,4.3,1.7,5.5,6.4c0.2,0.4,0.5,0.7,0.8,0.9c0.4,0.2,0.8,0.3,1.2,0.3c0.4-0.2,0.7-0.5,0.8-0.9c0.2-0.4,0.2-0.8,0.1-1.2
					c-1.4-5.8-5.5-8.7-8.7-8.4c-1.1,0.2-2,0.7-2.7,1.5c-0.8,0.8-1.2,1.8-1.3,2.9c-2.9-0.3-5.5,0-6.7,1.7c-1.2,1.7-0.9,3.5,0.9,6.7
					C43.5,913.3,42.4,911,42.9,911L42.9,911z"/>
			</g>
		</g>
		<g class="st56">
			<path class="st57" d="M1588.7,491.8c-11.2-0.9-16.3-14.4-24.4-26.1c-59.4-86.6-291.7-107-406.2-12.2
				c-112,92.7-20.6,220.5-136,369.6c-73.3,94.7-212.4,175.1-359.1,151.7c-166.1-26.6-273-175.3-306.8-306.8
				c-44.4-173,21.5-380,153.4-448c165.5-85.3,319.5,119.5,561.3,26.1c113.9-44,115.4-104.8,240.6-134.2
				c110.7-26.1,301.5-23.7,359.1,90.6C1727.9,316.1,1631.1,495.4,1588.7,491.8z"/>
		</g>
		<g>
			<g>
				<polygon class="st58" points="1791.4,586.6 1798.6,599 1805.1,600.9 1805.8,593 1795.2,586.6 				"/>
				<path class="st59" d="M1848.6,552.9l-6.1-3.8c0,0-4.1-4.8,6-5.7c10.2-0.9,18.8,3.3,17,4.6
					C1863.8,549.4,1859.9,552.8,1848.6,552.9z"/>
				<path class="st60" d="M1768.8,566.1c0.1,14.2,20.2,25.6,44.9,25.4c24.7-0.2,44.6-11.9,44.5-26.1c0-6-3.7-11.5-9.7-15.9
					c-8.2-5.9-21-9.7-35.2-9.5C1788.6,540.2,1768.6,551.9,1768.8,566.1z"/>
				<path class="st60" d="M1770.1,565.9c0.1,14.2,18.9,25.8,43.6,25.6c24.7-0.2,44.6-11.9,44.5-26.1c0-6-3.7-11.5-9.7-15.9
					c-8.2-5.9-21-9.7-35.2-9.5C1788.6,540.2,1770,551.7,1770.1,565.9z"/>
				<path class="st61" d="M1768.8,566.1c0.1,11.3,20.2,20.2,44.9,20c24.7-0.2,44.7-9.5,44.6-20.7c0-4.8-3.7-9.1-9.7-12.5
					c-8.2-4.7-21-7.6-35.2-7.5C1788.6,545.6,1768.7,554.9,1768.8,566.1z"/>
				<path class="st60" d="M1768.8,566.1c0.1,6.9,20.1,12.4,44.8,12.2c24.7-0.2,44.7-6,44.6-12.9c0-2.9-3.6-5.6-9.7-7.7
					c-8.2-2.9-20.9-4.6-35.2-4.5C1788.7,553.4,1768.7,559.2,1768.8,566.1z"/>
				<path class="st62" d="M1768.8,566.1c0,2.6,20.1,4.5,44.8,4.3c24.7-0.2,44.7-2.4,44.7-5c0-1.1-3.6-2-9.6-2.8
					c-8.2-1-20.9-1.6-35.2-1.5C1788.8,561.3,1768.7,563.6,1768.8,566.1z"/>
				<path class="st63" d="M1768.8,566.1c-0.1-8.4,6.9-15.9,17.6-20.7c2.7,5.2,6.9,16.1,4.1,29.6c-1,4.7-2.5,8.4-4.2,11.4
					C1775.7,581.7,1768.8,574.4,1768.8,566.1z"/>
				<path class="st64" d="M1785.9,575c2.5-12.1-0.6-22.1-3.2-27.8c1.2-0.7,2.4-1.3,3.7-1.9c2.7,5.2,6.9,16.1,4.1,29.6
					c-1,4.7-2.5,8.4-4.2,11.4c-1.3-0.6-2.5-1.1-3.6-1.8C1784,582,1785.1,578.9,1785.9,575z"/>
				<path class="st64" d="M1771.7,575.2c-1.9-2.8-2.9-5.9-3-9.1c0-2.9,0.8-5.7,2.3-8.3c0.9,2.7,1.4,6,1.4,9.7
					C1772.5,570.3,1772.2,572.9,1771.7,575.2z"/>
				<path class="st65" d="M1812.3,580.9c22.6-0.2,41.3-10,44.1-22.6c1.2,2.3,1.8,4.7,1.8,7.1c0.1,14.2-19.8,25.9-44.5,26.1
					c-24.7,0.2-44.8-11.2-44.9-25.4c0-1.2,0.1-2.4,0.4-3.5C1774.6,573.3,1791.9,581,1812.3,580.9z"/>
				<path class="st66" d="M1848.2,581.9c-23.8,17.3-66.5,11-77-7.5c5.4,8.4,16.7,13.1,26.5,15.1
					C1814.1,592.9,1834.1,591.1,1848.2,581.9z"/>
				<path class="st67" d="M1870.9,563.9c0,4.4-6.3,9.3-18,12.8c-10.8-8.8-6.6-18.9-1.3-24.6C1863.6,555.4,1870.9,559.5,1870.9,563.9
					z"/>
				<path class="st68" d="M1869.7,567.3c-2.3,3.4-8.1,6.8-16.8,9.4c-10-8.1-7.2-17.3-2.5-23.2
					C1849.2,559.6,1850.5,568.4,1869.7,567.3z"/>
				<path class="st69" d="M1851.6,552.1c0.7,0.2,1.4,0.4,2.1,0.6c-4.9,5.7-8.4,15.1,1.1,23.4c-0.6,0.2-1.3,0.4-2,0.6
					C1842.1,567.9,1846.3,557.8,1851.6,552.1z"/>
				<g>
					<path class="st70" d="M1871.7,561l-0.7,2.9c0,0,1.1,0,2.3-0.8c0.9-0.5,1.7-2.1,0.7-2.9C1873.2,559.6,1871.9,560.1,1871.7,561z"
						/>
					<path class="st70" d="M1871.7,567.4l-0.7-2.9c0,0,1.1,0,2.3,0.8c0.9,0.5,1.7,2.1,0.7,2.9
						C1873.2,568.8,1871.9,568.4,1871.7,567.4z"/>
					<path class="st71" d="M1869.7,564.3c0,0.7,0.5,1.3,1.2,1.3c0.7,0,1.2-0.6,1.2-1.3c0-0.7-0.5-1.3-1.2-1.3
						C1870.2,563,1869.7,563.6,1869.7,564.3z"/>
					<path class="st71" d="M1867.5,562.3l2.7,1.2c0,0,0.2-1.1-0.3-2.4c-0.4-1-1.7-2.1-2.7-1.2
						C1866.4,560.5,1866.6,561.8,1867.5,562.3z"/>
					<path class="st71" d="M1868.6,567.5l1.4-2.6c0,0-1.1-0.2-2.4,0.2c-1,0.3-2.1,1.6-1.4,2.6
						C1866.8,568.5,1868.2,568.3,1868.6,567.5z"/>
				</g>
				<path class="st63" d="M1846.1,576.9l-2.7,2c-0.6,0.5-1.1,1.2-1.2,1.9c-0.2,1.4,0.6,3.3,6.6,3.5c9.6,0.3,17.5-4.2,15.7-5.4
					c-1.6-1.1-4.9-3.6-13.3-3.7C1849.4,575.3,1847.6,575.8,1846.1,576.9z"/>
				<path class="st59" d="M1843.4,578.9l0.1-0.1c7.4,3.3,16,2,21.2,0.7c-0.3,1.6-7.4,5.1-15.9,4.9c-6.2-0.2-6.9-2.2-6.6-3.7
					C1842.3,579.9,1842.8,579.3,1843.4,578.9z"/>
				<path class="st72" d="M1844,560.6c0,0,16.2-1.3,18.1,2.7c1.8,3.6-13.5,5.4-15.9,5.4c0,0-2.5,0.2-4.7-0.6
					C1839.4,567.3,1837.2,561.4,1844,560.6z"/>
				<path class="st58" d="M1799,586.9c0,0-2.8,2.7-4.7,2.7l5.7,2.5h2.2L1799,586.9z"/>
				<path class="st73" d="M1831.9,586.6l-6.6,14.1l-20.2,0.2l-6.1-14l2.2,0c0,0,0.3,2.6,9.1,4.1c8.8,1.4,18.3-4.3,18.3-4.3
					L1831.9,586.6z"/>
				<path class="st74" d="M1828.7,586.6c0,0-9.5,5.7-18.3,4.3c-8.8-1.4-9.1-4.1-9.1-4.1l-2.2,0l0.7,1.5c4,1.8,15.5,7.1,22.7,12.4
					l3,0l6.6-14.1L1828.7,586.6z"/>
				<g>
					<path class="st66" d="M1808,594.2c0,1.2-1,2.2-2.2,2.2c-1.2,0-2.2-1-2.2-2.2c0-1.2,1-2.2,2.2-2.2C1807,592,1808,593,1808,594.2
						z"/>
					<path class="st75" d="M1807.3,594.2c0,0.8-0.7,1.5-1.5,1.5c-0.8,0-1.5-0.7-1.5-1.5c0-0.8,0.7-1.5,1.5-1.5
						C1806.6,592.7,1807.3,593.4,1807.3,594.2z"/>
					<path class="st76" d="M1804.4,594.2c0,0.2,0.1,0.5,0.2,0.7c0.2,0.1,0.4,0.1,0.6,0.1c0.8,0,1.5-0.7,1.5-1.5
						c0-0.2-0.1-0.5-0.2-0.7c-0.2-0.1-0.4-0.1-0.6-0.1C1805,592.7,1804.4,593.4,1804.4,594.2z"/>
				</g>
				<g>
					<circle class="st66" cx="1813.2" cy="594.2" r="2.2"/>
					<path class="st75" d="M1814.7,594.2c0,0.8-0.7,1.5-1.5,1.5c-0.8,0-1.5-0.7-1.5-1.5c0-0.8,0.7-1.5,1.5-1.5
						C1814.1,592.7,1814.7,593.4,1814.7,594.2z"/>
					<path class="st76" d="M1811.8,594.2c0,0.2,0.1,0.5,0.2,0.7c0.2,0.1,0.4,0.1,0.6,0.1c0.8,0,1.5-0.7,1.5-1.5
						c0-0.2-0.1-0.5-0.2-0.7c-0.2-0.1-0.4-0.1-0.6-0.1C1812.4,592.7,1811.8,593.4,1811.8,594.2z"/>
				</g>
				<g>
					<circle class="st66" cx="1820.7" cy="594.2" r="2.2"/>
					<path class="st75" d="M1822.1,594.2c0,0.8-0.7,1.5-1.5,1.5c-0.8,0-1.5-0.7-1.5-1.5c0-0.8,0.7-1.5,1.5-1.5
						C1821.5,592.7,1822.1,593.4,1822.1,594.2z"/>
					<path class="st76" d="M1819.2,594.2c0,0.2,0.1,0.5,0.2,0.7c0.2,0.1,0.4,0.1,0.6,0.1c0.8,0,1.5-0.7,1.5-1.5
						c0-0.2-0.1-0.5-0.2-0.7c-0.2-0.1-0.4-0.1-0.6-0.1C1819.9,592.7,1819.2,593.4,1819.2,594.2z"/>
				</g>
				<polygon class="st66" points="1794.6,590.7 1799,589.4 1802.7,598 1798.6,597.7 				"/>
				<polygon class="st75" points="1795.5,591.1 1798.8,597.2 1801.6,597.2 1798.6,590.2 				"/>
				<path class="st76" d="M1798.9,590.7l-0.2-0.6l-3.2,1l3.3,6.1h0.2C1799.2,595.2,1799,592.5,1798.9,590.7z"/>
			</g>
			<path class="st77" d="M1842.3,565c0,0.7,4,1,8.7,0.7c4.8-0.3,8.6-1.2,8.6-1.9c0-0.7-4-1-8.7-0.7
				C1846.1,563.5,1842.3,564.3,1842.3,565z"/>
			<path class="st78" d="M1793.8,552.2c0,6.1,9.4,11,20.9,10.9c11.5-0.1,20.7-5.1,20.7-11.3c0-6.1-9.4-11-20.9-10.9
				C1803,541,1793.8,546,1793.8,552.2z"/>
			<polygon class="st66" points="1831.9,586.6 1825.3,600.7 1805.1,600.9 1824.5,600.1 			"/>
		</g>
		<g>
			<g>
				<polygon class="st79" points="181.5,484.6 186.2,492.6 190.4,493.8 190.8,488.7 183.9,484.6 				"/>
				<path class="st80" d="M218.6,462.7l-3.9-2.5c0,0-2.7-3.1,3.9-3.7c6.6-0.6,12.2,2.1,11.1,3C228.4,460.4,225.9,462.7,218.6,462.7z
					"/>
				<path class="st81" d="M166.8,471.3c0.1,9.2,13.1,16.6,29.2,16.5c16-0.1,29-7.7,28.9-17c0-3.9-2.4-7.5-6.3-10.3
					c-5.3-3.8-13.6-6.3-22.9-6.2C179.6,454.5,166.7,462.1,166.8,471.3z"/>
				<path class="st81" d="M167.7,471.2c0.1,9.2,12.3,16.8,28.3,16.6c16-0.1,29-7.7,28.9-17c0-3.9-2.4-7.5-6.3-10.3
					c-5.3-3.8-13.6-6.3-22.9-6.2C179.6,454.5,167.6,461.9,167.7,471.2z"/>
				<path class="st82" d="M166.8,471.3c0.1,7.3,13.1,13.1,29.1,13s29-6.2,28.9-13.5c0-3.1-2.4-5.9-6.3-8.1c-5.3-3-13.6-4.9-22.8-4.9
					C179.7,458,166.7,464,166.8,471.3z"/>
				<path class="st81" d="M166.8,471.3c0,4.5,13.1,8.1,29.1,7.9c16-0.1,29-3.9,29-8.4c0-1.9-2.4-3.6-6.3-5c-5.3-1.9-13.6-3-22.8-2.9
					C179.7,463,166.7,466.8,166.8,471.3z"/>
				<path class="st82" d="M166.8,471.3c0,1.7,13,2.9,29.1,2.8c16-0.1,29-1.6,29-3.2c0-0.7-2.3-1.3-6.2-1.8c-5.3-0.7-13.6-1-22.8-1
					C179.8,468.2,166.8,469.6,166.8,471.3z"/>
				<path class="st83" d="M166.8,471.3c0-5.5,4.5-10.3,11.4-13.4c1.7,3.4,4.5,10.5,2.7,19.2c-0.6,3.1-1.6,5.5-2.7,7.4
					C171.3,481.4,166.8,476.7,166.8,471.3z"/>
				<path class="st80" d="M177.9,477.1c1.6-7.8-0.4-14.3-2.1-18c0.8-0.4,1.6-0.8,2.4-1.2c1.7,3.4,4.5,10.5,2.7,19.2
					c-0.6,3.1-1.6,5.5-2.7,7.4c-0.8-0.4-1.6-0.7-2.4-1.1C176.7,481.6,177.4,479.6,177.9,477.1z"/>
				<path class="st80" d="M168.7,477.2c-1.2-1.8-1.9-3.8-1.9-5.9c0-1.9,0.5-3.7,1.5-5.4c0.6,1.7,0.9,3.9,0.9,6.3
					C169.2,474,169,475.7,168.7,477.2z"/>
				<path class="st84" d="M195,480.9c14.7-0.1,26.8-6.5,28.6-14.7c0.8,1.5,1.2,3,1.2,4.6c0.1,9.2-12.9,16.8-28.9,17
					c-16,0.1-29.1-7.3-29.2-16.5c0-0.8,0.1-1.5,0.3-2.3C170.6,476,181.8,481,195,480.9z"/>
				<path class="st85" d="M218.3,481.5c-15.4,11.2-43.2,7.1-50-4.8c3.5,5.5,10.8,8.5,17.2,9.8C196.2,488.7,209.2,487.5,218.3,481.5z
					"/>
				<path class="st86" d="M233.1,469.9c0,2.8-4.1,6-11.7,8.3c-7-5.7-4.3-12.3-0.8-16C228.3,464.4,233.1,467,233.1,469.9z"/>
				<path class="st87" d="M232.3,472.1c-1.5,2.2-5.2,4.4-10.9,6.1c-6.5-5.3-4.7-11.2-1.6-15.1C219,467,219.8,472.8,232.3,472.1z"/>
				<path class="st88" d="M220.6,462.2c0.5,0.1,0.9,0.3,1.4,0.4c-3.2,3.7-5.5,9.8,0.7,15.2c-0.4,0.1-0.8,0.3-1.3,0.4
					C214.4,472.5,217.1,465.9,220.6,462.2z"/>
				<g>
					<path class="st89" d="M233.6,468l-0.5,1.9c0,0,0.7,0,1.5-0.5c0.6-0.3,1.1-1.3,0.5-1.9C234.6,467.1,233.7,467.4,233.6,468z"/>
					<path class="st89" d="M233.6,472.1l-0.5-1.9c0,0,0.7,0,1.5,0.5c0.6,0.3,1.1,1.3,0.5,1.9C234.5,473,233.7,472.8,233.6,472.1z"/>
					<path class="st90" d="M232.3,470.1c0,0.5,0.3,0.8,0.8,0.8c0.4,0,0.8-0.4,0.8-0.8c0-0.5-0.3-0.8-0.8-0.8
						C232.6,469.3,232.3,469.7,232.3,470.1z"/>
					<path class="st90" d="M230.9,468.8l1.8,0.8c0,0,0.1-0.7-0.2-1.6c-0.2-0.6-1.1-1.3-1.7-0.8C230.2,467.7,230.3,468.5,230.9,468.8
						z"/>
					<path class="st90" d="M231.6,472.2l0.9-1.7c0,0-0.7-0.1-1.6,0.1c-0.6,0.2-1.4,1-0.9,1.7C230.4,472.8,231.3,472.7,231.6,472.2z"
						/>
				</g>
				<path class="st83" d="M217,478.3l-1.8,1.3c-0.4,0.3-0.7,0.8-0.8,1.3c-0.1,0.9,0.4,2.2,4.3,2.3c6.2,0.2,11.3-2.7,10.2-3.5
					c-1-0.7-3.2-2.3-8.6-2.4C219.1,477.2,217.9,477.6,217,478.3z"/>
				<path class="st80" d="M215.2,479.6L215.2,479.6c4.9,2.1,10.4,1.3,13.8,0.4c-0.2,1-4.8,3.3-10.3,3.1c-4-0.1-4.5-1.4-4.3-2.4
					C214.5,480.3,214.8,479.9,215.2,479.6z"/>
				<path class="st91" d="M215.6,467.7c0,0,10.5-0.8,11.8,1.7c1.2,2.4-8.8,3.5-10.3,3.5c0,0-1.6,0.2-3-0.4
					C212.6,472.1,211.2,468.2,215.6,467.7z"/>
				<path class="st79" d="M186.4,484.7c0,0-1.8,1.7-3.1,1.7l3.7,1.6h1.4L186.4,484.7z"/>
				<path class="st92" d="M207.7,484.6l-4.3,9.2l-13.1,0.1l-4-9.1l1.4,0c0,0,0.2,1.7,5.9,2.6c5.7,0.9,11.9-2.8,11.9-2.8L207.7,484.6
					z"/>
				<path class="st93" d="M205.7,484.6c0,0-6.2,3.7-11.9,2.8c-5.7-0.9-5.9-2.6-5.9-2.6l-1.4,0l0.4,1c2.6,1.1,10.1,4.6,14.7,8l1.9,0
					l4.3-9.2L205.7,484.6z"/>
				<g>
					<path class="st85" d="M192.3,489.5c0,0.8-0.6,1.4-1.4,1.4c-0.8,0-1.4-0.6-1.4-1.4c0-0.8,0.6-1.4,1.4-1.4
						C191.6,488.1,192.3,488.7,192.3,489.5z"/>
					<path class="st94" d="M191.8,489.5c0,0.5-0.4,1-1,1c-0.5,0-1-0.4-1-1c0-0.5,0.4-1,1-1C191.4,488.6,191.8,489,191.8,489.5z"/>
					<path class="st95" d="M189.9,489.5c0,0.2,0,0.3,0.1,0.4c0.1,0,0.2,0.1,0.4,0.1c0.5,0,1-0.4,1-1c0-0.2,0-0.3-0.1-0.4
						c-0.1,0-0.2-0.1-0.4-0.1C190.3,488.6,189.9,489,189.9,489.5z"/>
				</g>
				<g>
					<circle class="st85" cx="195.6" cy="489.5" r="1.4"/>
					<path class="st94" d="M196.6,489.5c0,0.5-0.4,1-1,1c-0.5,0-1-0.4-1-1c0-0.5,0.4-1,1-1C196.2,488.6,196.6,489,196.6,489.5z"/>
					<path class="st95" d="M194.7,489.5c0,0.2,0,0.3,0.1,0.4c0.1,0,0.2,0.1,0.4,0.1c0.5,0,1-0.4,1-1c0-0.2,0-0.3-0.1-0.4
						c-0.1,0-0.2-0.1-0.4-0.1C195.1,488.6,194.7,489,194.7,489.5z"/>
				</g>
				<g>
					<circle class="st85" cx="200.5" cy="489.5" r="1.4"/>
					<path class="st94" d="M201.4,489.5c0,0.5-0.4,1-1,1c-0.5,0-1-0.4-1-1c0-0.5,0.4-1,1-1C201,488.6,201.4,489,201.4,489.5z"/>
					<path class="st95" d="M199.5,489.5c0,0.2,0,0.3,0.1,0.4c0.1,0,0.2,0.1,0.4,0.1c0.5,0,1-0.4,1-1c0-0.2,0-0.3-0.1-0.4
						c-0.1,0-0.2-0.1-0.4-0.1C199.9,488.6,199.5,489,199.5,489.5z"/>
				</g>
				<polygon class="st85" points="183.6,487.2 186.4,486.4 188.8,492 186.2,491.8 				"/>
				<polygon class="st94" points="184.1,487.5 186.3,491.5 188.1,491.5 186.2,486.9 				"/>
				<path class="st95" d="M186.3,487.3l-0.2-0.4l-2.1,0.6l2.2,4h0.1C186.6,490.1,186.4,488.4,186.3,487.3z"/>
			</g>
			<path class="st96" d="M214.5,470.6c0,0.5,2.6,0.6,5.7,0.4c3.1-0.2,5.6-0.8,5.6-1.2c0-0.5-2.6-0.6-5.7-0.4
				C217,469.6,214.5,470.1,214.5,470.6z"/>
			<path class="st97" d="M183,462.2c0,4,6.1,7.2,13.5,7.1c7.5-0.1,13.5-3.3,13.4-7.3c0-4-6.1-7.2-13.5-7.1
				C189,455,183,458.3,183,462.2z"/>
			<polygon class="st85" points="207.7,484.6 203.5,493.7 190.4,493.8 203,493.3 			"/>
		</g>
	</g>
</g>
<path class="st98" d="M997,1080c-6-48.5-69.1-64.2-116.7-60c-52.8-49.5-124.8-24.8-148.2,19.9c-47.8-9.2-112.1,6.1-133.5,40.1H997z"
	/>
<path class="st99" d="M1019.2,1061.9l0.8,0.9c0.2,0.2,0.5,0.3,0.6,0.2l1.3-0.8h-0.2l1.9,2.7l14.8-1.4c1.1-0.2,2.3-0.5,3.3-1.1
	l3.4-2.4c4.6,3.6,9.7,5.3,12.5,5.3l15.6-1.1l1.9-2.1h2.4c0.3,0,0.5-0.1,0.7-0.3c0.2-0.2,0.3-0.4,0.4-0.7c0-0.2-0.1-0.4-0.2-0.6
	c-0.1-0.2-0.3-0.3-0.5-0.4c-4.5-1.8-8.8-4.3-12.6-7.2l-1.9-1.4l-0.8-0.6l-3.2-3c0.5-1.2,0.9-2.5,1.1-3.8c0-0.2,0.2-0.3,0-0.5
	c0-0.2,0-0.3-0.3-0.5c-0.9-0.2-1.8-0.3-2.7-0.3h-18.5c-1.7,0-2.5,0.8-1.6,4.3c-5.3,6-14.8,12.1-18.3,14.4c-0.1,0.1-0.1,0.1-0.1,0.1
	C1019.2,1061.8,1019.2,1061.8,1019.2,1061.9L1019.2,1061.9z"/>
<path class="st100" d="M799.2,836.9c-3.7-2.4-6.1-6.2-6.8-10.5l-1.1-7.3c0-0.4-0.3-0.6-0.7-0.6l0,0c-0.4,0-0.7,0.3-0.7,0.6l-1.1,7.3
	c-0.7,4.3-3.1,8.1-6.8,10.5l-1,0.6c-0.2,0.1-0.3,0.4-0.3,0.6l0,0c0,0.2,0.1,0.5,0.3,0.6l1,0.6c3.6,2.4,6.1,6.2,6.8,10.5l1.1,7.3
	c0.1,0.4,0.4,0.6,0.7,0.6l0,0c0.4,0,0.7-0.3,0.7-0.6l1.1-7.3c0.7-4.3,3.1-8.1,6.8-10.5l0.9-0.6c0.2-0.1,0.3-0.4,0.3-0.6l0,0
	c0-0.2-0.1-0.5-0.3-0.6L799.2,836.9z"/>
<path class="st101" d="M1149.7,972.2c-3.7-1.6-6.1-4.3-6.8-7.2l-1.1-5.1c0-0.3-0.3-0.4-0.7-0.4l0,0c-0.4,0-0.7,0.2-0.7,0.4l-1.1,5.1
	c-0.7,3-3.1,5.6-6.8,7.2l-1,0.4c-0.2,0.1-0.3,0.3-0.3,0.4l0,0c0,0.2,0.1,0.3,0.3,0.4l1,0.4c3.6,1.6,6.1,4.3,6.8,7.2l1.1,5.1
	c0.1,0.2,0.4,0.4,0.7,0.4l0,0c0.4,0,0.7-0.2,0.7-0.4l1.1-5.1c0.7-3,3.1-5.6,6.8-7.2l0.9-0.4c0.2-0.1,0.3-0.3,0.3-0.4l0,0
	c0-0.2-0.1-0.3-0.3-0.4L1149.7,972.2z"/>
</svg>
