<?xml version="1.0" encoding="utf-8"?>
<!-- Generator: Adobe Illustrator 24.2.1, SVG Export Plug-In . SVG Version: 6.00 Build 0)  -->
<svg version="1.1" id="katman_1" xmlns="http://www.w3.org/2000/svg" xmlns:xlink="http://www.w3.org/1999/xlink" x="0px" y="0px"
	 viewBox="0 0 27 27" style="enable-background:new 0 0 27 27;" xml:space="preserve">
<style type="text/css">
	.st0{fill:#FFFFFF;}
</style>
<g>
	<path class="st0" d="M14.6,27h-2.3c-0.6,0-1-0.5-1-1V1c0-0.6,0.4-1,1-1l2.3,0c0.6,0,1,0.4,1,1v25C15.6,26.5,15.2,27,14.6,27z"/>
	<path class="st0" d="M0,14.6l0-2.3c0-0.6,0.4-1,1-1h25c0.5,0,1,0.4,1,1v2.3c0,0.6-0.5,1-1,1H1C0.4,15.6,0,15.2,0,14.6z"/>
</g>
</svg>
