<?xml version="1.0" encoding="utf-8"?>
<!-- Generator: Adobe Illustrator 24.2.1, SVG Export Plug-In . SVG Version: 6.00 Build 0)  -->
<svg version="1.1" id="katman_1" xmlns="http://www.w3.org/2000/svg" xmlns:xlink="http://www.w3.org/1999/xlink" x="0px" y="0px"
	 viewBox="0 0 20 20" style="enable-background:new 0 0 20 20;" xml:space="preserve">
<style type="text/css">
	.st0{fill:#FFFFFF;}
</style>
<g>
	<path class="st0" d="M8.7,5.4l0.9-0.9c0.3-0.2,0.6-0.2,0.8-0.1l9.5,9.5c0.2,0.2,0.2,0.5,0,0.7L19,15.5c-0.2,0.2-0.5,0.2-0.7,0
		L8.8,6C8.6,5.9,8.6,5.5,8.7,5.4z"/>
	<path class="st0" d="M10.4,4.4l0.9,0.9c0.2,0.2,0.2,0.5,0,0.7l-9.5,9.5c-0.2,0.2-0.5,0.2-0.7,0l-0.9-0.9c-0.2-0.2-0.2-0.5,0-0.7
		l9.5-9.5C9.9,4.3,10.2,4.3,10.4,4.4z"/>
</g>
</svg>
