<?xml version="1.0" encoding="utf-8"?>
<!-- Generator: Adobe Illustrator 24.2.1, SVG Export Plug-In . SVG Version: 6.00 Build 0)  -->
<svg version="1.0" id="art" xmlns="http://www.w3.org/2000/svg" xmlns:xlink="http://www.w3.org/1999/xlink" x="0px" y="0px"
	 viewBox="0 0 900 540" enable-background="new 0 0 900 540" xml:space="preserve">
<rect fill="#404EED" width="900" height="540"/>
<path fill="#4A66F4" d="M0,198.58h379.29c-38.57-39.54-80.36-25.91-80.36-25.91s-34.94-56.09-79.01-26.42
	C200.96,26.1,119.57,65.67,119.57,65.67C100.22-1.77,25.36-7.78,0,10.7V198.58z"/>
<path fill="#FFFFFF" d="M900,16.07V0h-99.64c-4.54,6.86-8.61,14.03-12.18,21.44l-29.09,61.07l48.79-30.28
	c8.23-4.98,18.16-6.32,27.42-3.7c14.51,4.06,30.01,2.6,43.52-4.08c5.38-2.62,7.62-9.1,5-14.48c-0.68-1.4-1.65-2.63-2.85-3.62
	l-11.15-9.19C879.79,19.54,890.22,19.16,900,16.07z"/>
<path fill="#FFFFFF" d="M638.29,107.52l-31.34-29.89c-11.62-11.08-25.47-19.55-40.63-24.85L495,27.77
	c-3.72-1.42-7.88,0.45-9.29,4.17c-0.47,1.23-0.59,2.57-0.35,3.87c2.38,12.86,11.09,32.4,41.43,40.15l-11.44,4.4
	c-3.73,1.43-5.6,5.61-4.17,9.34c0.59,1.55,1.7,2.85,3.14,3.68c10.38,5.88,26.55,11.03,42.78,0.29l-4.24,7.68
	c-1.97,3.48-0.74,7.89,2.74,9.85c0.92,0.52,1.93,0.83,2.98,0.91c9.55,0.78,19.05-1.97,26.71-7.71c4.68-3.56,10.63-5,16.43-3.99
	L638.29,107.52z"/>
<path fill="#808AFF" d="M702.67,214.23c0.28,0.19,0.63,0.27,0.96,0.23c0.33-0.06,0.62-0.23,0.84-0.48
	c7.1-8.87,12.09-9.48,16.07-7.59c2.64,1.25,5.75,6.17,7.42,12.31c0.4,1.27,1.63,2.08,2.96,1.96c0.44-0.06,0.86-0.23,1.22-0.48
	c0.39-0.23,0.7-0.58,0.87-1c3.47-6.43,5.43-9.64,9.1-11.96c5.57-2.86,12.31-2.18,17.2,1.74l9.16-18.84
	c-11.75-4.47-21.5-13.03-27.45-24.11c-6.2-10.58-9.13-8.97-18.42,4.15c-9.4,12.83-16.36,27.28-20.54,42.62
	c-0.14,0.27-0.14,0.6,0,0.87C702.18,213.92,702.4,214.13,702.67,214.23z"/>
<path d="M640.54,112.28c19.86-7.55,44.1,6.14,54.1,30.57c10,24.43,2.15,50.37-17.71,57.86l57.6-3.7
	c48.47-18.55,72.06-44.26,52.97-91.93c-13.98-35.13-46.22-46.38-90-29.57S640.54,112.28,640.54,112.28z"/>
<path fill="#FFFFFF" d="M678.83,100.16c18.03,22.5,28.48,35.74,33.14,39.02c4.66,3.28,4.98,0.51,2.28-11.6
	C711.55,115.46,703,72.93,703,72.93L678.83,100.16z"/>
<path fill="#808AFF" d="M649.61,126.55c13.18,16.62,20.92,26.26,24.3,28.64c3.38,2.38,3.66,0.42,1.67-8.49
	c-1.99-8.9-8.2-40.27-8.2-40.27L649.61,126.55z"/>
<path fill="#FFFFFF" d="M736.52,189.8c-1.74-21.02-2.7-33.27-1.8-37.09s2.38-2.73,7.04,5.14s21.66,35,21.66,35L736.52,189.8z"/>
<path fill="#91FFAD" d="M654.08,192.86c2.5-7.6,8.47-13.57,16.07-16.07c10.29-3.57,22.5-5.69,48.73,0.39
	c8.93,2.19,18.31,1.6,26.9-1.67c25.86-10.72,40.77-38.01,35.81-65.57c-5.43-26.45-30.44-40.08-55.67-30.34
	c-12.43,4.62-22.73,13.64-28.93,25.36c-17.13,31.34-23.98,39.73-38.57,46.48c-6.78,3.15-14.52,3.53-21.57,1.06
	c-16.75-6.14-24.36-26.68-14.3-52.01c4.74-11.83,11.93-22.54,21.09-31.4c9.2-8.94,20.14-15.89,32.14-20.41
	c14.46-5.5,30.02-7.43,45.39-5.63c15.31,1.82,29.95,7.33,42.65,16.07c12.63,8.66,22.93,20.29,29.99,33.88
	c14.14,27.45,13.45,60.18-1.83,87.01c-7.59,13.31-18.36,24.54-31.34,32.69c-26.51,16.69-59.53,19.3-88.33,6.97
	C653.43,211.76,651.54,201.12,654.08,192.86z"/>
<path fill="#FFFFFF" d="M765,69.88c-13.45-7.03-29.32-7.76-43.36-1.99c-15.14,6.02-27.67,17.2-35.36,31.56
	c-11.06,19.29-27.61,45-44.58,45.87c-3.95,0.19-7.89-0.54-11.51-2.12c-3.62-1.55-6.81-3.94-9.32-6.98c0.05,0.33,0.16,0.64,0.32,0.93
	c1.58,3.9,4.28,7.26,7.75,9.64c3.48,2.35,7.56,3.65,11.76,3.76h1.32c15.11-0.77,30.18-15.72,48.92-48.44
	c7.04-13.4,18.67-23.81,32.75-29.35c12.66-5.18,26.96-4.56,39.12,1.7c6.24,3.55,11.63,8.41,15.81,14.24
	c4.13,5.81,6.91,12.48,8.13,19.51c6.43,30.86-11.6,64.93-40.44,75.95c-9.8,3.56-20.43,4.16-30.57,1.74
	c-28.06-5.56-46.74-4.02-56.96,4.73l-1.29,1.16c-1.86,1.92-3.07,4.37-3.47,7.01c-0.4,2.64,0.08,5.34,1.35,7.68
	c0.25-2.37,0.97-4.66,2.12-6.75c1.19-2.09,2.76-3.95,4.63-5.46c8.77-7.52,26.49-8.71,52.49-3.21c11.19,2.56,22.89,1.8,33.65-2.19
	c31.02-11.89,50.69-48.6,43.62-81.8c-1.42-7.76-4.57-15.1-9.22-21.47C778.01,79.12,771.98,73.76,765,69.88z"/>
<path fill="#FF78B9" d="M759.5,167.5c0,0,48.7-10.74,48.21,50.5c-0.55,55,73.64,14.4,37.45-46.03
	c-27.35-45.71-63.23-40.89-63.23-40.89s-4.95-1.35-7.17,10.57c-0.67,3.93-2.91,7.41-6.2,9.64
	C760.34,156.63,758.25,161.07,759.5,167.5z"/>
<path fill="#FF54A6" d="M806.4,150.49c-9.36-6.18-20.31-9.53-31.53-9.64l-0.19,0.87c-0.65,3.51-2.56,6.67-5.37,8.87
	c11.12-0.85,22.23,1.93,31.63,7.94c11.31,7.91,18.06,21.54,20.06,40.56c0.25,2.46,2.32,4.34,4.79,4.34h0.51
	c2.65-0.29,4.57-2.65,4.31-5.3C828.32,176.05,820.16,160.07,806.4,150.49z"/>
<ellipse transform="matrix(0.8438 -0.5367 0.5367 0.8438 83.7728 351.837)" fill="none" stroke="#FFF2A6" stroke-width="3.28" stroke-linecap="round" stroke-miterlimit="10" cx="646.22" cy="32.03" rx="31.53" ry="12.12"/>
<path fill="#4A66F4" d="M72.74,486.48c0,0,49.53-94.4,112.05-14.69c0,0,59.24-9.64,80.36,48.89H6.3
	C6.3,520.68,45.84,459,72.74,486.48z"/>
<path fill="#4A66F4" d="M648.13,438.2c0,0,29.35-159.88,110.67,30.76c0,0,33.91-36.45,81.87,33.36H534.31
	C534.31,502.33,574.36,397.83,648.13,438.2z"/>
<path fill="#1A30B5" d="M726.43,396.1c0.6,0.32,1.29,0.42,1.96,0.29c0.66-0.13,1.25-0.51,1.64-1.06
	c13.18-18.06,22.82-19.83,30.66-16.49c5.27,2.25,11.96,11.6,16.07,23.56c0.41,1.19,1.23,2.19,2.31,2.83
	c1.09,0.65,2.38,0.9,3.63,0.71c0.88-0.15,1.72-0.5,2.44-1.03c0.69-0.53,1.24-1.21,1.61-1.99c5.91-13.05,9.64-19.51,16.71-24.46
	c7.07-4.95,21.47-6.91,34.26,1.64l16.3-37.96c-27.35-8.71-43.97-25.71-56.48-45c-13.4-20.25-18.87-16.78-35.87,10
	c-17.23,26.23-29.55,55.36-36.39,85.98c-0.13,0.54-0.07,1.1,0.16,1.61C725.64,395.26,725.98,395.74,726.43,396.1z"/>
<path d="M829.29,376.59c-0.96,0.01-1.89-0.39-2.54-1.09c-11.29-11.56-20.75-24.79-28.03-39.21c-0.89-1.78-0.17-3.93,1.61-4.82
	c1.78-0.89,3.93-0.17,4.82,1.61l0,0c6.95,13.78,15.97,26.42,26.74,37.48c1.39,1.39,1.39,3.65,0,5.05c0,0,0,0,0,0
	C831.19,376.25,830.25,376.61,829.29,376.59z"/>
<path d="M867.54,446.01l32.46-2.09v-114.3c-4.83,1.18-9.57,2.66-14.21,4.44c-39.28,15.07-50.79,32.88-50.79,32.88
	c17.74-6.75,39.41,5.5,48.37,27.32C892.35,416.09,885.28,439.3,867.54,446.01z"/>
<path fill="#FFFFFF" d="M900,376.68c-3.02-14.05-9.19-45-9.19-45l-21.6,24.46c16.07,20.19,25.49,31.95,29.64,34.88
	c0.37,0.27,0.76,0.52,1.16,0.74V376.68z"/>
<path fill="#FFFFFF" d="M843.11,379.7c11.76,14.85,18.71,23.46,21.73,25.71s3.21,0.35,1.48-7.62c-1.74-7.97-7.33-35.97-7.33-35.97
	L843.11,379.7z"/>
<g>
	<defs>
		<path id="SVGID_1_" d="M885.57,360.39c3.47-6.53,8.41-12.16,14.43-16.46v-39.38c-11.44-0.43-22.86,1.45-33.56,5.53
			c-10.72,4.05-20.49,10.27-28.7,18.26c-8.19,7.92-14.61,17.48-18.84,28.06c-9.03,22.66-2.22,41.01,12.86,46.51
			c6.31,2.2,13.23,1.85,19.29-0.96C864.13,395.9,870.27,388.41,885.57,360.39z"/>
	</defs>
	<clipPath id="SVGID_2_">
		<use xlink:href="#SVGID_1_"  overflow="visible"/>
	</clipPath>
	<g clip-path="url(#SVGID_2_)">
		<polygon fill="#66BCFF" points="900,312.24 878.88,304.14 900,304.14 		"/>
		<polygon fill="#66BCFF" points="900,314.71 872.45,304.14 878.88,304.14 900,312.24 		"/>
		<polygon fill="#67BDFF" points="900,317.15 866.06,304.14 872.45,304.14 900,314.71 		"/>
		<polygon fill="#68BEFF" points="900,319.63 859.66,304.14 866.06,304.14 900,317.15 		"/>
		<polygon fill="#69BEFF" points="900,322.07 853.23,304.14 859.66,304.14 900,319.63 		"/>
		<polygon fill="#6ABFFF" points="900,324.55 846.84,304.14 853.23,304.14 900,322.07 		"/>
		<polygon fill="#6BC0FF" points="900,326.99 840.44,304.14 846.84,304.14 900,324.55 		"/>
		<polygon fill="#6CC1FF" points="900,329.43 834.04,304.14 840.44,304.14 900,326.99 		"/>
		<polygon fill="#6DC1FF" points="900,331.91 830.8,305.36 831.28,304.14 834.04,304.14 900,329.43 		"/>
		<polygon fill="#6EC2FF" points="900,334.35 829.99,307.51 830.8,305.36 900,331.91 		"/>
		<polygon fill="#6FC3FF" points="900,336.83 829.16,309.63 829.99,307.51 900,334.35 		"/>
		<polygon fill="#70C4FF" points="900,339.27 828.35,311.79 829.16,309.63 900,336.83 		"/>
		<polygon fill="#71C5FF" points="900,341.71 827.52,313.94 828.35,311.79 900,339.27 		"/>
		<polygon fill="#72C5FF" points="900,344.19 826.71,316.06 827.52,313.94 900,341.71 		"/>
		<polygon fill="#73C6FF" points="900,346.63 825.88,318.21 826.71,316.06 900,344.19 		"/>
		<polygon fill="#74C7FF" points="900,349.1 825.08,320.37 825.88,318.21 900,346.63 		"/>
		<polygon fill="#75C8FF" points="900,351.55 824.24,322.49 825.08,320.37 900,349.1 		"/>
		<polygon fill="#76C9FF" points="900,354.02 823.44,324.64 824.24,322.49 900,351.55 		"/>
		<polygon fill="#77C9FF" points="900,356.46 822.6,326.8 823.44,324.64 900,354.02 		"/>
		<polygon fill="#78CAFF" points="900,358.91 821.76,328.92 822.6,326.8 900,356.46 		"/>
		<polygon fill="#7ACBFF" points="900,361.38 820.96,331.07 821.76,328.92 900,358.91 		"/>
		<polygon fill="#7BCCFF" points="900,362.93 899.68,363.73 820.13,333.19 820.96,331.07 900,361.38 		"/>
		
			<rect x="858.37" y="306.94" transform="matrix(0.358 -0.9337 0.9337 0.358 225.4006 1026.926)" fill="#7CCCFF" width="2.28" height="85.21"/>
		
			<rect x="857.53" y="309.06" transform="matrix(0.358 -0.9337 0.9337 0.358 222.8773 1027.4972)" fill="#7DCDFF" width="2.28" height="85.21"/>
		
			<rect x="856.7" y="311.22" transform="matrix(0.358 -0.9337 0.9337 0.358 220.3273 1028.1123)" fill="#7ECEFF" width="2.28" height="85.21"/>
		
			<rect x="855.92" y="313.35" transform="matrix(0.358 -0.9337 0.9337 0.358 217.8332 1028.7489)" fill="#7FCFFF" width="2.28" height="85.21"/>
		
			<rect x="855.06" y="315.5" transform="matrix(0.358 -0.9337 0.9337 0.358 215.2746 1029.3287)" fill="#80D0FF" width="2.28" height="85.21"/>
		
			<rect x="854.27" y="317.64" transform="matrix(0.358 -0.9337 0.9337 0.358 212.7805 1029.9653)" fill="#81D0FF" width="2.28" height="85.21"/>
		
			<rect x="853.45" y="319.8" transform="matrix(0.358 -0.9337 0.9337 0.358 210.2304 1030.5804)" fill="#82D1FF" width="2.28" height="85.21"/>
		
			<rect x="852.6" y="321.92" transform="matrix(0.358 -0.9337 0.9337 0.358 207.7072 1031.1516)" fill="#83D2FF" width="2.28" height="85.21"/>
		
			<rect x="851.8" y="324.08" transform="matrix(0.358 -0.9337 0.9337 0.358 205.1777 1031.7969)" fill="#84D3FF" width="2.28" height="85.21"/>
		
			<rect x="850.96" y="326.17" transform="matrix(0.358 -0.9337 0.9337 0.358 202.6845 1032.3474)" fill="#85D4FF" width="2.28" height="85.21"/>
		
			<rect x="850.16" y="328.33" transform="matrix(0.358 -0.9337 0.9337 0.358 200.155 1032.9926)" fill="#86D4FF" width="2.28" height="85.21"/>
		
			<rect x="849.33" y="330.49" transform="matrix(0.358 -0.9337 0.9337 0.358 197.6049 1033.6077)" fill="#87D5FF" width="2.28" height="85.21"/>
		<polygon fill="#88D6FF" points="889.84,389.41 889.01,391.56 809.87,361.19 809.87,359.94 810.29,358.91 		"/>
		<polygon fill="#89D7FF" points="889.01,391.56 888.2,393.69 809.87,363.66 809.87,361.19 		"/>
		<polygon fill="#8AD7FF" points="888.2,393.69 887.37,395.84 809.87,366.11 809.87,363.66 		"/>
		<polygon fill="#8BD8FF" points="887.37,395.84 886.56,397.96 809.87,368.58 809.87,366.11 		"/>
		<polygon fill="#8CD9FF" points="886.56,397.96 885.73,400.11 809.87,371.02 809.87,368.58 		"/>
		<polygon fill="#8CD9FF" points="885.73,400.11 883.83,405.1 809.87,405.1 809.87,371.02 		"/>
	</g>
</g>
<g>
	<defs>
		<path id="SVGID_3_" d="M900,423.77c-19.9-4.02-29.99-2.19-38.57,0.74c-3.38,1.1-6.45,2.99-8.94,5.53c-2.53,2.48-4.41,5.53-5.5,8.9
			c-2.25,7.42-0.58,16.91,16.3,24.11c11.59,4.93,24.12,7.25,36.71,6.78V423.77z"/>
	</defs>
	<clipPath id="SVGID_4_">
		<use xlink:href="#SVGID_3_"  overflow="visible"/>
	</clipPath>
	<g clip-path="url(#SVGID_4_)">
		<polygon fill="#66BCFF" points="900,427.08 880.94,419.75 900,419.75 		"/>
		<polygon fill="#66BCFF" points="900,428.11 878.17,419.75 880.94,419.75 900,427.08 		"/>
		<polygon fill="#67BDFF" points="900,429.17 875.44,419.75 878.17,419.75 900,428.11 		"/>
		<polygon fill="#68BEFF" points="900,430.23 872.68,419.75 875.44,419.75 900,429.17 		"/>
		<polygon fill="#69BEFF" points="900,431.29 869.95,419.75 872.68,419.75 900,430.23 		"/>
		<polygon fill="#6ABFFF" points="900,432.32 867.21,419.75 869.95,419.75 900,431.29 		"/>
		<polygon fill="#6BC0FF" points="900,433.38 864.45,419.75 867.21,419.75 900,432.32 		"/>
		<polygon fill="#6CC1FF" points="900,434.44 861.72,419.75 864.45,419.75 900,433.38 		"/>
		<polygon fill="#6DC1FF" points="900,435.5 858.99,419.75 861.72,419.75 900,434.44 		"/>
		<polygon fill="#6EC2FF" points="900,436.53 856.22,419.75 858.99,419.75 900,435.5 		"/>
		<polygon fill="#6FC3FF" points="900,437.59 853.49,419.75 856.22,419.75 900,436.53 		"/>
		<polygon fill="#70C4FF" points="900,438.65 850.73,419.75 853.49,419.75 900,437.59 		"/>
		<polygon fill="#71C5FF" points="900,439.71 847.99,419.75 850.73,419.75 900,438.65 		"/>
		<polygon fill="#72C5FF" points="900,440.74 846.71,420.33 846.93,419.75 847.99,419.75 900,439.71 		"/>
		<polygon fill="#73C6FF" points="900,441.8 846.35,421.23 846.71,420.33 900,440.74 		"/>
		<polygon fill="#74C7FF" points="900,442.86 846,422.16 846.35,421.23 900,441.8 		"/>
		<polygon fill="#75C8FF" points="900,443.92 845.65,423.06 846,422.16 900,442.86 		"/>
		<polygon fill="#76C9FF" points="900,444.95 845.32,424 845.65,423.06 900,443.92 		"/>
		<polygon fill="#77C9FF" points="900,446.01 844.97,424.9 845.32,424 900,444.95 		"/>
		<polygon fill="#78CAFF" points="900,447.07 844.84,425.92 844.84,425.22 844.97,424.9 900,446.01 		"/>
		<polygon fill="#7ACBFF" points="900,448.14 844.84,426.99 844.84,425.92 900,447.07 		"/>
		<polygon fill="#7BCCFF" points="900,449.16 844.84,428.01 844.84,426.99 900,448.14 		"/>
		<polygon fill="#7CCCFF" points="900,450.23 844.84,429.08 844.84,428.01 900,449.16 		"/>
		<polygon fill="#7DCDFF" points="900,451.29 844.84,430.14 844.84,429.08 900,450.23 		"/>
		<polygon fill="#7ECEFF" points="900,452.35 844.84,431.2 844.84,430.14 900,451.29 		"/>
		<polygon fill="#7FCFFF" points="900,453.38 844.84,432.23 844.84,431.2 900,452.35 		"/>
		<polygon fill="#80D0FF" points="900,454.44 844.84,433.29 844.84,432.23 900,453.38 		"/>
		<polygon fill="#81D0FF" points="900,455.5 844.84,434.35 844.84,433.29 900,454.44 		"/>
		<polygon fill="#82D1FF" points="900,456.56 844.84,435.41 844.84,434.35 900,455.5 		"/>
		<polygon fill="#83D2FF" points="900,457.59 844.84,436.44 844.84,435.41 900,456.56 		"/>
		<polygon fill="#84D3FF" points="900,458.65 844.84,437.5 844.84,436.44 900,457.59 		"/>
		<polygon fill="#85D4FF" points="900,459.71 844.84,438.56 844.84,437.5 900,458.65 		"/>
		<polygon fill="#86D4FF" points="900,460.77 844.84,439.59 844.84,438.56 900,459.71 		"/>
		<polygon fill="#87D5FF" points="900,461.8 844.84,440.65 844.84,439.59 900,460.77 		"/>
		<polygon fill="#88D6FF" points="900,462.86 844.84,441.71 844.84,440.65 900,461.8 		"/>
		<polygon fill="#89D7FF" points="900,463.92 844.84,442.77 844.84,441.71 900,462.86 		"/>
		<polygon fill="#8AD7FF" points="900,464.98 844.84,443.8 844.84,442.77 900,463.92 		"/>
		<polygon fill="#8BD8FF" points="900,466.01 844.84,444.86 844.84,443.8 900,464.98 		"/>
		<polygon fill="#8CD9FF" points="900,467.07 844.84,445.92 844.84,444.86 900,466.01 		"/>
		<polygon fill="#8CD9FF" points="844.84,445.92 900,467.07 900,470.28 844.84,470.28 		"/>
	</g>
</g>
<path d="M780.65,405.67c-1.76-0.01-3.25-1.29-3.54-3.02c-4.05-26.65-2.35-66.63-2.28-68.3c-0.08-1.97,1.46-3.63,3.43-3.7
	c1.97-0.08,3.63,1.46,3.7,3.43c0.01,0.2,0,0.4-0.03,0.59c0,0.39-1.74,40.95,2.22,66.92c0.29,1.94-1.05,3.75-2.99,4.05L780.65,405.67
	z"/>
<path d="M727.71,397.83c-1.97-0.04-3.53-1.67-3.49-3.64c0.01-0.45,0.1-0.89,0.28-1.31c9.38-22.1,20.87-43.24,34.33-63.13
	c1.25-1.52,3.5-1.74,5.02-0.49c1.33,1.09,1.69,2.97,0.86,4.48c-13.2,19.5-24.47,40.23-33.65,61.91
	C730.5,396.99,729.17,397.86,727.71,397.83z"/>
<path fill="#EB459F" d="M879.85,357.75c4.66-8.89,11.62-16.36,20.15-21.63v-5.27c-10.29,5.71-18.73,14.25-24.3,24.62
	c-9.9,17.26-24.69,40.27-39.89,41.01c-3.53,0.16-7.05-0.49-10.29-1.9c-3.22-1.41-6.07-3.54-8.33-6.24c0.05,0.29,0.15,0.57,0.29,0.84
	c2.95,7.07,9.8,11.72,17.45,11.86h1.16C849.63,400.37,863.1,387,879.85,357.75z"/>
<path fill="#EB459F" d="M900,432.29c-23.95-4.5-39.99-2.99-48.86,4.6l-1.16,1.06c-3.44,3.48-4.22,8.79-1.93,13.11
	c0.24-2.12,0.89-4.18,1.93-6.04c1.08-1.84,2.51-3.46,4.21-4.76c7.71-6.62,23.21-7.71,45.8-3.21V432.29z"/>
<path fill="#FF78B9" d="M222.64,431.67c-6.32-4.07-10.58-10.66-11.7-18.1l-1.77-12.63c-0.08-0.63-0.62-1.1-1.25-1.09l0,0
	c-0.62,0.02-1.15,0.48-1.25,1.09l-1.9,12.63c-1.11,7.43-5.36,14.02-11.67,18.1l-1.64,1.06c-0.36,0.23-0.58,0.63-0.58,1.06l0,0
	c0,0.43,0.22,0.83,0.58,1.06l1.64,1.06c6.31,4.08,10.56,10.67,11.67,18.1l1.9,12.63c0.11,0.62,0.63,1.07,1.25,1.09l0,0
	c0.63,0.01,1.17-0.46,1.25-1.09l1.9-12.63c1.12-7.43,5.38-14.02,11.7-18.1l1.64-1.06c0.36-0.23,0.58-0.63,0.58-1.06l0,0
	c0-0.43-0.22-0.83-0.58-1.06L222.64,431.67z"/>
<path fill="#FF78B9" d="M871.41,97.63c-3.72-2.39-6.22-6.27-6.88-10.64l-1.04-7.43c-0.05-0.37-0.36-0.65-0.74-0.64l0,0
	c-0.37,0.01-0.67,0.28-0.74,0.64l-1.12,7.43c-0.65,4.37-3.15,8.25-6.86,10.64l-0.96,0.62c-0.21,0.14-0.34,0.37-0.34,0.62l0,0
	c0,0.25,0.13,0.49,0.34,0.62l0.96,0.62c3.71,2.4,6.21,6.27,6.86,10.64l1.12,7.43c0.06,0.36,0.37,0.63,0.74,0.64l0,0
	c0.37,0,0.69-0.27,0.74-0.64l1.12-7.43c0.66-4.37,3.17-8.25,6.88-10.64l0.96-0.62c0.21-0.14,0.34-0.37,0.34-0.62l0,0
	c0-0.25-0.13-0.49-0.34-0.62L871.41,97.63z"/>
<path fill="#FFC619" d="M236.54,51.38c-4.15-2.67-6.96-7-7.7-11.89l-1.24-8.32c-0.06-0.41-0.42-0.72-0.83-0.71l0,0
	c-0.41,0.01-0.76,0.31-0.83,0.71l-1.24,8.32c-0.74,4.88-3.54,9.2-7.68,11.89l-1.09,0.69c-0.24,0.15-0.38,0.41-0.38,0.69l0,0
	c0,0.29,0.14,0.56,0.38,0.71l1.09,0.69c4.14,2.68,6.94,7.01,7.68,11.89l1.24,8.32c0.07,0.41,0.42,0.71,0.83,0.71l0,0
	c0.42,0,0.77-0.3,0.83-0.71l1.24-8.32c0.74-4.88,3.55-9.21,7.7-11.89l1.07-0.69c0.24-0.16,0.39-0.43,0.38-0.71l0,0
	c0-0.28-0.14-0.54-0.38-0.69L236.54,51.38z"/>
<path fill="#91FFAD" d="M49.66,124.37c-4.45-2.87-7.44-7.51-8.24-12.75l-1.33-8.9c-0.06-0.44-0.43-0.76-0.88-0.76l0,0
	c-0.44,0-0.82,0.32-0.89,0.76l-1.33,8.9c-0.78,5.23-3.77,9.88-8.22,12.75l-1.16,0.74c-0.25,0.16-0.4,0.44-0.4,0.74l0,0
	c0,0.3,0.15,0.59,0.4,0.76l1.16,0.74c4.45,2.86,7.45,7.5,8.22,12.73l1.33,8.9c0.07,0.44,0.45,0.76,0.89,0.76l0,0
	c0.44,0,0.82-0.32,0.88-0.76l1.33-8.9c0.79-5.23,3.79-9.87,8.24-12.73l1.14-0.74c0.26-0.16,0.42-0.45,0.42-0.76l0,0
	c0.01-0.31-0.15-0.59-0.42-0.74L49.66,124.37z"/>
<path fill="#C5CEDD" d="M84.2,403.18c-1.02-0.03-1.91-0.7-2.22-1.66c-4.44-16.46,5.55-29.78,13.69-40.32
	c2.37-3.06,4.53-6.27,6.47-9.62c5.92-11.1,1.29-25.52-0.92-32.55c-0.7-1.13-0.35-2.61,0.78-3.31c1.13-0.7,2.61-0.35,3.31,0.78
	c0.2,0.32,0.32,0.68,0.35,1.05c2.22,7.03,7.4,23.49,0.55,36.25c-2.09,3.56-4.44,6.96-7.03,10.17c-7.4,9.8-16.65,22.19-12.76,36.25
	c0.35,1.28-0.39,2.6-1.66,2.96H84.2z"/>
<path fill="#57F287" d="M116.57,277.23c3.33,13.13-4.99,34.77-14.06,37.17c-9.06,2.4-27.19-12.21-30.7-25.34s3.7-26.45,16.09-29.78
	C100.29,255.96,113.06,264.09,116.57,277.23z"/>
<path fill="#57F287" d="M97.7,318.65c-0.55-2.4,1.66-6.66,3.88-7.21s6.29,1.85,7.03,4.44C109.36,318.47,98.44,321.06,97.7,318.65z"
	/>
<path fill="#91FFAD" d="M79.4,274.45c-2.4,5.55-0.55,10.36,1.66,10.17c2.22-0.18,3.33-3.88,6.29-8.14s5.36-5.92,4.07-8.69
	C90.12,265.02,82.91,266.5,79.4,274.45z"/>
<g>
	<path fill="#C5CEDD" d="M362.82,107.5c17.49-10.6,27.52-23.35,28.14-36c0.09-0.88,0.86-1.53,1.74-1.47c0.01,0,0.02,0,0.03,0
		c0.84,0.03,1.49,0.73,1.47,1.57c-0.8,13.88-11.41,27.54-29.68,38.58"/>
	<path fill="#66BCFF" d="M391.61,19.95c11.23-0.21,20.51,9.42,20.7,21.45c0.18,12.03-11.48,28.7-19.9,28.86s-20.72-16.22-20.9-28.25
		S380.38,20.16,391.61,19.95z"/>
	<path fill="#66BCFF" d="M387.42,72.9c0.05-2.25,2.93-5.36,4.93-5.44c2-0.08,4.98,3.06,5.03,5.23
		C397.41,75.04,387.37,75.15,387.42,72.9z"/>
	<path fill="#8CD9FF" d="M390.65,27.94c-0.55,2.63,2.13,3.46,5.59,6.39c3.47,2.93,5.24,5.71,7.18,5.36c1.95-0.36,2.22-4.83-0.99-8.9
		C397.6,24.78,391.21,25.31,390.65,27.94z"/>
</g>
<g>
	<path fill="#C5CEDD" d="M714.25,332.13c-0.43,0-0.8-0.33-0.83-0.76c-0.9-5.49-4.17-13.2-9.52-18l-1.95-1.74
		c-3.13-2.57-6.67-5.56-7.99-9.87c-2.71-8.69,2.36-16.95,5.35-21.89c0.12-0.19,0.31-0.33,0.53-0.38c0.34-0.08,0.69,0.05,0.89,0.33
		c0.13,0.18,0.19,0.41,0.15,0.64c-0.02,0.11-0.06,0.22-0.12,0.31c-2.85,4.66-7.64,12.51-5.14,20.5c1.18,3.75,4.38,6.46,7.44,9.03
		l1.95,1.74c5.7,5.07,9.17,13.27,10.08,19.11c0.04,0.22-0.01,0.45-0.14,0.63c-0.13,0.18-0.33,0.31-0.55,0.34
		C714.39,332.13,714.25,332.13,714.25,332.13z"/>
	<path fill="#FFC619" d="M716.62,271.88c-2.92,5.56-12.44,10.28-16.33,8.2c-3.89-2.08-5.42-12.65-2.43-18.14
		c2.99-5.49,9.52-7.85,14.66-5.07C717.66,259.65,719.61,266.33,716.62,271.88z"/>
	<path fill="#FFC619" d="M697.37,280.08c0.56-1.04,2.64-1.81,3.61-1.32c0.97,0.49,1.46,2.64,0.97,3.68
		C701.47,283.49,696.81,281.06,697.37,280.08L697.37,280.08z"/>
	<path fill="#FFF2A6" d="M704.94,259.38c-2.5,1.04-3.4,3.27-2.57,3.89s2.29-0.28,4.59-0.76c2.29-0.49,3.75-0.35,4.1-1.74
		C711.41,259.38,708.63,257.71,704.94,259.38z"/>
</g>
</svg>
