<?xml version="1.0" encoding="utf-8"?>
<!-- Generator: Adobe Illustrator 24.2.1, SVG Export Plug-In . SVG Version: 6.00 Build 0)  -->
<svg version="1.1" id="katman_1" xmlns="http://www.w3.org/2000/svg" xmlns:xlink="http://www.w3.org/1999/xlink" x="0px" y="0px"
	 viewBox="0 0 610.5 397.6" style="enable-background:new 0 0 610.5 397.6;" xml:space="preserve">
<style type="text/css">
	.st0{display:none;fill:#202225;}
	.st1{fill:#404EED;}
	.st2{fill:#3442D9;}
	.st3{fill:#8CD9FF;}
	.st4{fill:#66BCFF;}
	.st5{fill:none;stroke:#66BCFF;stroke-width:2.2266;stroke-linecap:square;}
	.st6{fill:#FFAB19;}
	.st7{fill:#FFFFFF;}
	.st8{fill:#4754EB;}
	.st9{fill:#FFE75C;}
	.st10{fill:#FFC619;}
	.st11{fill:#EB459F;}
	.st12{fill:#3F99F2;}
	.st13{fill:#FFAB18;}
	.st14{fill:#FF78B9;}
	.st15{fill:none;stroke:#EB459F;stroke-width:0.82;stroke-linecap:round;stroke-miterlimit:10;}
	.st16{fill:#FF78B8;}
	.st17{fill:#FFFFFF;stroke:#5865F2;stroke-width:1.79;stroke-miterlimit:10;}
	.st18{fill:none;stroke:#5865F2;stroke-width:1.79;stroke-miterlimit:10;}
	.st19{fill:#E53794;}
	.st20{fill:#2F3136;}
	.st21{fill:#202225;}
	.st22{fill:#18191C;}
	.st23{fill:#3B3D42;}
	.st24{fill:none;stroke:#18191C;stroke-width:3;stroke-miterlimit:10;}
	.st25{fill:#FFFFFF;fill-opacity:6.000000e-02;}
	.st26{opacity:0.2;fill:#FFFFFF;enable-background:new    ;}
	.st27{fill:#A9BCFF;}
	.st28{fill:#FFD635;}
	.st29{fill:#D01582;}
	.st30{fill:#91FFAD;}
	.st31{fill:#939AE5;}
	.st32{fill:#D11583;}
	.st33{fill:none;stroke:#FFC619;stroke-width:0.82;stroke-linecap:round;stroke-miterlimit:10;}
	.st34{fill:#FF8C19;}
	.st35{fill:none;stroke:#000000;stroke-width:0.82;stroke-linecap:round;stroke-linejoin:round;}
	.st36{opacity:0.8;fill:#EA34D0;enable-background:new    ;}
	.st37{fill:#FF6CBA;}
	.st38{fill:#73DAFF;}
</style>
<rect x="-296.1" y="-164.3" class="st0" width="1208.9" height="729"/>
<g>
	<path class="st1" d="M5.1,147.6c0,0,32.2-132.6,158.6-94.9c135.2,40.4,162.8,0.6,195.9-17.5S444-10.8,529,18.4
		s93.5,147.3,70.7,204.6c-18.2,45.7-81,163.5-205.4,151.1s-160.5,20.5-250.7,23.4C47.9,400.6-19.4,260.1,5.1,147.6z"/>
	<g>
		<path class="st2" d="M94.2,175.5c-4.8,0.5-9.6,1.8-14,4c-3.2,1.8,0.2,5.2,9.7,6.3c9.6,1,19.4-1.2,23-1.7c3.7-0.5,3.2-0.3,6.1,1.7
			c2.9,2,4.5,3.9,4.4,1.7c-0.2-2.2-1-3.9,0.3-5.9c1-1.3,1.6-3,1.5-4.7c-0.2-1.5-0.9-1.2-2.5,0.2c-1.7,1.4-3.4,2.7-5.2,3.9
			c-0.9,0.3-1-0.3-3.7-1.7C107.9,176,101,174.7,94.2,175.5z"/>
		<path class="st2" d="M2.2,132.9l0.9,1c0.2,0.2,0.5,0.3,0.7,0.2l1.3-0.9H4.9l2,2.9l15.8-1.5c1.2-0.2,2.5-0.6,3.6-1.2l3.7-2.5
			c4.9,3.9,10.3,5.7,13.3,5.7l16.7-1.2l2-2.2h2.5c0.3,0,0.6-0.1,0.8-0.3c0.2-0.2,0.4-0.4,0.4-0.7c0-0.2-0.1-0.4-0.2-0.6
			s-0.3-0.3-0.5-0.4c-4.8-2-9.4-4.5-13.5-7.7l-2-1.5l-0.9-0.7l-3.4-3.2c0.5-1.3,0.9-2.6,1.2-4c0-0.2,0.2-0.3,0-0.5
			c0-0.2,0-0.3-0.3-0.5c-0.9-0.2-1.9-0.4-2.9-0.3H23.5c-1.8,0-2.7,0.9-1.7,4.5c-5.7,6.4-15.8,12.9-19.5,15.3
			c-0.1,0.1-0.1,0.1-0.1,0.1C2.2,132.8,2.2,132.9,2.2,132.9L2.2,132.9z"/>
	</g>
	<g>
		<path class="st3" d="M232.6,392.3h-0.4c-0.2-0.1-0.3-0.3-0.4-0.5c-0.1-0.2,0-0.4,0-0.6c6.3-13.3,15.2-19.3,31.6-21.3
			c11.7-1.4,16.3-7,21.3-13.1c2.4-3.1,5.2-6,8.2-8.6c0.2-0.1,0.4-0.2,0.6-0.1c0.2,0,0.4,0.2,0.5,0.3c0.1,0.1,0.1,0.2,0.2,0.3
			c0,0.1,0,0.2,0,0.3c0,0.1,0,0.2-0.1,0.3s-0.1,0.2-0.2,0.2c-2.9,2.5-5.6,5.3-7.9,8.3c-5.2,6.3-10,12.3-22.3,13.7
			c-15.8,1.8-24.3,7.5-30.3,20.3c-0.1,0.1-0.2,0.2-0.3,0.3C232.9,392.2,232.7,392.3,232.6,392.3L232.6,392.3z"/>
		<path class="st4" d="M313.2,341.7c-5.8-0.3-11.6,0.5-17.1,2.3c-4.2,1.4-0.8,6.2,10.3,9.1c11.2,2.9,22.9,2,27.4,2.1
			c4.4,0.1,3.9,0.2,6.7,3.2c2.8,3,4.9,5.3,5,2.8c0.1-2.5-0.4-4.9,1.4-7s2.6-3.2,2.7-5.3c0.1-2.1-0.7-1.5-3-0.2
			c-2.2,1.4-4.5,2.6-6.8,3.6c-1.1,0.3-1.1-0.5-4-2.6C329.2,345.1,323.3,342.3,313.2,341.7z"/>
		<path class="st5" d="M290.7,346.9l5.3-1.4l-3.7-3.2"/>
		<path d="M303.9,345.1c0.7,0,1.2-0.3,1.2-0.8s-0.6-0.7-1.2-0.7c-0.7,0-1.2,0.3-1.2,0.8C302.7,344.8,303.2,345.1,303.9,345.1
			L303.9,345.1z"/>
		<path d="M341.2,355.2c-0.2,0-0.4-0.1-0.6-0.2c-0.2-0.2-0.3-0.3-0.3-0.5c0-0.2,0.1-0.4,0.2-0.6c0.2-0.2,0.3-0.3,0.5-0.3l2.8-0.3
			c0.1,0,0.2,0,0.3,0c0.1,0,0.2,0.1,0.3,0.2c0.1,0.1,0.2,0.2,0.2,0.3c0.1,0.1,0.1,0.2,0.1,0.3s0,0.2,0,0.3c0,0.1-0.1,0.2-0.2,0.3
			c-0.1,0.1-0.2,0.2-0.3,0.2c-0.1,0-0.2,0.1-0.3,0.1L341.2,355.2L341.2,355.2z"/>
		<path class="st2" d="M252.8,380.3c-4.6,0.5-9,1.7-13.1,3.8c-3,1.7,0.2,4.9,9.1,5.8c8.9,0.9,18.1-1.2,21.6-1.7
			c3.5-0.4,3-0.4,5.6,1.7c2.6,2.1,4.3,3.4,4.1,1.5c-0.2-1.8-0.8-3.7,0.3-5.6c1.1-1.8,1.7-2.9,1.4-4.4c-0.2-1.5-0.8-1.1-2.4,0.2
			c-1.5,1.3-3.2,2.5-4.9,3.5c-0.8,0.4-0.9-0.2-3.4-1.4C265.5,380.7,259.1,379.5,252.8,380.3L252.8,380.3z"/>
		<path class="st6" d="M366.8,374.7c-1.2-0.7-2.1-1.7-2.9-2.8c-0.8-1.1-1.2-2.4-1.4-3.8l-0.7-4.7c0-0.1,0-0.2-0.1-0.3
			c-0.1-0.1-0.2-0.1-0.3-0.1c-0.1,0-0.2,0.1-0.3,0.2c-0.1,0.1-0.2,0.2-0.2,0.3l-0.6,4.7c-0.2,1.4-0.7,2.6-1.4,3.8
			c-0.8,1.1-1.7,2.1-2.9,2.8l-0.6,0.4c-0.1,0-0.1,0.1-0.2,0.2s0,0.2,0,0.2s0,0.2,0,0.2c0,0.1,0.1,0.2,0.2,0.2l0.6,0.4
			c1.2,0.7,2.1,1.7,2.9,2.8c0.8,1.1,1.2,2.4,1.4,3.8l0.6,4.7c0,0.1,0.1,0.2,0.2,0.3c0.1,0.1,0.2,0.1,0.3,0.2c0.1,0,0.2,0,0.3-0.1
			c0.1-0.1,0.1-0.2,0.1-0.3l0.7-4.7c0.2-1.4,0.7-2.6,1.4-3.8c0.8-1.1,1.7-2.1,2.9-2.8l0.6-0.4c0.1,0,0.1-0.1,0.2-0.2
			c0-0.1,0-0.2,0-0.2s0-0.2,0-0.2c0-0.1-0.1-0.2-0.2-0.2L366.8,374.7z"/>
	</g>
	<g>
		<path class="st7" d="M520.2,41.1c2.6,5.3,3.1,12.7-5.7,12.9c-0.7,0-1.4,0.6-1.4,1.3c-0.6,4.6-1.5,7.9-7.8,9.5c-0.1,0-0.1,0-0.2,0
			l-3.8,0.5c-1.3,0.2-2.2-1.3-1.4-2.4l17.3-22.2c0.4-0.5,1-0.7,1.6-0.5l0.4,0.2C519.8,40.5,520.1,40.8,520.2,41.1z"/>
		<path class="st8" d="M452.5,25.2c0,0-0.1,0-0.1-0.1c-2.1-1.3-3.8-3.1-5.2-5.2c-1.3-2.1-2.2-4.4-2.6-6.9l-1.3-8.5
			c0-0.2-0.1-0.4-0.3-0.5c-0.1-0.1-0.3-0.3-0.5-0.3c-0.2,0-0.4,0.1-0.6,0.3c-0.2,0.1-0.3,0.3-0.3,0.5l-1.2,8.5
			c-0.4,2.5-1.3,4.8-2.7,6.9c-1.3,2.1-3.1,3.9-5.2,5.2l-1.1,0.7c-0.2,0.2-0.4,0.5-0.4,0.8c0,0.1,0,0.3,0.1,0.4s0.2,0.2,0.3,0.3
			l1.1,0.7c2.1,1.4,3.9,3.2,5.2,5.3c1.3,2.1,2.3,4.4,2.7,6.9l1.2,8.5c0.1,0.2,0.2,0.4,0.3,0.5c0.1,0.1,0.4,0.2,0.5,0.2
			c0.2,0,0.4-0.1,0.5-0.2c0.1-0.1,0.3-0.3,0.3-0.5l1.3-8.5c0.4-2.5,1.2-4.8,2.6-6.9c1.3-2.1,3.1-3.9,5.2-5.2c0,0,0.1,0,0.1-0.1
			l1.1-0.7c0.1-0.1,0.2-0.2,0.3-0.3c0-0.1,0.1-0.3,0.1-0.4s0-0.3-0.1-0.4c0-0.1-0.1-0.3-0.2-0.4L452.5,25.2z"/>
		<path class="st4" d="M548.5,75.4c-0.2-2.9-3.2-3.3-9.8-3.5c-13.2-0.4-32.9-0.6-41.7-0.8c-1.1,0-1.8-1.2-1.3-2.1
			c5.4-10.7,9.7-18.9,13-25.5c4.8-9.3,7.6-14.8,9.1-18.4c1.5-3.6,1.8-5.7,0.2-7.5c-0.4-0.3-0.8-0.6-1.2-0.8
			c-0.5-0.2-0.9-0.3-1.5-0.2c-1.4,0-3.3,0.5-7.3,1.6c-24.1,6.9-55.5,19.1-66,23c0,0-0.1,0-0.1,0l-1,0.5c0,0-0.1,0-0.1,0
			c-9.5,3.6-11.4,6.6-13.1,10c-1.7,3.4-10.3,23.8-19.1,45.7c-0.2,0.4-0.6,0.8-1,0.9c-4.3,1-6.7,2.9-6.5,5.2c0.3,2.4,2.2,5.6,3.8,7.7
			c3.6,4.8,5.8,6.7,8,7h0.4c2.4,0,4.3-1.8,5.8-5.6c0.2-0.6,0.8-0.9,1.4-0.9l7.2,0c16.2,0,36.6,1.1,45.5,1.9c0,0,0.1,0,0.1,0h1.1
			c0,0,0.1,0,0.1,0c2.3,0.2,4.1,0.4,5.7,0.4c4.4,0,7.4-1.2,14.8-5.1c10.2-5.2,28.9-16,47.7-27.4C546.4,79.4,548.8,78,548.5,75.4
			L548.5,75.4z"/>
		<path class="st9" d="M416.8,108.3l-4.9-6.4c-0.3-0.4-0.4-1-0.2-1.4c6.6-15.8,15.8-36.2,18.7-41.6c2.9-5.5,4-8,12.7-11.6
			c8.7-3.6,39.9-15.3,64.9-23.4c6.1-2,5.8-2.2,10.2,0.8c2,1.4,5,4.2,5.8,5.8s0.6,2.8-2.1,7.1c-2.5,3.9-7.5,11.6-18.6,23.6
			c-1,1,0,2.7,1.4,2.4c12.6-2.5,31.3-3.5,39.6,0.1c1.4,0.6,1.3,1.5,1,5.1c-0.2,1.6-0.5,4.8-0.7,6.1c-0.2,1.3,0,1.2-1.5,2.1
			c-4.2,2.6-41.1,23.9-55.3,30.8c-3.5,1.7-7.1,1.6-11.7,1.2C471.4,108.6,436.7,107.4,416.8,108.3L416.8,108.3z"/>
		<path class="st10" d="M416.2,104.4c-0.2,0-0.5-0.1-0.7-0.2c-0.2-0.1-0.3-0.4-0.4-0.6c0-0.3,0.1-0.5,0.2-0.7
			c0.1-0.2,0.4-0.3,0.6-0.4l4.9-0.7c14.3-2,25.6-3.6,46.1,0.2c0.5,0,0.8,0.5,0.7,1.1c0,0.1-0.1,0.2-0.1,0.3
			c-0.1,0.1-0.1,0.2-0.3,0.3s-0.2,0.1-0.3,0.1c-0.1,0-0.3,0-0.4,0c-20.1-3.6-31.3-2.1-45.4-0.1L416.2,104.4L416.2,104.4z"/>
		<path class="st10" d="M519.7,25.9c-0.3-0.2-0.6-0.3-0.9-0.2c-16.5,5.7-58,21-65.6,23.8c-9.6,3.6-11.3,4.5-14.2,8.9
			c-2.9,4.4-23.5,42.4-24.4,44.1c-0.1,0.2-0.1,0.5,0,0.7s0.2,0.4,0.4,0.5l0.4,0.2c0.2,0,0.4,0,0.5-0.1c0.1-0.1,0.3-0.2,0.4-0.4
			c0.2-0.4,21.5-39.8,24.2-44c2.7-4.2,4-4.7,13.3-8.2c9-3.4,49.2-18.1,65.6-23.7C520.1,27.3,520.3,26.3,519.7,25.9L519.7,25.9z"/>
		<path d="M519.1,77.7l-7.1,4.4c-0.4,0.3-0.7,0.7-0.7,1.2l-0.2,9.5c0,1.1,1.2,1.9,2.2,1.3l7-3.9c0.5-0.3,0.7-0.7,0.8-1.2l0.3-9.9
			C521.4,77.8,520.1,77.1,519.1,77.7z"/>
		<path d="M518.3,43.2c-5.5,7.5-11.5,14.6-18.1,21.3c-0.2,0.2-0.3,0.3-0.5,0.4c-4,1.4-45.3,16.4-69.2,28.8c-1.4,0.8-2.8-1.1-1.8-2.3
			c0,0,0-0.1,0.1-0.1c8.7-10,16.2-20,21-29.4c0.9-1.7,2.5-2.3,6-3.7c3.5-1.4,55.9-21.6,59.9-23.1C522.6,32.4,521.9,37.6,518.3,43.2
			C518.3,43.1,518.3,43.1,518.3,43.2z"/>
		<path d="M418.4,101.6c-1.3-1.7-3.4-2.1-5.4-1.3c-0.9,0.3-1.2,1.5-0.6,2.2l3.4,4.5c0.6,0.8,1.7,0.8,2.3,0
			C419.5,105.5,419.7,103.4,418.4,101.6z"/>
		<path class="st7" d="M545.3,64.9c0.1,0.6-0.5,1.5-2.6,2.5c-3.7,1.9-37.9,18.1-55,26.4c-3.5,1.7-5.4,1.9-7.2,1.5
			c-13.6-3.3-32.1-3.2-46.4-0.4c-1.7,0.3-2.5-2-0.9-2.8c24.9-12.5,65.1-26.9,66.7-27.5c0,0,0.1,0,0.1,0c12.1-3.2,34.8-5.1,44.2-1
			C544.8,64,545.2,64.3,545.3,64.9z"/>
		<path d="M511.3,82.5c-11.1-5.9-20.3-7.2-25.8-7.4c-1.3,0-1.9-1.6-1-2.5l0.7-0.7c0.5-0.4,0.8-0.5,1.1-0.4l28.2,8.2
			c0.8,0.2,1.3,1.1,1,1.9l-0.4,0.9c-0.3,0.8-1.2,1.1-1.9,0.8l-2-0.8C511.4,82.6,511.4,82.5,511.3,82.5z"/>
		<path class="st7" d="M524.9,40.5c-1.1,2.5-3.1,2.5-6,2.6c-0.4,0-0.7-0.1-1-0.3c-0.7-0.5-1.3-1.1-1.9-1.7c-0.8-0.7-2.1-0.4-2.4,0.6
			c-0.5,1.6-1.8,3.3-4.9,4.6c-3.9,1.6-7.4,1.4-10.1,0.1c-1-0.5-2.1,0.2-2.1,1.2c-0.1,3.1-1.5,5.6-5.2,7.2c-4,1.7-8.4,1.3-12.4-0.6
			c-1-0.5-2.1,0.2-2.1,1.3c0,1.1-0.2,2.1-0.6,3.1c-0.8,1.9-2.3,3.4-4.2,4.2c-3.2,1.3-6.8,1.5-11.7-0.2c-1.1-0.4-2.3,0.7-1.9,1.8
			c0.8,2.7,1,4.7-0.3,5.7c-1.5,1.2-3.8,1.5-8.7,0.6c-1-0.2-1.9,0.7-1.7,1.8c0.7,3.8-2,6.8-3.7,8.3c-1.5,1.4-3.2,2.5-4.9,2.6
			c-0.7,0.1-1.3,0.7-1.3,1.4c-0.1,1.3-0.7,2.9-2.4,4.4c-0.8,0.8-1.5,1.4-2.2,1.8c-1.4,0.9-3-0.8-2-2.1c7.7-9.5,13.8-20.5,18.2-29.1
			c0.8-1.7,2.4-2.3,5.9-3.8l66.6-25c1.2-0.5,2.4-0.3,2.7,0.7v0.2C525.2,35.2,525.9,38,524.9,40.5L524.9,40.5z"/>
		<path class="st11" d="M473.4,73.2c-1.6,0.7-0.9,3.1,0.8,2.8c11-1.8,24.7-1.3,38.5,5.8c21.2,10.9,43.7,11.8,62-6.9
			c1.1-1.1-0.1-3-1.6-2.4c-0.5,0.2-1,0.4-1.5,0.5c-1.3,0.5-2.5-1-1.7-2.2c0.9-1.4,1.6-2.9,2.1-4.3c0.6-1.5-1.4-2.7-2.5-1.5
			c-6.1,6.8-15.8,14.1-26.9,14.2c-17.2,0.1-41.2-17.9-65.6-7.7C475.7,72.3,474.5,72.8,473.4,73.2z"/>
		<path class="st3" d="M533.3,100.7c-0.7-1.2,0.5-2.6,1.8-2.1c5.5,2.3,11.8,7,7.6,10.7C538.3,113.4,536.8,107.1,533.3,100.7z"/>
		<path class="st3" d="M541.4,28.5c2.2-1,5.6-3.9,6.6-6.4s-2.2-4.2-3.7-2.3C542.8,21.7,542.9,24.6,541.4,28.5L541.4,28.5z"/>
		<path class="st3" d="M584,82.6c-1.2-0.6-1.1-2.4,0.3-2.7c6.7-1.7,16.3-1.6,14.8,4.9C597.5,91.6,591.8,86.3,584,82.6z"/>
		<path d="M520.1,79.2h-0.4c-14-6.8-31.5-12.5-55.4-2.1c-0.1,0-0.2,0.1-0.4,0.1c-0.1,0-0.3,0-0.4-0.1c-0.1,0-0.2-0.1-0.3-0.2
			c-0.1-0.1-0.1-0.2-0.2-0.3s-0.1-0.2-0.1-0.4c0-0.1,0-0.3,0.1-0.4s0.1-0.2,0.2-0.3c0.1-0.1,0.2-0.1,0.3-0.2
			c24.6-10.7,42.6-4.9,57,2.1c0.2,0.1,0.4,0.3,0.5,0.5c0.1,0.3,0.1,0.5,0,0.8c-0.1,0.1-0.3,0.3-0.4,0.3
			C520.4,79.2,520.3,79.2,520.1,79.2L520.1,79.2z"/>
		<path d="M524.1,89.6c-0.7,0-1.7,0-2.9,0.1c-0.1,0-0.2,0-0.3,0.1l-3.9,1.3c-0.1,0-0.3,0.1-0.4,0.2l-2.4,1.8c-1,0.7-0.7,2.3,0.5,2.6
			c0.5,0.1,0.9,0.3,1.1,0.5c0.5,0.5,1.2,0.6,1.8,0.3c1.9-1.1,5.2-3,7.1-4.1C526,91.6,525.6,89.7,524.1,89.6z"/>
		<path class="st7" d="M596.8,82.8c0.3-0.4-0.1-1.2-0.8-1.6c-0.7-0.5-1.5-0.6-1.8-0.2c-0.3,0.4,0.1,1.2,0.8,1.6
			C595.7,83.1,596.5,83.2,596.8,82.8z"/>
	</g>
	<g>
		<g id="Features-1">
			<g>
				<g>
					<path class="st11" d="M171.7,68.1c5.1-3.9,6.2-11,2.5-15.9c-3.7-4.9-10.8-5.8-16-1.8c-5.1,3.9-6.2,11-2.5,15.9
						C159.4,71.2,166.6,72,171.7,68.1z"/>
					<path class="st3" d="M200.9,66.8c1-10.8-7.7-20.5-19.3-21.5c-11.7-1-21.9,6.9-22.9,17.8s7.7,20.5,19.3,21.5
						C189.7,85.6,199.9,77.7,200.9,66.8z"/>
					<path class="st12" d="M181.5,45.3c4.4,0.4,8.6,2.1,12,4.8c-0.4,0.5-1.6,3.8,0.8,8.1l-5,2.4c0,0-8.5-15.9-23.8-10.4
						C170,46.5,175.8,44.7,181.5,45.3z"/>
					<path d="M205,47.3L202.5,66l6.6,5.1l-25-2.8L205,47.3z"/>
					<path class="st9" d="M186.5,62.7c1.3-2.9,3.3-5.4,6-7.2l12.5-8.2l-19,20l23.2,3.8l-10.1,1.4c-3,0.5-6.1,0-8.8-1.3l-6.2-2.9
						L186.5,62.7z"/>
					<path d="M173,56.2c-0.6,0.2-1.2,0.3-1.6,0.4c-0.3,0.1-0.6,0.2-0.9,0.3c-0.3,0.1-0.5,0.2-0.7,0.4c-0.3,0.2-0.6,0.6-1.2,1
						l-0.1,0.1c-0.2,0.2-0.3,0.2-0.6,0.2c-0.2,0-0.5-0.1-0.6-0.2c-0.1-0.1-0.1-0.2-0.2-0.3c-0.3-0.8-0.3-1.6,0-2.3
						c0.3-0.9,1-1.6,1.8-2c0.8-0.3,1.7-0.5,2.6-0.2c0.8,0.2,1.4,0.7,1.8,1.3c0.1,0.2,0.2,0.4,0.2,0.6c-0.1,0.2-0.1,0.4-0.3,0.5
						C173.3,56.2,173.2,56.2,173,56.2L173,56.2z"/>
					<path class="st7" d="M170.9,64.3c0.8,3.3,1.2,6.9,2.8,6.6c1.6-0.3,3.6-4.6,2.9-7.8c-0.3-1.3-1-2.4-2-3.1s-2.3-1.1-3.6-1
						C169.4,59.3,170.2,61,170.9,64.3z"/>
					<path class="st13" d="M190.9,60.4c0.4-0.8,0.5-1.6,0.1-1.8c-0.3-0.2-1,0.3-1.4,1.2s-0.5,1.6-0.1,1.8
						C189.8,61.7,190.5,61.2,190.9,60.4z"/>
					<g>
						<path class="st14" d="M171.9,46.5c0,0-14.7,10.9-11.4,26.3c-1.2-0.6-2.3-1.4-2.9-2.6s-1.1-2.4-1.1-3.8
							c-0.1-3.6,0.7-7.2,2.3-10.4c1.6-3.2,3.9-6.1,6.7-8.3c0.8-0.6,1.7-1,2.6-1.3s1.9-0.3,2.9-0.1L171.9,46.5z"/>
						<path class="st15" d="M170.2,50.8c0,0-5.1-2.6-9.1,0"/>
						<path class="st15" d="M166.3,56.3l-7.1-2.6"/>
						<path class="st15" d="M163.3,62.5c-0.3-0.1-4.8-1.5-6.6-4.5"/>
						<path class="st15" d="M155.8,63.3c1.7,2.5,3.9,4.6,6.5,6"/>
					</g>
					<path d="M176.8,64.8c-0.4-1-1-1.7-1.6-1.7c-1.2,0-2.1,1.9-2.1,4.3c-0.1,1.2,0.2,2.4,0.9,3.5C175.2,70.3,176.7,67.5,176.8,64.8z
						"/>
					<path class="st16" d="M106,176.9c5.5,2.1,10.5,5.3,14.7,9.3c4.2,4.1,7.6,8.9,9.9,14.4c2.3,5.4,3.4,11.3,3.4,17.1
						c-0.1,5.9-1.3,11.7-3.6,17.1c-2.3,5.4-5.5,10.2-9.8,14.1c-4.2,4-9.2,7-14.7,8.9c-5.5,1.9-11.3,2.6-17.1,2
						c-5.8-0.5-11.4-2.3-16.4-5.1c-9.3-5.4-16.4-13.9-19.9-24.1c-3.5-10.2-3-21.3,1.3-31.2c4.2-9.8,11.9-17.5,21.6-21.7
						C85.1,173.5,96.1,173.2,106,176.9z"/>
					<path class="st17" d="M87.8,191c1.7-4.3-1.6-9.7-7.3-12c-5.8-2.4-11.9-0.8-13.6,3.5c-1.7,4.3,1.6,9.7,7.3,12
						C80,196.8,86.1,195.2,87.8,191z"/>
					<path class="st17" d="M79.4,211.3c1.8-4.5-1.4-10.1-7.3-12.5c-5.9-2.4-12.2-0.7-14,3.9s1.4,10.1,7.3,12.5
						C71.3,217.6,77.6,215.9,79.4,211.3z"/>
					<path d="M75.1,205.6c0.2-1.3-1-2.5-2.7-2.8s-3.2,0.6-3.5,1.8c-0.2,1.3,1,2.5,2.7,2.8C73.3,207.7,74.8,206.9,75.1,205.6z"/>
					<path d="M84.6,188.6c0.5-1-0.3-2.5-1.8-3.3s-3.2-0.5-3.8,0.5c-0.5,1,0.3,2.5,1.8,3.3C82.4,189.9,84.1,189.7,84.6,188.6z"/>
					<path class="st18" d="M69.5,197.7l2-4.7"/>
					<path d="M83,204.1l3.8-7.3c0.1-0.2,0.2-0.3,0.4-0.5c0.2-0.1,0.3-0.2,0.6-0.3c0.2-0.1,0.4-0.1,0.6,0c0.2,0.1,0.4,0.1,0.6,0.3
						c3.1,2.3,8.9,7.9-4.4,9.9c-0.3,0.1-0.5,0-0.8-0.1c-0.2-0.1-0.5-0.3-0.6-0.5c-0.2-0.2-0.2-0.5-0.3-0.8
						C82.8,204.5,82.8,204.3,83,204.1z"/>
					<path class="st19" d="M89.1,201.3c-1.3,1.3-2.3,2.8-2.9,4.6c7.4-1.5,7.3-4.4,5.5-6.8C90.9,199.7,89.9,200.4,89.1,201.3z"/>
					<path class="st20" d="M494.4,74.3H108.2c-8,0-14.6,6.5-14.6,14.6v233.1c0,8,6.5,14.6,14.6,14.6h386.2c8,0,14.6-6.5,14.6-14.6
						V88.9C508.9,80.9,502.4,74.3,494.4,74.3z"/>
					<path class="st21" d="M263.6,74.3H155v262.3h108.7L263.6,74.3L263.6,74.3z"/>
					<path class="st22" d="M155.1,74.3h-47.5c-3.9,0-7.6,1.6-10.3,4.3c-2.7,2.7-4.3,6.5-4.3,10.3v233.1c0,3.9,1.6,7.6,4.3,10.3
						c2.7,2.7,6.5,4.3,10.3,4.3h47.6L155.1,74.3L155.1,74.3z"/>
					<path class="st7" d="M93,150.4h2.4c0.3,0,0.6,0.1,0.9,0.2c0.3,0.1,0.6,0.3,0.8,0.5c0.2,0.2,0.4,0.5,0.5,0.8
						c0.1,0.3,0.2,0.6,0.2,0.9v33.9c0,0.6-0.3,1.2-0.8,1.7s-1,0.7-1.7,0.7H93V150.4z"/>
					<path class="st1" d="M133.9,150.4h-19.4c-5.4,0-9.7,4.3-9.7,9.7v19.4c0,5.4,4.3,9.7,9.7,9.7h19.4c5.4,0,9.7-4.3,9.7-9.7v-19.4
						C143.6,154.7,139.2,150.4,133.9,150.4z"/>
					<path class="st20" d="M124.2,139.7c10.7,0,19.4-8.7,19.4-19.4c0-10.7-8.7-19.4-19.4-19.4c-10.7,0-19.4,8.7-19.4,19.4
						S113.4,139.7,124.2,139.7z"/>
					<path class="st23" d="M295.4,129c10.7,0,19.4-8.7,19.4-19.4s-8.7-19.4-19.4-19.4c-10.7,0-19.4,8.7-19.4,19.4
						S284.6,129,295.4,129z"/>
					<path class="st20" d="M124.2,238.7c10.7,0,19.4-8.7,19.4-19.4c0-10.7-8.7-19.4-19.4-19.4c-10.7,0-19.4,8.7-19.4,19.4
						C104.8,230,113.4,238.7,124.2,238.7z"/>
					<path class="st20" d="M107.6,74.3c-0.9,0-1.8,0.1-2.8,0.3c0.2,5,2.3,9.8,5.9,13.3s8.5,5.4,13.6,5.4c5-0.1,9.9-2,13.4-5.5
						c3.6-3.5,5.7-8.3,5.8-13.4C143.6,74.3,107.6,74.3,107.6,74.3z"/>
					<path class="st24" d="M150.4,140.6h113.2"/>
					<path class="st25" d="M488.6,285.3H284c-4.3,0-7.8,3.5-7.8,7.8v22.4c0,4.3,3.5,7.8,7.8,7.8h204.6c4.3,0,7.8-3.5,7.8-7.8v-22.4
						C496.4,288.8,492.9,285.3,488.6,285.3z"/>
					<path class="st25" d="M436,90.2H333.1c-3.8,0-6.9,3.1-6.9,6.9s3.1,6.9,6.9,6.9H436c3.8,0,6.9-3.1,6.9-6.9
						C442.9,93.3,439.8,90.2,436,90.2z"/>
					<path class="st25" d="M436,181.1H333.1c-3.8,0-6.9,3.1-6.9,6.9c0,3.8,3.1,6.9,6.9,6.9H436c3.8,0,6.9-3.1,6.9-6.9
						C442.9,184.1,439.8,181.1,436,181.1z"/>
					<path class="st25" d="M242.1,99.7h-42.5c-4.4,0-8,3.6-8,8l0,0c0,4.4,3.6,8,8,8h42.4c4.4,0,8-3.6,8-8l0,0
						C250.1,103.2,246.5,99.7,242.1,99.7z"/>
					<path class="st25" d="M242.4,159.8h-65.3c-4.4,0-8,3.6-8,8l0,0c0,4.4,3.6,8,8,8h65.3c4.4,0,8-3.6,8-8l0,0
						C250.4,163.4,246.8,159.8,242.4,159.8z"/>
					<path class="st25" d="M242.4,191.9h-65.3c-4.4,0-8,3.6-8,8l0,0c0,4.4,3.6,8,8,8h65.3c4.4,0,8-3.6,8-8l0,0
						C250.4,195.5,246.8,191.9,242.4,191.9z"/>
					<path class="st25" d="M242.4,224h-65.3c-4.4,0-8,3.6-8,8l0,0c0,4.4,3.6,8,8,8h65.3c4.4,0,8-3.6,8-8l0,0
						C250.4,227.5,246.8,224,242.4,224z"/>
					<path class="st23" d="M295.4,219.9c10.7,0,19.4-8.7,19.4-19.4c0-10.7-8.7-19.4-19.4-19.4c-10.7,0-19.4,8.7-19.4,19.4
						C275.9,211.2,284.6,219.9,295.4,219.9z"/>
					<path class="st25" d="M177,115.7c4.4,0,8.1-3.6,8.1-8.1c0-4.4-3.6-8.1-8.1-8.1c-4.4,0-8.1,3.6-8.1,8.1
						C168.9,112.1,172.5,115.7,177,115.7z"/>
					<path class="st26" d="M104.8,169.1l20.9-18.8h-7.2l-13.8,12.4C104.8,162.7,104.8,169.1,104.8,169.1z"/>
					<path class="st26" d="M133.9,150.4h-5.4l-23.7,21.2v7.8c0,0.5,0.1,0.9,0.1,1.4l33-29.6C136.7,150.7,135.3,150.4,133.9,150.4z"
						/>
					<path class="st1" d="M252.6,62.7L145.7,81l11,64.3l107-18.3L252.6,62.7z"/>
					<path class="st1" d="M451.2,207.9h-114c-4.8,0-8.8,3.9-8.8,8.8V267c0,4.8,3.9,8.8,8.8,8.8h114c4.8,0,8.8-3.9,8.8-8.8v-50.3
						C460,211.8,456,207.9,451.2,207.9z"/>
					<path class="st27" d="M405.6,238.3l-19.1-8.5c-0.5-0.2-1-0.3-1.6-0.3c-0.5,0.1-1,0.2-1.5,0.5c-0.5,0.3-0.8,0.7-1,1.2
						c-0.2,0.5-0.4,1-0.4,1.5v17c0,0.5,0.1,1,0.4,1.5c0.2,0.5,0.6,0.9,1,1.2c0.5,0.3,1,0.5,1.5,0.5c0.5,0.1,1-0.1,1.6-0.3l19.1-8.5
						c0.6-0.2,1-0.6,1.4-1.2c0.3-0.5,0.5-1.1,0.5-1.7c0-0.6-0.2-1.2-0.5-1.7C406.6,238.9,406.1,238.5,405.6,238.3z"/>
					<path class="st26" d="M328.4,242.7l38.8-34.8H360l-31.6,28.3V242.7L328.4,242.7z"/>
					<path class="st26" d="M328.4,254.4l51.9-46.6h-10.4l-41.5,37.2V254.4z"/>
					<path class="st26" d="M420.5,275.8l39.5-35.4V231l-49.9,44.7L420.5,275.8L420.5,275.8z"/>
					<path class="st26" d="M224.5,133.8L257.6,92l-1.1-6.3l-39.1,49.2L224.5,133.8z"/>
					<path class="st26" d="M237.4,131.6l22.2-27.9l-1.6-9.2l-30.9,38.9L237.4,131.6z"/>
					<path class="st26" d="M150.2,107.6l2.5,14.8l39.2-49.3l-16.6,2.8L150.2,107.6z"/>
					<path class="st28" d="M59.1,234.8c0.8,7,4.8,27.5,7,32.1c2.2,4.6,8.1,7.2,14.2,2.8c3.3-2.4,27.1-21,38.7-30.1
						c1.8-1.4,3.1-3.4,3.5-5.7c0.4-2.3,0-4.6-1.2-6.5c-0.7-1.1-1.6-2.1-2.7-2.8c-1.1-0.8-2.3-1.3-3.6-1.5c-1.3-0.2-2.6-0.2-3.9,0.1
						c-1.3,0.3-2.5,0.9-3.5,1.7l-29.3,22.7c-2.1-6.2-3.9-12.5-5.2-18.9c-1-4.6-5-8.3-10.4-4.8C58,226.6,58.6,230.8,59.1,234.8z"/>
					<path class="st29" d="M112.3,234.6c1.3,1,2.8,1.6,4.4,1.6c1.6-0.1,3.2-0.6,4.4-1.7l7.7-7l-10.4-8.7l-6.3,5.7
						c-0.7,0.6-1.3,1.4-1.7,2.3c-0.4,0.9-0.6,1.8-0.6,2.8c0,1,0.2,1.9,0.6,2.8C110.9,233.3,111.6,234,112.3,234.6z"/>
					<path class="st29" d="M118,220.5c0,0,11.8-7,13-7c0.8-0.1,1.6,0.1,2.3,0.6s1.2,1.1,1.4,1.8c1.2,3.2,1.7,5,2.2,6.5
						c0.6,1.8-0.5,4.2-3.2,6.2c-2.7,2.1-3,3.1-8.8,2.9l-6.2-0.6c-0.7-0.1-1.3-0.3-1.9-0.6c-0.6-0.3-1-0.9-1.4-1.4
						c-0.3-0.6-0.5-1.2-0.5-1.9c0-0.7,0.1-1.3,0.4-2C116.1,223.4,117,221.9,118,220.5z"/>
					<path class="st29" d="M122.1,226.9l-6.3-0.1c-0.1,0-0.2,0-0.3-0.1c-0.1-0.1-0.2-0.1-0.3-0.2c-0.1-0.1-0.2-0.2-0.2-0.3
						c-0.1-0.1-0.1-0.2-0.1-0.3l0.2-12.3c0-1,0.4-1.9,1.1-2.5c0.7-0.7,1.6-1,2.6-1c1,0,1.9,0.4,2.5,1.1c0.7,0.7,1,1.6,1,2.6
						L122.1,226.9L122.1,226.9z"/>
					<path d="M136.2,220c-0.3-0.9-0.6-1.8-1-3.2c-0.3,0.6-0.8,1-1.3,1.5l-3.5,2.9c-0.3,0.2-0.5,0.6-0.5,1c-0.1,0.3,0.1,0.8,0.3,1
						c0.1,0.2,0.3,0.3,0.4,0.3c0.2,0.1,0.3,0.1,0.5,0.2c0.2,0,0.3,0,0.6-0.1c0.2-0.1,0.3-0.2,0.5-0.3l3.5-2.9L136.2,220z"/>
					<path class="st9" d="M229.8,67.1l-0.5-1c-0.6-1.1-1.4-2-2.5-2.5c-1.1-0.5-2.4-0.7-3.5-0.5l-8.3,1.7c-1.3,0.3-2.5,0.9-3.5,1.8
						c-1,0.9-1.8,2-2.3,3.3c-0.7,2.1,0,3.1,1.5,3.4c0.9,0.2,1.9-0.2,2.8-1.8c0,0.2,0,1.8,0,2c-0.1,0.7,0,1.4,0.2,2.1
						c0.2,0.6,0.6,1.3,1.2,1.7c0.5,0.5,1.2,0.8,1.8,1c0.7,0.2,1.4,0.2,2.1,0.1l6.4-1.3c1.4-0.3,2.8-1.1,3.8-2.3s1.6-2.5,1.7-4
						C230.6,69.4,230.4,68.2,229.8,67.1z"/>
					<path class="st9" d="M147.1,79.6l0.1-1.1c0.1-1.2,0.7-2.4,1.6-3.3c0.9-0.9,2-1.4,3.2-1.7l8.4-1.3c1.3-0.2,2.7,0,3.9,0.5
						c1.3,0.5,2.4,1.3,3.2,2.3c1.3,1.7,1,2.9-0.2,3.6c-0.8,0.6-1.8,0.5-3.2-0.8c0,0.2,0.6,1.7,0.7,1.8c0.3,0.6,0.5,1.3,0.5,2
						s-0.2,1.4-0.5,2c-0.3,0.6-0.8,1.2-1.3,1.6c-0.6,0.4-1.2,0.7-1.9,0.8l-6.5,1c-1.5,0.2-3-0.1-4.3-0.8s-2.4-1.8-3-3.2
						C147.2,82.1,147,80.9,147.1,79.6z"/>
					<path class="st1" d="M332.1,146.5c-1.3-6.7,0.2-13.6,4-19.2c3.9-5.6,9.8-9.5,16.4-10.7c6.7-1.3,13.6,0.2,19.2,4
						c5.6,3.9,9.5,9.8,10.7,16.4c0.5,2.4,0.6,4.9,0.3,7.4l-27.7,22.9c-5.6-0.5-10.8-2.8-15-6.5C336,157,333.1,151.9,332.1,146.5z"/>
					<path class="st7" d="M328.4,147.2c-1.4-7.7,0.2-15.6,4.6-22c4.4-6.5,11.2-10.9,18.9-12.3s15.6,0.2,22,4.6
						c6.5,4.4,10.9,11.2,12.3,18.9c0.3,1.6,0.5,3.2,0.5,4.8l-3.9,3.2c0.2-2.5,0.2-5-0.3-7.4c-0.9-4.7-3.1-9.1-6.3-12.6
						c-3.2-3.5-7.4-6.1-11.9-7.4c-4.6-1.3-9.5-1.3-14.1,0.1c-4.6,1.3-8.7,3.9-11.9,7.4c-3.2,3.5-5.4,7.9-6.2,12.6
						c-0.9,4.7-0.4,9.5,1.4,14c1.7,4.4,4.7,8.3,8.5,11.2c3.8,2.9,8.4,4.6,13.2,5l-3.9,3.2c-5.7-1.2-10.8-4-14.9-8.2
						C332.2,158.1,329.5,152.9,328.4,147.2z"/>
					<path class="st7" d="M380.4,141.6l6.4-0.5l-4.4,3.6l-26,21.5l-5.3,4.4l2.7-8.2c1.9-5.7,5.4-10.7,10.2-14.4
						C368.7,144.3,374.4,142.1,380.4,141.6z"/>
					<path class="st26" d="M352.6,116.5c-1.1,0.2-2.2,0.5-3.3,0.9l-17.5,21.9c-0.2,2.4-0.1,4.8,0.3,7.2c0,0.4,0.2,0.8,0.3,1.2
						l25.2-31.6C355.9,116,354.2,116.2,352.6,116.5z"/>
					<path class="st26" d="M333.1,150.2c1,2.8,2.5,5.5,4.4,7.8l31.3-39.2c-2.7-1.3-5.5-2.3-8.5-2.6L333.1,150.2z"/>
					<path class="st9" d="M276,89.4c-0.8-0.5-1.4-1.2-2-2c-0.5-0.8-0.9-1.7-1-2.6l-0.5-3.2c0-0.1-0.1-0.2-0.1-0.2
						c-0.1-0.1-0.1-0.1-0.2-0.1c-0.1,0-0.2,0.1-0.2,0.1c-0.1,0.1-0.1,0.1-0.1,0.2l-0.5,3.2c-0.1,0.9-0.5,1.8-1,2.6
						c-0.5,0.8-1.2,1.4-2,2l-0.4,0.3c-0.1,0-0.1,0.1-0.1,0.1c-0.1,0.1-0.1,0.1-0.1,0.2c0,0.1,0,0.1,0.1,0.2s0.1,0.1,0.1,0.1l0.4,0.3
						c0.8,0.5,1.5,1.2,2,2c0.5,0.8,0.9,1.7,1,2.6l0.5,3.2c0,0.1,0.1,0.1,0.1,0.2s0.1,0.1,0.2,0.1c0.1,0,0.2,0,0.2-0.1
						c0.1-0.1,0.1-0.1,0.1-0.2l0.5-3.2c0.1-0.9,0.5-1.8,1-2.6s1.2-1.4,2-2l0.4-0.3c0.1-0.1,0.1-0.1,0.1-0.1c0-0.1,0.1-0.1,0.1-0.2
						s0-0.1-0.1-0.2c0-0.1-0.1-0.1-0.1-0.1L276,89.4z"/>
					<path class="st9" d="M480,219.8c-0.8-0.5-1.4-1.2-2-2c-0.5-0.8-0.9-1.7-1-2.6l-0.5-3.2c0-0.1-0.1-0.2-0.1-0.2
						c-0.1-0.1-0.1-0.1-0.2-0.1c-0.1,0-0.2,0-0.2,0.1s-0.1,0.1-0.1,0.2l-0.5,3.2c-0.1,0.9-0.5,1.8-1,2.7c-0.5,0.8-1.2,1.4-2,2
						l-0.4,0.2c-0.1,0-0.1,0.1-0.1,0.1c-0.1,0.1-0.1,0.1-0.1,0.2c0,0.1,0,0.1,0.1,0.2c0.1,0.1,0.1,0.1,0.1,0.1l0.4,0.3
						c0.8,0.5,1.5,1.2,2,2c0.5,0.8,0.9,1.7,1,2.7l0.5,3.2c0,0.1,0.1,0.2,0.1,0.2c0.1,0.1,0.1,0.1,0.2,0.1c0.1,0,0.2,0,0.2-0.1
						s0.1-0.1,0.1-0.2l0.5-3.2c0.1-0.9,0.5-1.8,1-2.7c0.5-0.8,1.2-1.5,2-2l0.4-0.3c0.1-0.1,0.1-0.1,0.1-0.1c0.1-0.1,0.1-0.1,0.1-0.2
						c0-0.1,0-0.1-0.1-0.2c0-0.1-0.1-0.1-0.1-0.1L480,219.8z"/>
					<path class="st7" d="M298,233.2c-0.8-0.5-1.4-1.2-2-2c-0.5-0.8-0.9-1.7-1-2.6l-0.5-3.2c0-0.1-0.1-0.2-0.1-0.2s-0.1-0.1-0.2-0.1
						c-0.1,0-0.2,0-0.2,0.1s-0.1,0.1-0.1,0.2l-0.5,3.2c-0.1,0.9-0.5,1.8-1,2.6c-0.5,0.8-1.2,1.4-2,2l-0.4,0.3
						c-0.1,0.1-0.1,0.1-0.1,0.1s-0.1,0.1-0.1,0.2c0,0.1,0,0.1,0.1,0.2s0.1,0.1,0.1,0.1l0.4,0.3c0.8,0.5,1.5,1.2,2,2
						c0.5,0.8,0.9,1.7,1,2.6l0.5,3.2c0,0.1,0.1,0.2,0.1,0.2c0.1,0.1,0.1,0.1,0.2,0.1c0.1,0,0.2-0.1,0.2-0.1c0.1-0.1,0.1-0.1,0.1-0.2
						l0.5-3.2c0.1-0.9,0.5-1.8,1-2.6c0.5-0.8,1.2-1.4,2-2l0.4-0.3c0.1-0.1,0.1-0.1,0.1-0.1c0-0.1,0.1-0.1,0.1-0.2
						c0-0.1,0-0.1-0.1-0.2c0-0.1-0.1-0.1-0.1-0.1L298,233.2z"/>
					<path class="st30" d="M149.6,141.5c-0.8-0.5-1.4-1.2-2-2c-0.5-0.8-0.9-1.7-1-2.6l-0.5-3.2c0-0.1-0.1-0.2-0.1-0.2
						c-0.1-0.1-0.1-0.1-0.2-0.1c-0.1,0-0.2,0-0.2,0.1s-0.1,0.1-0.1,0.2l-0.5,3.2c-0.1,0.9-0.5,1.8-1,2.6c-0.5,0.8-1.2,1.4-2,2
						l-0.4,0.3c-0.1,0.1-0.1,0.1-0.1,0.1c0,0.1-0.1,0.1-0.1,0.2s0,0.1,0.1,0.2c0,0.1,0.1,0.1,0.1,0.1l0.4,0.2c0.8,0.5,1.4,1.2,2,2
						c0.5,0.8,0.9,1.7,1,2.6l0.5,3.2c0,0.1,0.1,0.2,0.1,0.2c0.1,0.1,0.1,0.1,0.2,0.1c0.1,0,0.2,0,0.2-0.1c0.1-0.1,0.1-0.1,0.1-0.2
						l0.5-3.2c0.1-0.9,0.5-1.8,1-2.6c0.5-0.8,1.2-1.4,2-2l0.4-0.2c0.1-0.1,0.1-0.1,0.1-0.1c0-0.1,0.1-0.1,0.1-0.2s0-0.1-0.1-0.2
						c0-0.1-0.1-0.1-0.1-0.1L149.6,141.5z"/>
					<path class="st12" d="M269.3,60.7c-1.1-0.7-2-1.6-2.7-2.7c-0.7-1.1-1.2-2.3-1.3-3.5l-0.6-4.3c0-0.1-0.1-0.2-0.2-0.2
						c-0.1-0.1-0.2-0.1-0.3-0.1s-0.2,0.1-0.3,0.1s-0.1,0.2-0.2,0.2l-0.6,4.3c-0.2,1.3-0.6,2.5-1.3,3.5c-0.7,1.1-1.6,2-2.7,2.7
						l-0.6,0.3c-0.1,0.1-0.1,0.1-0.2,0.2c-0.1,0.1-0.1,0.1-0.1,0.2c0,0.1,0,0.2,0.1,0.2s0.1,0.1,0.2,0.2l0.6,0.3
						c1.1,0.7,2,1.6,2.7,2.7c0.7,1.1,1.2,2.3,1.3,3.5l0.6,4.3c0,0.1,0.1,0.2,0.2,0.3c0.1,0.1,0.2,0.1,0.3,0.1s0.2-0.1,0.3-0.1
						c0.1-0.1,0.1-0.2,0.2-0.3l0.6-4.3c0.2-1.3,0.6-2.5,1.3-3.5c0.7-1.1,1.6-2,2.7-2.7l0.6-0.3c0.1-0.1,0.1-0.1,0.2-0.2
						c0.1-0.1,0.1-0.1,0.1-0.2c0-0.1,0-0.1-0.1-0.2c-0.1-0.1-0.1-0.1-0.2-0.2L269.3,60.7z"/>
					<path class="st12" d="M472,197.6c-1.1-0.7-2-1.6-2.7-2.7c-0.7-1.1-1.2-2.3-1.3-3.6l-0.6-4.3c0-0.1-0.1-0.2-0.2-0.3
						c-0.1-0.1-0.2-0.1-0.3-0.1s-0.2,0.1-0.3,0.1c-0.1,0.1-0.1,0.2-0.2,0.3l-0.6,4.3c-0.2,1.3-0.6,2.5-1.3,3.5
						c-0.7,1.1-1.6,2-2.7,2.7l-0.6,0.3c-0.1,0.1-0.1,0.1-0.2,0.2c-0.1,0.1-0.1,0.1-0.1,0.2c0,0.1,0,0.2,0.1,0.2
						c0.1,0.1,0.1,0.1,0.2,0.2l0.6,0.3c1.1,0.7,2,1.6,2.7,2.7c0.7,1.1,1.2,2.3,1.3,3.5l0.6,4.3c0,0.1,0.1,0.2,0.2,0.3
						c0.1,0.1,0.2,0.1,0.3,0.1s0.2-0.1,0.3-0.1c0.1-0.1,0.1-0.2,0.2-0.3l0.6-4.3c0.2-1.3,0.6-2.5,1.3-3.5c0.7-1.1,1.6-2,2.7-2.7
						l0.6-0.3c0.1-0.1,0.1-0.1,0.1-0.2c0.1-0.1,0.1-0.1,0.1-0.2c0-0.1,0-0.1-0.1-0.2c-0.1-0.1-0.1-0.1-0.1-0.2L472,197.6z"/>
					<path class="st16" d="M314.1,251.4c-1.1-0.7-2-1.6-2.7-2.7c-0.7-1.1-1.2-2.3-1.3-3.6l-0.6-4.3c0-0.1-0.1-0.2-0.2-0.3
						c-0.1-0.1-0.2-0.1-0.3-0.1s-0.2,0.1-0.3,0.1c-0.1,0.1-0.1,0.2-0.2,0.3l-0.6,4.3c-0.2,1.3-0.6,2.5-1.3,3.5
						c-0.7,1.1-1.6,2-2.7,2.7l-0.6,0.3c-0.1,0.1-0.1,0.1-0.2,0.2c-0.1,0.1-0.1,0.1-0.1,0.2c0,0.1,0,0.2,0.1,0.2s0.1,0.1,0.2,0.2
						l0.6,0.3c1.1,0.7,2,1.6,2.7,2.7s1.2,2.3,1.3,3.5l0.6,4.3c0,0.1,0.1,0.2,0.2,0.3c0.1,0.1,0.2,0.1,0.3,0.1s0.2-0.1,0.3-0.1
						c0.1-0.1,0.1-0.2,0.2-0.3l0.6-4.3c0.2-1.3,0.6-2.5,1.3-3.5c0.7-1.1,1.6-2,2.7-2.7l0.6-0.3c0.1-0.1,0.1-0.1,0.1-0.2
						c0.1-0.1,0.1-0.1,0.1-0.2c0-0.1,0-0.1-0.1-0.2c-0.1-0.1-0.1-0.1-0.1-0.2L314.1,251.4z"/>
					<path class="st28" d="M516.5,263.6c-1.9-1.1-4-1.9-6.1-2.4c-0.5-0.1-1-0.1-1.4,0.1c-0.5,0.1-0.9,0.4-1.2,0.8
						c-2,2.3-4.4,4-7.2,5.1l1.1-3.6c0.2-0.4,0.2-0.9,0.1-1.3c-0.1-0.4-0.5-0.8-0.9-1c-0.4-0.2-0.9-0.2-1.3-0.1
						c-0.4,0.1-0.8,0.5-1,0.9l-3.3,5.1l-1.8,2.6c0,0-26.4,29.4-29.1,33.9l4.4,10.3l31.2-37.2l1-1c1.8,0.6,3.7,0.7,5.6,0.4
						c1.8-0.3,3.6-1.1,5.1-2.2c2.3-1.8,4.2-4,5.8-6.4c0.2-0.3,0.3-0.6,0.3-1c0.1-0.3,0.1-0.8-0.1-1.1c-0.1-0.3-0.2-0.7-0.5-1
						C517.1,264,516.8,263.8,516.5,263.6z"/>
					<path class="st28" d="M429.1,302l-8.8,7c-0.5,0.4-1.1,0.7-1.8,0.8c-0.6,0.1-1.3-0.1-1.9-0.3c-4.7-2.3-18.2-8.7-18.2-8.7
						l-2.9-1.2l-5.6-2.5c-0.4-0.2-0.8-0.2-1.3-0.1c-0.4,0.1-0.8,0.4-1,0.8c-0.2,0.3-0.3,0.8-0.2,1.2s0.3,0.8,0.7,1l1.4,1.1
						c-0.6,0.3-1.2,0.5-1.8,0.5s-1.3-0.2-1.8-0.5c-1.7-1.2-3.6-2.3-5.5-3.1c-0.2-0.1-0.5-0.1-0.7-0.1s-0.5,0.2-0.6,0.3
						c-1.3,1.3-2.3,2.8-2.9,4.5c-0.2,0.7-1.7,5.3-0.6,6.1c1.1,0.8,3.3,1.8,10.6,2.8c1,0.1,2.1,0.1,3.1,0c1.6-0.2,3.1-0.7,4.4-1.6
						c0.4-0.3,0.9-0.5,1.4-0.5s1,0.2,1.4,0.6c5.1,4.4,14.3,11.7,20,12c7.7,0.5,20.8-11.8,31-23.1C438.4,294,436.4,296.3,429.1,302z"
						/>
					<path class="st31" d="M419.2,231.3c-0.8-0.5-1.4-1.2-2-2c-0.5-0.8-0.8-1.7-1-2.6l-0.5-3.2c0-0.1-0.1-0.2-0.1-0.2
						c-0.1-0.1-0.1-0.1-0.2-0.1c-0.1,0-0.2,0-0.2,0.1c-0.1,0.1-0.1,0.1-0.1,0.2l-0.5,3.2c-0.1,0.9-0.5,1.8-1,2.6
						c-0.5,0.8-1.2,1.4-2,2l-0.4,0.2c-0.1,0.1-0.1,0.1-0.1,0.1c0,0.1-0.1,0.1-0.1,0.2c0,0.1,0,0.1,0.1,0.2c0,0.1,0.1,0.1,0.1,0.1
						l0.4,0.3c0.8,0.5,1.4,1.2,2,2c0.5,0.8,0.9,1.7,1,2.6l0.5,3.2c0,0.1,0.1,0.2,0.1,0.2c0.1,0.1,0.1,0.1,0.2,0.1
						c0.1,0,0.2,0,0.2-0.1c0.1-0.1,0.1-0.1,0.1-0.2l0.5-3.2c0.1-0.9,0.5-1.8,1-2.6c0.5-0.8,1.2-1.4,2-2l0.4-0.3
						c0.1-0.1,0.1-0.1,0.1-0.1c0-0.1,0.1-0.1,0.1-0.2c0-0.1,0-0.1-0.1-0.2c0-0.1-0.1-0.1-0.1-0.1L419.2,231.3z"/>
					<path class="st7" d="M442.5,297.3l21.5-0.8c9.7,12.9,5.7,18.8,2,26.9h-31.9c0,0-1.1-3.9-2-7.3C430.4,309.3,432,304,442.5,297.3
						z"/>
					<path class="st32" d="M448.5,275.7l30.6-6.7c-9.5,21.4-17.3,25.4-22.9,24.6C450.7,292.8,447.7,285.1,448.5,275.7z"/>
					<path class="st32" d="M448.5,275.7l-17.4-17.8c-0.5,23.4,4,28.4,8,29.8C443.2,289.1,446.6,284.8,448.5,275.7z"/>
					<path class="st9" d="M429.7,275c3.8-9.8,27.7-16.9,32.7-15.1c5,1.8,18.1,18.1,15.9,28.6c-2.2,10.4-14.6,15.5-28.9,11.9
						C435,296.8,425.6,285.5,429.7,275z"/>
					<path class="st9" d="M461.1,267.9c8.2-6.6,15.9-9.8,26.2-12.9c7.8-2.4,7.7-9.6-1.3-9.9c-8.9-0.3-19.4,6.9-25.5,14.6
						c-5.5-14.8-6-19.9-13.3-19.7c-7.3,0.2-11.3,7.3-12.5,10.6c-1,2.7-1,4.8,3,5.8c4,1,7-1.6,9.1-5.1c2.1,5.4,4.6,10.6,7.6,15.6
						C456.4,270.1,457.4,271.1,461.1,267.9z"/>
					<path class="st33" d="M454.8,259.4l-4.7-11.4"/>
					<path class="st34" d="M448.5,275.7c-0.8,9.5,2.2,17.1,7.7,17.9c4.9,0.7,11.5-2.4,19.5-17.7c-0.9-1.9-2-3.7-3.2-5.5L448.5,275.7
						z"/>
					<path class="st34" d="M431.5,272c1.2,11.5,4.6,14.7,7.6,15.7c4,1.4,7.4-2.8,9.3-12l-9.3-9.6C436.2,267.6,433.7,269.6,431.5,272
						z"/>
					<path class="st35" d="M439.5,275.5l-1.3-2.6"/>
					<path class="st35" d="M439,276.9l-2.5-2.4"/>
					<path class="st35" d="M459.6,280.9l2.4-2.7"/>
					<path class="st35" d="M459.4,282.4l5.3-1.9"/>
					<path class="st7" d="M459.3,287c2.2-1.2,2.9-4.2,1.5-6.8c-1.3-2.6-4.2-3.8-6.4-2.7c-2.2,1.2-2.9,4.2-1.5,6.8
						C454.2,286.9,457,288.1,459.3,287z"/>
					<path class="st7" d="M437.9,277.4c-0.3-2.7,1.2-4.9,3.2-5c1.2,0.1,2.4,0.6,3.2,1.5c0.9,0.9,1.4,2,1.6,3.2
						c0.5,2.9-0.9,5.5-3.3,5.5C440.3,282.6,438.2,280.3,437.9,277.4z"/>
					<path d="M442.8,277.1c0.2-1-0.2-2-1-2.3c-0.8-0.2-1.7,0.5-1.9,1.6c-0.2,1,0.2,2.1,1,2.3C441.7,278.8,442.5,278.2,442.8,277.1z"
						/>
					<path d="M457.3,280.6c0.2-1-0.2-2.1-1-2.3c-0.8-0.2-1.7,0.5-1.9,1.6c-0.2,1,0.2,2,1,2.3C456.3,282.4,457.1,281.7,457.3,280.6z"
						/>
					<path d="M442.5,290.9c1.8,6.2,5.1,3.2,6.8,1.1c0.1-0.1,0.2-0.3,0.2-0.5c0-0.2,0-0.3-0.1-0.5c-0.1-0.2-0.2-0.3-0.3-0.4
						s-0.3-0.2-0.5-0.2l-5-0.8c-0.2-0.1-0.3,0-0.5,0.1c-0.2,0.1-0.3,0.2-0.4,0.3c-0.1,0.1-0.2,0.3-0.2,0.5
						C442.4,290.6,442.4,290.8,442.5,290.9z"/>
					<path d="M450.4,246.1c0.1-0.1,0.2-0.1,0.2-0.2c0.1-0.1,0.2-0.1,0.3-0.1c0.1,0,0.2,0,0.3,0.1c0.1,0.1,0.2,0.1,0.3,0.2
						c0.1,0.1,0.1,0.2,0.2,0.2c0.1,0.1,0.1,0.2,0.1,0.3s0,0.2-0.1,0.3c-0.1,0.1-0.1,0.2-0.2,0.3c-1.5,1.9-2.9,3.9-4.1,5.9l-0.7-1.8
						C448,249.5,449.1,247.7,450.4,246.1z"/>
					<path class="st33" d="M486.4,251.5c-9.3,1.1-18.1,5.3-24.8,11.9"/>
					<path class="st34" d="M448.9,284.5c-1-5.3-0.7-6-3.1-1l-0.5-0.1l1.9-7.8h1.1l2.2,1.2l-1.2,7.7L448.9,284.5z"/>
					<path class="st16" d="M445.5,291.8c-0.9,0-1.7,0.2-2.4,0.7c1.6,3.4,3.9,2.1,5.4,0.5c-0.4-0.4-0.9-0.7-1.3-0.9
						C446.6,291.9,446,291.8,445.5,291.8z"/>
				</g>
				<path class="st36" d="M494.2,357.9l1.7,7.4c0,0,0,0,0.1,0.1c0,0,0,0,0.1,0.1c0,0,0,0,0.1-0.1c0,0,0,0,0.1-0.1l4.4-6.2l0.1-0.1
					l7.4-1.7c0,0,0,0,0.1-0.1c0,0,0,0,0.1-0.1c0,0,0,0-0.1-0.1c0,0,0,0-0.1-0.1l-6.2-4.4l-0.1-0.1l-1.7-7.4c0,0,0,0-0.1-0.1
					c0,0,0,0-0.1-0.1c0,0,0,0-0.1,0.1c0,0,0,0-0.1,0.1l-4.4,6.2l-0.1,0.1l-7.4,1.7c0,0,0,0-0.1,0.1c0,0,0,0-0.1,0.1c0,0,0,0,0.1,0.1
					c0,0,0,0,0.1,0.1L494.2,357.9C494.1,357.8,494.1,357.8,494.2,357.9z"/>
			</g>
		</g>
		<path class="st37" d="M38.2,65c-1.2-0.8-2.3-1.8-3-3c-0.8-1.2-1.3-2.6-1.5-4L32.9,53c0-0.1-0.1-0.2-0.2-0.3
			c-0.1-0.1-0.2-0.1-0.3-0.1c-0.1,0-0.2,0.1-0.3,0.1C32,52.8,32,52.9,31.9,53l-0.7,4.9c-0.2,1.4-0.7,2.8-1.5,4c-0.8,1.2-1.8,2.3-3,3
			L26,65.4c-0.1,0-0.1,0.1-0.2,0.2c0,0.1-0.1,0.2-0.1,0.2c0,0.1,0,0.2,0.1,0.3c0,0.1,0.1,0.1,0.2,0.2l0.6,0.4c1.2,0.8,2.3,1.8,3,3.1
			c0.8,1.2,1.3,2.6,1.5,4l0.7,4.9c0,0.1,0.1,0.2,0.2,0.3c0.1,0.1,0.2,0.1,0.3,0.1c0.1,0,0.2,0,0.3-0.1c0.1-0.1,0.2-0.2,0.2-0.3
			l0.7-5c0.2-1.4,0.7-2.8,1.5-4c0.8-1.2,1.8-2.3,3.1-3.1l0.7-0.4c0.1-0.1,0.1-0.1,0.2-0.2c0-0.1,0.1-0.2,0.1-0.2
			c0-0.1,0-0.2-0.1-0.2c0-0.1-0.1-0.1-0.2-0.2L38.2,65z"/>
		<path class="st9" d="M572.6,12.5c-1.2-0.8-2.3-1.8-3-3c-0.8-1.2-1.3-2.6-1.5-4l-0.7-4.9c0-0.1-0.1-0.2-0.2-0.3
			C567,0.1,566.9,0,566.8,0c-0.1,0-0.2,0.1-0.3,0.1c-0.1,0.1-0.2,0.2-0.2,0.3l-0.7,4.9c-0.2,1.4-0.7,2.8-1.5,4c-0.8,1.2-1.8,2.3-3,3
			l-0.6,0.4c-0.1,0-0.1,0.1-0.2,0.2c0,0.1-0.1,0.2-0.1,0.2c0,0.1,0,0.2,0.1,0.3c0,0.1,0.1,0.1,0.2,0.2l0.6,0.4
			c1.2,0.8,2.3,1.8,3,3.1c0.8,1.2,1.3,2.6,1.5,4l0.7,4.9c0,0.1,0.1,0.2,0.2,0.3c0.1,0.1,0.2,0.1,0.3,0.1c0.1,0,0.2,0,0.3-0.1
			c0.1-0.1,0.2-0.2,0.2-0.3l0.7-5c0.2-1.4,0.7-2.8,1.5-4c0.8-1.2,1.8-2.3,3.1-3.1l0.7-0.4c0.1-0.1,0.1-0.1,0.2-0.2
			c0-0.1,0.1-0.2,0.1-0.2c0-0.1,0-0.2-0.1-0.2c0-0.1-0.1-0.1-0.2-0.2L572.6,12.5z"/>
		<path class="st38" d="M82.1,376c-0.9-0.6-1.7-1.4-2.3-2.3c-0.6-0.9-1-2-1.2-3.1l-0.6-3.8c0-0.1-0.1-0.2-0.1-0.2
			c-0.1-0.1-0.2-0.1-0.2-0.1c-0.1,0-0.2,0-0.2,0.1c-0.1,0.1-0.1,0.1-0.1,0.2l-0.6,3.8c-0.2,1.1-0.6,2.2-1.2,3.1
			c-0.6,0.9-1.4,1.7-2.3,2.3l-0.5,0.3c-0.1,0-0.1,0.1-0.1,0.1c0,0.1,0,0.1,0,0.2c0,0.1,0,0.1,0,0.2c0,0.1,0.1,0.1,0.1,0.1l0.5,0.3
			c0.9,0.6,1.7,1.4,2.3,2.3c0.6,0.9,1,2,1.2,3.1l0.6,3.8c0,0.1,0.1,0.2,0.1,0.2c0.1,0.1,0.2,0.1,0.2,0.1c0.1,0,0.2,0,0.2-0.1
			c0.1-0.1,0.1-0.1,0.1-0.2l0.6-3.8c0.2-1.1,0.6-2.2,1.2-3.1c0.6-0.9,1.4-1.7,2.3-2.3l0.5-0.3c0.1,0,0.1-0.1,0.1-0.1
			c0-0.1,0-0.1,0-0.2c0-0.1,0-0.1,0-0.2c0-0.1-0.1-0.1-0.1-0.1L82.1,376z"/>
	</g>
</g>
</svg>
