<?xml version="1.0" encoding="utf-8"?>
<!-- Generator: Adobe Illustrator 24.2.1, SVG Export Plug-In . SVG Version: 6.00 Build 0)  -->
<svg version="1.1" id="katman_1" xmlns="http://www.w3.org/2000/svg" xmlns:xlink="http://www.w3.org/1999/xlink" x="0px" y="0px"
	 viewBox="0 0 350 88.9" style="enable-background:new 0 0 350 88.9;" xml:space="preserve">
<style type="text/css">
	.st0{fill:#FFFFFF;}
	.st1{fill:none;}
	.st2{fill:#1B1B29;}
</style>
<g>
	<g>
		<path class="st0" d="M100.9,65.8V22.5c0,0,0,0,0,0h18.6c3.2,0,6.1,0.6,8.4,2c2.3,1.2,4.4,2.9,5.5,5.2c1.2,2.3,2,4.9,2,8.1
			s-0.6,5.8-2,8.1c-1.5,2.3-3.2,4.1-5.8,5.2c-2.6,1.2-5.2,1.7-8.7,1.7h-11c0,0,0,0,0,0v-9c0,0,0,0,0,0h8.7c1.5,0,2.6-0.3,3.5-0.9
			c0.9-0.6,1.7-1.2,2.3-2c0.6-0.9,0.9-2,0.9-3.2c0-1.2-0.3-2.3-0.9-3.2c-0.6-0.9-1.2-1.5-2.3-2c-1.2-0.6-2-0.6-3.5-0.6h-4.1
			c0,0,0,0,0,0v33.7c0,0,0,0,0,0C112.5,65.8,100.9,65.8,100.9,65.8C100.9,65.8,100.9,65.8,100.9,65.8z"/>
		<path class="st0" d="M153.5,66.4c-4.5,0-8-1-11.2-3.5c-0.8-0.6-1.6-1.4-2.2-2.2c-2.5-3.2-3.5-6.7-3.5-11.2c0-3.2,0.6-6.4,2-8.7
			c1.5-2.6,3.2-4.4,5.8-5.8c2.3-1.5,5.2-2,8.7-2c2.3,0,4.7,0.3,6.7,1.2c2,0.9,3.8,1.7,4.9,3.2c1.5,1.5,2.6,3.2,3.2,5.2
			s1.2,4.4,1.2,7v2.6c0,0,0,0,0,0h-28.8c0,0,0,0,0,0v-6.4c0,0,0,0,0,0h18.3c0,0,0,0,0,0c0-0.9-0.3-1.7-0.6-2.3c0,0,0,0,0,0
			c-0.6-0.6-1.2-1.2-1.7-1.7c-0.6-0.6-1.7-0.6-2.6-0.6c-0.9,0-1.7,0.3-2.6,0.6c-0.9,0.3-1.5,0.9-1.7,1.7c-0.6,0.6-0.6,1.5-0.9,2.3
			c0,0,0,0,0,0v7c0,1.2,0.3,2,0.6,2.9c0.3,0.9,1.2,1.5,1.7,2v0c0.9,0.6,1.7,0.6,2.9,0.6c0.9,0,1.5,0,2.3-0.3c0,0,0,0,0,0
			c0.6-0.3,1.2-0.6,1.7-0.9c0.6-0.3,0.9-0.9,1.2-1.5c0,0,0,0,0,0h10.8c0,0,0,0,0,0c-0.3,2.3-1.2,4.1-2.6,5.8
			c-1.5,1.7-3.2,2.9-5.5,3.8C159.3,66.1,156.7,66.4,153.5,66.4z"/>
		<path class="st0" d="M188.4,66.4c-4.5,0-8-1-11.2-3.5c-0.8-0.6-1.6-1.4-2.2-2.2c-2.5-3.2-3.5-6.7-3.5-11.2c0-3.2,0.6-6.4,2-8.7
			c1.5-2.6,3.2-4.4,5.8-5.8c2.3-1.5,5.2-2,8.7-2c2.3,0,4.7,0.3,6.7,1.2c2,0.9,3.8,1.7,4.9,3.2c1.5,1.5,2.6,3.2,3.2,5.2l0,0
			c0.9,2,1.2,4.4,1.2,7v2.6c0,0,0,0,0,0h-28.8c0,0,0,0,0,0v-6.4c0,0,0,0,0,0h18.3c0,0,0,0,0,0c0-0.9-0.3-1.7-0.6-2.3c0,0,0,0,0,0
			c-0.6-0.6-1.2-1.2-1.7-1.7c0,0,0,0,0,0c-0.9-0.3-1.7-0.6-2.6-0.6c-0.9,0-1.7,0.3-2.6,0.6c-0.9,0.3-1.5,0.9-1.7,1.7
			c-0.6,0.6-0.6,1.5-0.9,2.3c0,0,0,0,0,0v7c0,1.2,0.3,2,0.6,2.9v0c0.6,0.9,1.2,1.5,1.7,2v0c0.9,0.6,1.7,0.6,2.9,0.6
			c0.9,0,1.5,0,2.3-0.3l0,0c0.6-0.3,1.2-0.6,1.7-0.9c0.6-0.3,0.9-0.9,1.2-1.5c0,0,0,0,0,0h10.8c0,0,0,0,0,0
			c-0.3,2.3-1.2,4.1-2.6,5.8c-1.5,1.7-3.2,2.9-5.5,3.8l0,0C194.2,65.8,191.6,66.4,188.4,66.4z"/>
		<path class="st0" d="M219.5,47.5v18.3c0,0,0,0,0,0h-11.6c0,0,0,0,0,0V33.3c0,0,0,0,0,0h11c0,0,0,0,0,0v6.1h0.3
			c0.6-2,2-3.8,3.8-4.9c1.7-1.2,3.8-1.7,6.1-1.7c2.3,0,4.4,0.6,6.1,1.5l0,0c1.7,1.2,2.9,2.6,4.1,4.4l0,0c0.9,1.7,1.5,3.8,1.5,6.4
			v20.6c0,0,0,0,0,0h-11.6c0,0,0,0,0,0v-18c0-1.7-0.3-2.9-1.2-3.8c-0.9-0.9-2-1.5-3.5-1.5c-0.9,0-1.7,0.3-2.6,0.6c0,0,0,0,0,0
			c-0.6,0.3-1.2,0.9-1.7,1.7c0,0,0,0,0,0C219.8,45.5,219.5,46.6,219.5,47.5z"/>
		<path class="st0" d="M266,51.6V33.3c0,0,0,0,0,0h11.6c0,0,0,0,0,0v32.3c0,0,0,0,0,0h-11c0,0,0,0,0,0v-6.1h-0.3
			c-0.6,2-2,3.8-3.8,4.9c-1.7,1.2-3.8,1.7-6.4,1.7c-2.3,0-4.4-0.6-5.8-1.5c-1.7-1.2-2.9-2.6-4.1-4.4v0c-0.9-1.7-1.5-3.8-1.5-6.4
			V33.3c0,0,0,0,0,0h11.6c0,0,0,0,0,0v18.3c0,1.7,0.3,2.9,1.2,3.8c0.9,0.9,2,1.5,3.5,1.5c0.9,0,1.7-0.3,2.6-0.6
			c0.9-0.3,1.2-0.9,1.7-1.7l0,0C265.7,53.6,266,52.7,266,51.6z"/>
		<path class="st0" d="M292.4,33.3l4.7,10.2c0,0,0,0,0,0l4.9-10.2c0,0,0,0,0,0h11.6c0,0,0,0,0,0l-8.7,16.3c0,0,0,0,0,0l9,16.3
			c0,0,0,0,0,0h-11.3c0,0,0,0,0,0l-5.5-10.2c0,0,0,0,0,0l-5.2,10.2c0,0,0,0,0,0h-11.6c0,0,0,0,0,0l9.3-16.3c0,0,0,0,0,0l-8.7-16.3
			c0,0,0,0,0,0L292.4,33.3C292.4,33.3,292.4,33.3,292.4,33.3z"/>
		<path class="st0" d="M333.1,55.6c-2.3,0-4.7-0.3-6.7-1.2c-2-0.9-3.8-2-5.2-3.5s-2.6-3.2-3.5-5.2c-0.9-2-1.2-4.4-1.2-6.7
			c0-2.3,0.3-4.7,1.2-6.7c0.9-2,2-3.8,3.5-5.2s3.2-2.6,5.2-3.5c2-0.9,4.4-1.2,6.7-1.2s4.7,0.3,6.7,1.2c2,0.9,3.8,2,5.2,3.5
			s2.6,3.2,3.5,5.2c0.9,2,1.5,4.4,1.5,6.7c0,2.3-0.6,4.7-1.5,6.7c-0.9,2-2,3.8-3.5,5.2s-3.2,2.6-5.2,3.5
			C337.8,55.4,335.5,55.6,333.1,55.6z M333.1,51c2.3,0,4.4-0.6,6.1-1.7c1.7-1.2,3.2-2.6,4.4-4.4c1.2-1.7,1.7-3.8,1.7-6.1
			c0-2.3-0.6-4.4-1.7-6.1c-1.2-1.7-2.6-3.2-4.4-4.4c-1.7-1.2-3.8-1.7-6.1-1.7s-4.4,0.6-6.1,1.7c-1.7,1.2-3.2,2.6-4.4,4.4
			c-1.2,1.7-1.7,3.8-1.7,6.1c0,2.3,0.6,4.4,1.7,6.1c1.2,1.7,2.6,3.2,4.4,4.4C328.8,50.4,330.8,51,333.1,51z M327,46.3V30.9
			c0,0,0,0,0,0h7.6c1.2,0,2.3,0.3,3.2,0.6c0.9,0.3,1.5,1.2,2,1.7c0,0,0,0,0,0c0.6,0.9,0.6,1.7,0.6,2.9c0,1.2-0.3,2-0.6,2.6v0
			c-0.6,0.9-1.2,1.5-2,1.7c-0.9,0.3-2,0.6-3.2,0.6h-4.9c0,0,0,0,0,0v-3.2c0,0,0,0,0,0h4.1c0.6,0,1.2-0.3,1.5-0.6
			c0.3-0.3,0.6-0.9,0.6-1.5c0-0.6-0.3-1.2-0.6-1.5c-0.3-0.3-0.9-0.6-1.5-0.6h-2c0,0,0,0,0,0V46c0,0,0,0,0,0H327V46.3z M337.2,39.4
			l3.2,7c0,0,0,0,0,0h-4.9c0,0,0,0,0,0l-2.9-7c0,0,0,0,0,0L337.2,39.4C337.2,39.4,337.2,39.4,337.2,39.4z"/>
	</g>
	<g>
		<path class="st1" d="M64,24.7C64,24.8,64,24.8,64,24.7C64,24.8,64,24.8,64,24.7z"/>
		<path class="st0" d="M5.1,59c-1,2-0.8,2.5-0.8,2.5l0.4,26.3C4.7,90.2,6,88,6,88l21.4-34.1c0-0.1,0.1-0.2,0.1-0.3
			C16.2,53.3,6,58.6,5.1,59z"/>
		<path class="st0" d="M64.1,24.7c0-14.4-10.3-24-22.4-24.7c-0.9-0.1-1.4,0-1.4,0H12.4c-2.3,0.1-3.1,1.9-3.1,1.9S0.7,15.4,0.2,17.1
			c-0.6,1.7,0.8,2,0.8,2h37.2c0,0,0.1,0,0.3,0C38.4,19.1,58.9,18.3,64.1,24.7C64,24.8,64,24.8,64.1,24.7C64,24.8,64,24.8,64.1,24.7
			c-0.5-0.5-4.3-4.2-20.7-4.2c1.4,1,2.5,2.6,2.5,5.3c0,7.2-6.4,7.2-6.4,7.2H22.2c-1.7-0.1-2.7,1.4-2.7,1.4L5.8,57.8
			c-0.3,0.4-0.5,0.8-0.6,1.2c8.6-7.1,24.6-6.8,24.6-6.8l-0.1,0c0.1,0,0.1,0,0.1,0h10.8C65,50,64.1,24.7,64.1,24.7z"/>
		<path class="st2" d="M64,24.7c-5.1-6.4-25.6-5.7-25.6-5.7c0.8,0,3.1,0.1,5,1.4C59.7,20.5,63.5,24.2,64,24.7z"/>
		<path class="st0" d="M5.1,59.1C5.1,59.1,5.1,59,5.1,59.1C5.1,59,5.1,59,5.1,59.1C5.1,59,5.1,59,5.1,59.1z"/>
		<path class="st2" d="M5.1,59C5.1,59,5.1,59,5.1,59c0.8-0.4,11-5.7,22.3-5.4c0.7-1.2,1.8-1.3,2.2-1.3l0.1,0
			C29.7,52.2,13.8,51.9,5.1,59z"/>
	</g>
</g>
</svg>
