<?xml version="1.0" encoding="utf-8"?>
<!-- Generator: Adobe Illustrator 24.2.1, SVG Export Plug-In . SVG Version: 6.00 Build 0)  -->
<svg version="1.1" id="katman_1" xmlns="http://www.w3.org/2000/svg" xmlns:xlink="http://www.w3.org/1999/xlink" x="0px" y="0px"
	 viewBox="0 0 200 140" style="enable-background:new 0 0 200 140;" xml:space="preserve">
<style type="text/css">
	.st0{clip-path:url(#SVGID_2_);}
	.st1{fill:#404EED;}
	.st2{fill:#5960FA;}
	.st3{fill:none;stroke:#373BE1;stroke-width:1.87;stroke-linecap:round;stroke-miterlimit:10;}
	.st4{fill:#73DAFF;}
	.st5{fill:#FFE734;}
	.st6{fill:#22C774;}
	.st7{fill:#57EBA0;}
	.st8{fill:#FF6CBA;}
	.st9{fill:#FF85C6;}
	.st10{fill:#1A9AF5;}
	.st11{fill:#373BE1;}
	.st12{fill:#0822A5;}
	.st13{fill:#FFB800;}
	.st14{fill:#99E4FF;}
	.st15{fill:#FF4DAB;}
	.st16{fill:#0087E8;}
	.st17{fill:#B0EAFF;}
	.st18{fill:#4950FA;}
	.st19{fill:none;stroke:#FF6CBA;stroke-width:1.87;stroke-linecap:round;stroke-miterlimit:10;}
	.st20{fill:#F6C649;stroke:#FFC42B;stroke-width:0.94;stroke-miterlimit:10;}
	.st21{fill:#FFC42B;}
	.st22{fill:#FFFFFF;}
	.st23{fill:#2F33E1;}
	.st24{fill:#FF5EB3;}
	.st25{fill:none;stroke:#FF6CBA;stroke-width:1.65;stroke-linecap:round;stroke-miterlimit:10;}
	.st26{fill:#4247FF;}
	.st27{fill:#FBE573;}
	.st28{fill:#8086FF;}
	.st29{fill:#40E991;}
	.st30{fill:none;stroke:#22C774;stroke-width:1.87;stroke-linecap:round;stroke-miterlimit:10;}
	.st31{fill:none;stroke:#000000;stroke-width:1.87;stroke-linecap:round;stroke-miterlimit:10;}
</style>
<g>
	<defs>
		<rect id="SVGID_1_" width="200" height="139.2"/>
	</defs>
	<clipPath id="SVGID_2_">
		<use xlink:href="#SVGID_1_"  style="overflow:visible;"/>
	</clipPath>
	<g class="st0">
		<path class="st1" d="M178.7,92.5c-2.4-0.9-4.4-2.4-6.1-4.3c-1.7-1.9-2.8-4.2-3.4-6.6c-6.1-24.6-15.6-71-30.8-73.2
			c-17.5-2.5-19.8,24.3-25,45c-4.2,16.7-12.5,23.8-15.8,20.8c-15.8-14.2-25,5-25,5S65.8,35,50.8,35c-13.3,0-9.7,44.3-25,37.5
			C3.3,62.5,0,139.2,0,139.2h200C200,139.2,200.7,101.1,178.7,92.5z"/>
		<path class="st2" d="M32.5,43.3c-11.4-0.2-16.7-7.1-16.7-7.1c4.8,1.6,7.5,0.4,7.5,0.4c-3.9-3.1-5.1-9.8-5.1-9.8
			c7.8,7.8,14.9,8.5,14.9,8.5L32.5,43.3z"/>
		<path class="st3" d="M33.2,34.2c0,0-2.5,19.3,0.6,37.2"/>
		<path class="st4" d="M51.7,127.5l-4.7,11.7h16.4c0.2-0.6,0.2-1.3,0-2c-0.2-0.6-0.5-1.2-1-1.7s-1-0.8-1.7-1s-1.3-0.2-2-0.1
			c-1.8,0.5-3.7,0.7-5.5,0.8l3.1-7.7L51.7,127.5z"/>
		<path class="st4" d="M23.8,106.2l-12.3-2.5l2.1,19.9c2.9,0.2,5.5-4.7,4.7-7.8c-0.6-2.3-1.7-5.8-1.8-6.7l8.2,1.7L23.8,106.2z"/>
		<path class="st5" d="M58.2,71.3c0.5-0.7,3.7-7.8-2.6-8.5c-9.7-1.2-7.1,6.3-19.2,4.7c-12.1-1.6-13.7,7.1-6.3,11.3L58.2,71.3z"/>
		<path class="st6" d="M20,57.5c-0.8,0.3-1.5,0.7-2,1.3c-0.6,0.6-1,1.3-1.3,2c1.7,0,12.5,2.5,13.3,15l0.8-0.8
			C30.8,75,27.5,58.3,20,57.5z"/>
		<path class="st7" d="M30.3,77.4c0,0-2.4-13.8-12.4-20.8c0,0-1.2-7.5,7.5-6.3c0,0,8.8,16.2,7.9,28.1L30.3,77.4z"/>
		<path class="st8" d="M31.6,77.6c0,0-1.6-16,3.4-21.8c0,0,5.8-0.8,6.1,4.5C35.8,65.6,34,73,33.8,78.8L31.6,77.6z"/>
		<path class="st9" d="M32.7,77.2c0,0-0.3-18.3,6.5-23.9c0.6,0.5,1.1,1.1,1.6,1.8c0.9,1.4,1.3,3.2,0.9,4.9c0,0-4.3,2.7-7.2,13
			L32.7,77.2z"/>
		<path class="st5" d="M38,71.5c-1.2-0.1-2.5,0.1-3.6,0.6c-2.8,1.3-8.1,3.8-9.9,5.2c-1,0.6-1.7,1.5-2.3,2.5s-0.8,2.1-0.8,3.3v2.4
			l-2,1.2c-1.9,1.2-2.9,2.5-1.7,5.8c1.1,3,2.4,7.2,5.8,8.5c3.5,1.2,21.3-3.8,22.6-4.7l0.8-3.9l4.6-19.5L38,71.5z"/>
		<path class="st10" d="M95.9,34.1l-5.3-1.7c-0.4-0.1-0.7-0.1-1.1,0.1c-0.3,0.2-0.6,0.4-0.8,0.8c-0.5,1.4-0.9,2.8-1.1,4.3
			c-0.5-0.8-0.4-3.3-0.3-4.7c0-0.1,0-0.3-0.1-0.4c0-0.1-0.1-0.2-0.2-0.3s-0.2-0.2-0.3-0.2c-0.1,0-0.3-0.1-0.4-0.1l-1.3,0.1
			c-0.2,0-0.4,0.1-0.5,0.2c-0.1,0.1-0.3,0.3-0.3,0.4c-0.7,2.2-0.1,7.8-0.1,7.8l-1.7-1.7c-0.1-0.1-0.2-0.1-0.3-0.2s-0.2-0.1-0.3-0.1
			c-0.1,0-0.2,0-0.3,0.1c-0.1,0-0.2,0.1-0.3,0.2l-0.8,0.9c-0.1,0.1-0.2,0.3-0.2,0.5s0.1,0.4,0.2,0.5l1.7,2.2
			c0.4,0.5,0.6,1.1,0.7,1.8s-0.1,1.3-0.4,1.8l-3.6,6.8c-1.9,3.7-4.6,7-7.9,9.5c-3.3,2.6-7.1,4.4-11.2,5.3l-11.1,2.5l5.4,7.8L66,73.7
			c6.4-2.5,11.7-7.2,14.9-13.3l7.5-14h0.1l5.5-3.7l2.8-6.7c0.1-0.2,0.1-0.4,0.1-0.6s-0.1-0.4-0.1-0.6s-0.2-0.3-0.4-0.5
			C96.3,34.2,96.1,34.1,95.9,34.1z"/>
		<path class="st11" d="M65.2,66.2c-1.8,0.8-3.6,1.4-5.5,1.8l-7.4,1.7l2.5,7.1l2.1,0.4l9.1-3.5c1-0.4,2-0.8,2.9-1.4
			C69.7,67.4,65.7,66,65.2,66.2z"/>
		<path class="st12" d="M52.6,91.2c0,0,8.5,5.1,11.6,10.5c2.1,3.6-3.7,20.3-5.6,25.7c-0.2,0.5-0.5,0.9-0.9,1.3
			c-0.4,0.3-0.9,0.6-1.4,0.7l-7.7,0.4c-4.7,0,4.7-19.5,7.8-24.2l-9.3-7l-7-5.4L52.6,91.2z"/>
		<path class="st10" d="M36.6,88.5c-2.6,1.1-5.4,1.9-8.3,2.3c0,0,8.2-6.6,10.9-10.9c1.2-1.9,1.7-3.4,1.6-4.7
			c-0.1-1.7-0.8-3.9-2.3-3.4c-3,1-9.6,5.8-15.9,17.3c-6.1,11,6.2,7.4,15,3.7"/>
		<path class="st11" d="M58.8,68.2c0,0-17.5,3.1-20,3.6h-0.1h-0.2c-2.1,0.7-6,3.3-10.4,8.8c0,0,1.8,3.1,6.5,4.6
			c1.1-1.1,2.2-2.2,3.2-3.4L40,93.1l12.6-1.9l4.3-6.2c2-2.8,3.1-6.3,3.1-9.8C59.9,72.9,59.4,70.5,58.8,68.2z"/>
		<path class="st10" d="M43.2,86.5v-3.4c0-0.4,0.1-0.7,0.2-1s0.4-0.6,0.7-0.8l2.4-1.9c0.4-0.3,0.9-0.5,1.3-0.5c0.5,0,1,0.1,1.4,0.4
			c0.9,0.5,1.6,1.4,2.1,2.4c0.4,1,0.5,2.1,0.3,3.1l-0.3,1.6c-0.2,0.9-0.7,1.7-1.4,2.2c-0.7,0.6-1.6,0.9-2.5,0.9H45L43.2,86.5z"/>
		<path class="st11" d="M33.4,34.7c1.1,0,2-0.9,2-2c0-1.1-0.9-2-2-2c-1.1,0-2,0.9-2,2C31.5,33.8,32.3,34.7,33.4,34.7z"/>
		<path class="st13" d="M41.4,71.3c0,0,5.4,3,5.7,11.1c0,0.2-0.1,0.3-0.1,0.5c-0.1,0.1-0.2,0.3-0.4,0.3c-0.1,0.1-0.3,0.1-0.4,0.1
			c-0.1,0-0.3,0-0.4-0.1c-0.1-0.1-0.2-0.1-0.3-0.2c-0.1-0.1-0.2-0.2-0.2-0.4c-0.8-2.7-3.6-10.6-8.7-9.9C36.5,72.8,37.5,70,41.4,71.3
			z"/>
		<path class="st13" d="M56.2,68.7c1.5,1.3,5.8,5.2,2.6,13.1c0,0,7.4-6.2,0.6-13.8C59,67.7,57.5,66.7,56.2,68.7z"/>
		<path class="st10" d="M37.6,92.9c4.4-1.8,7.9-3.6,7.9-3.6l-0.8-4.7c-2.6,1.5-5.3,2.8-8.1,3.9"/>
		<path class="st12" d="M45.7,72.3c0.1,1.3,0.5,2.9,2.9,4.5c0,0,3.1-1.6,3.1-3.1c0,0,1.6,2.3,3.9,2.3c0,0,0.8-6.2-4.6-6.7
			c-0.6,0-1.2,0-1.8,0C47.2,69.4,45.6,70.3,45.7,72.3z"/>
		<path class="st10" d="M48.9,69.3c0.7-1.4,1.5-2.9,2.2-4.4c0.7-1.5,1.3-3.1,2-4.6c1.2-3.1,2.3-6.3,3.2-9.5c0.5-1.6,0.8-3.2,1.3-4.8
			c0.2-0.8,0.3-1.6,0.5-2.4l0.3-1.2l0.2-1.2c0.5-3.2,0.9-6.5,1-9.8v-0.1c0.1-1,0.5-2,1.3-2.7s1.8-1,2.8-1c1,0.1,2,0.5,2.7,1.3
			s1,1.8,1,2.8v0.3c-0.4,3.6-1.1,7.1-1.9,10.6l-0.3,1.3l-0.4,1.3c-0.3,0.8-0.5,1.7-0.7,2.6c-0.6,1.7-1.1,3.4-1.7,5
			c-1.2,3.3-2.6,6.6-4.2,9.8c-0.8,1.6-1.6,3.2-2.4,4.7l-0.6,1c-0.7,1.2-1.4,2.4-2.1,3.6c-0.3,0.5-0.9,0.9-1.4,1s-1.2,0.1-1.8-0.3
			c-0.5-0.3-0.9-0.8-1.1-1.4C48.5,70.5,48.6,69.9,48.9,69.3L48.9,69.3z"/>
		<path d="M37.8,81.9c0.8-1.1,1.6-2.3,2.2-3.6c0.8,3.1-1.6,6.8-1.6,6.8L37.8,81.9z"/>
		<path d="M66.3,38.5c0.2-1.5-4.4-3-5.2-3.8c0,0,1.6,5.4,4.6,6.7C65.9,40.6,66.1,39.6,66.3,38.5z"/>
		<path class="st10" d="M67.3,38.6c4.3,0,7.8-3.5,7.8-7.8c0-4.3-3.5-7.8-7.8-7.8c-4.3,0-7.8,3.5-7.8,7.8
			C59.5,35.1,63,38.6,67.3,38.6z"/>
		<path class="st14" d="M69.7,36.9c1.7-0.5,2.6-2.6,2-4.7c-0.6-2.1-2.5-3.4-4.2-2.9s-2.6,2.6-2,4.7S67.9,37.4,69.7,36.9z"/>
		<path class="st14" d="M78.6,32.6c0.5-2-0.2-3.9-1.6-4.2c-1.4-0.4-3,0.9-3.5,2.9c-0.5,2,0.2,3.9,1.6,4.2
			C76.5,35.9,78.1,34.6,78.6,32.6z"/>
		<path d="M66.8,33c0.3-0.2,0.6-0.3,1-0.4c0.4,0,0.8,0,1.1,0.1c0.3,0.1,0.6,0.4,0.9,0.6c0.2,0.3,0.5,0.5,0.6,0.8
			c0.1,0.1,0.1,0.2,0.1,0.3c0,0.1,0,0.2,0,0.3c0,0.1-0.1,0.2-0.1,0.3c-0.1,0.1-0.1,0.2-0.2,0.2s-0.2,0.1-0.3,0.1c-0.1,0-0.2,0-0.3,0
			s-0.2-0.1-0.3-0.1s-0.2-0.1-0.2-0.2c0-0.1-0.1-0.1-0.1-0.2c-0.1-0.2-0.2-0.4-0.3-0.6c-0.1-0.2-0.2-0.3-0.4-0.5
			c-0.1-0.1-0.3-0.2-0.5-0.2c-0.2,0-0.4,0-0.6,0.1h-0.1c-0.1,0-0.2,0-0.3,0c-0.1,0-0.2-0.1-0.2-0.2s0-0.2,0-0.3
			C66.7,33.1,66.8,33.1,66.8,33L66.8,33z"/>
		<path d="M77.2,31.8c-0.2,0-0.4,0-0.6,0.1c-0.2,0.1-0.3,0.2-0.4,0.4c-0.1,0.2-0.2,0.4-0.2,0.5c0,0.2-0.1,0.4-0.1,0.7
			c-0.1,0.2-0.2,0.3-0.3,0.4C75.4,34,75.2,34,75.1,34s-0.3-0.1-0.5-0.2s-0.2-0.3-0.3-0.4c0-0.1,0-0.1,0-0.2c0.1-0.3,0.2-0.6,0.4-1
			c0.2-0.3,0.4-0.6,0.7-0.8c0.3-0.2,0.6-0.4,1-0.5c0.4-0.1,0.7,0,1.1,0.1c0,0,0.1,0,0.1,0.1c0,0,0.1,0.1,0.1,0.1s0,0.1,0,0.1
			c0,0.1,0,0.1,0,0.1c0,0.1-0.1,0.2-0.1,0.2C77.4,31.8,77.4,31.8,77.2,31.8L77.2,31.8z"/>
		<path class="st15" d="M77.1,18.3c-1.7,0-3.3,0.2-4.3,1.6l-1.9,2.4c-1.4,1.8-4.5,4.8-5.9,6.2c2-0.7,3.8-1.5,5.7-2.5
			c0.6-0.3,1.3-0.4,1.9-0.2c0.6,0.2,1.2,0.6,1.5,1.2c2-1.2,3.7-2.8,5-4.8c0.2-0.4,0.4-0.8,0.4-1.2c0-0.4-0.1-0.9-0.3-1.3
			c-0.2-0.4-0.5-0.7-0.9-1C77.9,18.5,77.5,18.4,77.1,18.3z"/>
		<path class="st9" d="M69.2,22.2h-1.9c-3.9,0-7.1,3.6-7.7,7.4c1.7-0.1,3.4-0.5,5-1l0.3-0.1c1.4-1.4,4.5-4.4,5.9-6.2L69.2,22.2z"/>
		<path class="st16" d="M51.2,81.4c0.1,0.6-0.1,1.3-0.4,1.9c-0.5,0.8-1.2,1.3-2.1,1.6c-0.2,0-0.4,0.1-0.5,0.3
			c-0.1,0.2-0.2,0.4-0.1,0.5c0,0.2,0.1,0.4,0.3,0.5c0.1,0.1,0.3,0.2,0.5,0.2c0.1,0,0.1,0,0.2,0c0.9-0.2,1.7-0.7,2.3-1.3l0.1-0.4
			C51.8,83.5,51.7,82.4,51.2,81.4z"/>
		<path d="M25.1,90.8c0.5,0.1,1,0.1,1.5,0.1c0.6,0,1.1,0,1.7-0.1c0.2-0.1,1.2-1,2.6-2.2c-1.8,0.6-3.7,0.8-5.6,0.7
			c-0.1,0-0.2,0-0.3,0c-0.1,0-0.2,0.1-0.3,0.1s-0.2,0.1-0.2,0.2s-0.1,0.2-0.1,0.3c0,0.1,0,0.2,0,0.3c0,0.1,0.1,0.2,0.1,0.3
			c0.1,0.1,0.1,0.2,0.2,0.2S25,90.8,25.1,90.8z"/>
		<path d="M49,94.7c0,0,4.4,2.3,6.3,10.1l-8.2-6.2L49,94.7z"/>
		<path class="st12" d="M21,109.9c-0.4-3.2-1-6.6,1.1-6.6c2.3,0,14,1.6,20.3,3.9l-2.3-14l8.6,0.8c2.9,5.6,2,14.1,1.3,18.3
			c-0.6,3.5-3.1,4.9-7.2,3.9c-4.2-1-15.8-1.7-18.5-2.3S21.3,111.8,21,109.9z"/>
		<path d="M45.2,106.9c-1-0.6-2-1.1-3.1-1.6l0.3,1.8c0.7,0.3,1.3,0.7,1.9,1c0.1,0.1,0.3,0.1,0.4,0.1c0.2,0,0.3-0.1,0.5-0.2
			s0.2-0.2,0.3-0.4c0-0.2,0-0.3,0-0.5C45.4,107.1,45.3,107,45.2,106.9z"/>
		<path class="st17" d="M47.1,139.2h16.4c0.1-0.5,0.2-1,0.1-1.6H47.7L47.1,139.2z"/>
		<path class="st17" d="M13.5,123.6c0.6,0,1.2-0.1,1.7-0.5L13.4,104l-1.9-0.4L13.5,123.6z"/>
		<path d="M61.6,32.8c0,1.1,0.2,3.8,2.8,3c0,0,0.1,0,0.1-0.1c0,0,0-0.1,0.1-0.1c0,0,0-0.1,0-0.1c0,0,0-0.1,0-0.1
			c-0.5-0.6-1.9-2.1-2.5-2.8c0,0-0.1-0.1-0.1-0.1s-0.1,0-0.1,0s-0.1,0-0.1,0.1S61.6,32.8,61.6,32.8z"/>
		<path class="st9" d="M62.3,34.7c-0.1,0-0.2,0-0.4,0c0.1,0.4,0.4,0.8,0.8,1s0.9,0.3,1.3,0.2c-0.2-0.4-0.4-0.7-0.7-0.9
			C63,34.8,62.6,34.7,62.3,34.7z"/>
		<path class="st17" d="M52.9,135.4c-0.8,0.1-1.1-0.8-1.2-1.7c-0.1-1.3,0.1-3.4,3.9-1.6c1.6,0.8,1.9,0.9-1.3,2.9
			c-0.2,0.1-0.4,0.2-0.7,0.2L52.9,135.4z"/>
		<path class="st17" d="M16.4,109.3c-0.2-0.8,0.7-1.2,1.5-1.4c1.2-0.3,3.1,0,1.6,2.5c-0.2,0.4-0.3,0.8-0.3,1.2
			c0.1,1.2-1.8,1.4-2.5-1.5L16.4,109.3z"/>
		<path class="st18" d="M26.1,36.8c-1.1,0.8-3.5,2.1-7.7,1.9c0.8,0.6,1.6,1.1,2.4,1.6c5.1-0.5,7.2-3,7.3-3.1l0.6-0.8l-0.9-0.5
			c-1.9-1-3.4-2.6-4.4-4.6c-0.8-0.5-1.6-1.1-2.4-1.8C21.8,32.5,23.6,35.1,26.1,36.8z"/>
		<path class="st9" d="M150.9,99.8c0-0.2,0-0.5,0-0.7c-0.1-0.2-0.2-0.5-0.4-0.6c-0.2-0.2-0.4-0.3-0.6-0.4c-0.2-0.1-0.5-0.1-0.7-0.1
			l-7.9,0.1c-3.2,0-6.3,1.2-8.7,3.4c-0.4,0.3-0.6,0.5-0.6,0.5c-1.8,2.2-3.2,4.6-4.1,7.3c-0.1,0.2-0.1,0.5-0.1,0.7
			c0,0.2,0.1,0.5,0.3,0.6c0.2,0.2,0.4,0.3,0.6,0.3c0.8,0,1.6,0,2.4,0c0.8,0.1,1.3,0.9,2.2,0.7c0.2,0,0.3-0.1,0.5-0.2
			s0.2-0.3,0.3-0.4l1-3.4l0.5,1.5c0,0.1,0.1,0.3,0.3,0.4s0.3,0.1,0.4,0.1c0.3,0,0.6-0.1,0.9-0.2c0.3-0.1,0.5-0.3,0.7-0.6
			s0.3-0.5,0.4-0.8c0.1-0.3,0-0.6,0-0.9l-0.5-1.2c-0.1-0.5-0.1-0.9-0.1-1.4c0.1-0.5,0.3-0.9,0.5-1.3c0.3-0.4,0.6-0.7,1-1
			s0.9-0.4,1.3-0.5l8.8-0.2c0.4,0,0.8-0.2,1.1-0.4S150.9,100.2,150.9,99.8L150.9,99.8z"/>
		<path d="M149.2,97.8l-4.3,0.1c-0.6,1.4-1.6,2.6-2.8,3.5l7.1-0.2c0.2,0,0.4-0.1,0.7-0.1c0.2-0.1,0.4-0.2,0.5-0.4
			c0.2-0.2,0.3-0.4,0.4-0.6c0.1-0.2,0.1-0.4,0.1-0.7c0-0.2-0.1-0.4-0.1-0.7c-0.1-0.2-0.2-0.4-0.4-0.5s-0.4-0.3-0.6-0.4
			C149.6,97.9,149.4,97.8,149.2,97.8L149.2,97.8z"/>
		<path class="st19" d="M131.3,108.8c0,0,0.8-3.1,2.3-4.7"/>
		<path class="st20" d="M157.8,62c0,0,17.9-5.5,11.5,13.1L157.8,62z"/>
		<path class="st5" d="M165,65.4c4.9,7.2,11.4,16.4,3.1,17.4c-4.5,0.5-10.8-1.2-15.6-8.4s-6.4-12.4-1.9-17.7
			C155,51.5,160.2,58.2,165,65.4L165,65.4z"/>
		<path class="st9" d="M185.2,116.1c-0.6,0.2-1.3,0.2-1.9-0.1s-1.2-0.6-1.6-1.1c-1.7-2.3-5.3-0.6-5.7-0.6c0.1-0.1,3.1-1.4,4.4-4.4
			c1.7-4.1,0.7-6.2-0.1-7.1c0-0.1-0.1-0.1-0.2-0.1c-0.1,0-0.1,0-0.2,0c-0.1,0-0.1,0-0.2,0.1c-0.1,0-0.1,0.1-0.1,0.2
			c-1,2.5-4.2,3.8-4.2,3.8c-3.1,1.2-2.7,4-2.4,6c0.2,1.1-0.1,2.2-0.6,3.2c-0.5,0.8-6.2,6.4-8.3,8.5c-0.2,0.2-0.5,0.4-0.8,0.4
			c-0.3,0.1-0.6,0-0.9-0.1l-3.4-1.3c-0.2-0.1-0.4-0.2-0.6-0.4c-0.2-0.2-0.3-0.4-0.4-0.6c-0.1-0.2-0.1-0.5-0.1-0.7
			c0-0.2,0.1-0.5,0.2-0.7c1-1.9,3-5.3,3-5.3s6.2-10.9,6.2-22.6c0.8-19.5-7-32-14.8-30.4c-4.2,0.8-5.1,4.8-5.1,8.3v0.6v1
			c0,0.6-0.1,1.2-0.1,1.8c-0.2,2.3-0.7,4.6-1.6,6.8c-0.6,1.6-0.9,3.2-0.9,4.9c0,1.2,0.3,2.3,0.7,3.4c1,2.4,1.4,5,1.2,7.5
			c-0.2,2.6-1,5-2.4,7.2c-1.3,2-2.9,3.8-4.8,5.2c-9.4,7-9.6,10.1-1.8,22.6h28.8c0,0,6.9-11.7,8.6-13.1c0.6-0.5,1.1-0.6,1.4-0.3
			c3.7,3.8,7.8,0.2,9.4-1.8c0.1-0.1,0.1-0.2,0.1-0.3s0-0.2-0.1-0.3c-0.1-0.1-0.2-0.2-0.3-0.2C185.4,116.1,185.3,116.1,185.2,116.1
			L185.2,116.1z"/>
		<path d="M160.9,115.8h-26.5c8.6,7.8,23,6.2,23.5,5.3C158.8,119.2,160.9,115.8,160.9,115.8L160.9,115.8z"/>
		<path class="st21" d="M139.3,109.5c-2.8,2.1-4.8,3.8-6,5.6c4.5,2.6,18.2,7.7,29.9,2.2c0.6-1,3.7-12.2,3.9-23.7
			c0,0-21.4,8.2-23,10.7C142.8,106.4,141.2,108.1,139.3,109.5z"/>
		<path d="M156.3,83.5c0.1,0,0.2,0,0.3-0.1s0.1-0.1,0.2-0.2c0-0.1,0-0.2,0-0.3c0-0.1-0.1-0.2-0.2-0.2c-1.6-0.9-2.2-2.6-2.8-3.9
			c-0.5-1.5-0.9-3-1.2-4.5c-0.4-1.5-1.1-5.3-3.5-4.8c-1.2,0.3-1.4,1.9-1.9,4.2c0,0.3,0,0.7-0.1,1C146.9,76.5,151.7,82.7,156.3,83.5
			L156.3,83.5z"/>
		<path class="st22" d="M160.8,76.5c0.2-1.7-0.3-3.1-1.1-3.2s-1.5,1.2-1.7,2.9c-0.2,1.7,0.3,3.1,1.1,3.2
			C159.9,79.5,160.6,78.2,160.8,76.5z"/>
		<path d="M159.5,76.3c0.1-1.2-0.2-2.1-0.7-2.3c-0.4,0.7-0.6,1.5-0.7,2.3c-0.1,0.7-0.1,1.4-0.1,2.1c0.1,0,0.1,0,0.2,0.1
			C159.2,78.5,159.3,77.5,159.5,76.3z"/>
		<path class="st22" d="M163.2,82.1c0.1-1.4-0.3-2.7-0.9-2.7s-1.3,1.1-1.4,2.5c-0.1,1.4,0.3,2.7,0.9,2.7
			C162.4,84.7,163,83.5,163.2,82.1z"/>
		<path d="M162,81.9c0.1-1-0.2-1.8-0.6-2c-0.3,0.6-0.5,1.2-0.6,1.9c-0.1,0.6-0.1,1.2-0.1,1.8c0.1,0,0.1,0,0.2,0.1
			C161.8,83.8,161.9,82.9,162,81.9L162,81.9z"/>
		<path d="M167.1,125.7c0.1-0.2,0.1-0.4,0-0.6c-0.1-0.2-0.2-0.3-0.4-0.4l-2.1-0.8l-0.5,0.5c-0.2,0.2-0.4,0.3-0.7,0.4
			c-0.3,0.1-0.5,0.1-0.8,0l3.6,1.3c0.1,0,0.2,0,0.3,0.1c0.2,0,0.3,0,0.4-0.1S167,125.9,167.1,125.7L167.1,125.7z"/>
		<g>
			<path class="st13" d="M144,111.3c-2.3,1.7-4.3,3.7-6,6c0.5,0.2,1,0.4,1.5,0.5c1.6-2,3.4-3.8,5.5-5.3c4.3-3.4,5.4-9,5.7-12
				c-0.6,0.3-1.1,0.5-1.7,0.8C148.6,104.2,147.4,108.6,144,111.3z"/>
			<path class="st13" d="M161.5,102.5c-0.1,0-0.2,0.1-0.3,0.1c-0.1,0.1-0.2,0.1-0.2,0.2c-0.1,0.1-0.1,0.2-0.1,0.3c0,0.1,0,0.2,0,0.3
				c1,5.1-2.6,12.1-5,16c0.7-0.1,1.4-0.2,2-0.4c2.4-4.2,5.5-10.8,4.5-15.9c0-0.1-0.1-0.2-0.1-0.3s-0.1-0.2-0.2-0.2
				c-0.1-0.1-0.2-0.1-0.3-0.1C161.7,102.5,161.6,102.5,161.5,102.5L161.5,102.5z"/>
			<path class="st13" d="M157.2,101c-0.1,0-0.2,0-0.3,0c-0.1,0-0.2,0-0.3,0.1c-0.1,0-0.2,0.1-0.2,0.2c-0.1,0.1-0.1,0.2-0.1,0.3
				c0,0.1-2.8,8.7-4.6,11.5c-1,1.5-2.8,4.2-4.4,6.5c0.6,0.1,1.2,0.1,1.8,0.2c1.4-2.1,3.1-4.4,3.9-5.8c1.9-3,4.6-11.5,4.8-11.9
				c0.1-0.2,0-0.4-0.1-0.6C157.6,101.2,157.4,101.1,157.2,101z"/>
		</g>
		<path class="st23" d="M168.7,107.2c-1.6-4.7-1.6-7.8-1.6-14c0.1-2,0.1-4,0-5.8c-3.9-1.2-11.7,11.3-21,4.9c0.2,2.1,0.2,4.3,0,6.4
			c-1,3.3-5.4,6.7-5.5,7C148.2,110.7,163.2,110.3,168.7,107.2L168.7,107.2z"/>
		<path d="M167.1,93.9l-3.4,0.4c0,0,0.3,4.9,3.7,7C167.1,98.8,167.1,96.4,167.1,93.9z"/>
		<path class="st9" d="M163.7,94.3c0.1,0.3,0.2,0.7,0.4,1s0.5,0.5,0.8,0.7c0.3,0.2,0.6,0.3,1,0.3c0.3,0,0.7,0,1-0.1l9.9-3.5
			c2.5-0.9,4.8-2.3,6.8-4.1c1.9-1.8,3.5-4.1,4.5-6.5c0.2-0.4,0.3-0.7,0.3-0.7c1.5-4.5,2.3-9.1,2.3-13.9c0-0.3-0.1-0.7-0.2-1
			c-0.1-0.3-0.4-0.6-0.7-0.7c-0.3-0.2-0.6-0.2-1-0.1c-0.8,0.1-2.1,0.8-3.3,1.1c-1.2,0.3-2.2-0.7-3.3,0.1c-0.2,0.1-0.4,0.3-0.5,0.5
			s-0.2,0.5-0.2,0.7l0.2,6.9c0,0.1,0,0.2-0.1,0.3c-0.1,0.1-0.1,0.1-0.2,0.2c-0.1,0-0.2,0-0.3,0c-0.1,0-0.2-0.1-0.2-0.2l-1.2-1.9
			c-0.1-0.1-0.2-0.2-0.4-0.3c-0.2,0-0.3,0-0.5,0c-0.4,0.2-0.8,0.5-1.1,0.8c-0.3,0.4-0.5,0.8-0.6,1.2c-0.1,0.4-0.1,0.9-0.1,1.4
			c0.1,0.5,0.2,0.9,0.5,1.3l1.6,2.5c0.4,0.6,0.6,1.2,0.7,1.9c0.1,0.7,0.1,1.4-0.1,2s-0.5,1.3-0.9,1.8c-0.4,0.5-1,0.9-1.6,1.2
			l-11.9,4.3c-0.5,0.2-1,0.6-1.3,1.1C163.7,93.1,163.6,93.7,163.7,94.3L163.7,94.3z"/>
		<path class="st19" d="M185.8,69c0.4,3.4,0.2,6.9-0.8,10.2"/>
		<path class="st24" d="M185.2,116.1c-0.6,0.2-1.3,0.2-1.9-0.1s-1.2-0.6-1.6-1.1c-1.4-1.9-4.1-1.1-5.2-0.8c-0.1,0-0.1-0.1-0.1-0.1
			c1.7-0.9,3.1-2.4,4-4.2c1.7-4.1,0.7-6.2-0.1-7.1c0-0.1-0.1-0.1-0.2-0.1s-0.1,0-0.2,0c-0.1,0-0.1,0-0.2,0.1c-0.1,0-0.1,0.1-0.1,0.2
			c-1,2.5-4.2,3.8-4.2,3.8c-3.1,1.2-2.7,4-2.4,6c0.2,1.1-0.1,2.2-0.6,3.2c-0.2,0.3-0.4,0.6-0.7,0.8c0.8-0.6,1.7-1.1,2.6-1.6
			c0.1,0,0.2,0,0.3,0c0.1,0,0.2,0,0.3,0.1c0.1,0.1,0.1,0.1,0.2,0.2c0,0.1,0,0.2,0,0.3c-0.2,1.6-2,4.8-1.8,5.4c0.5-0.7,1-1.4,1.7-2.1
			c0.6-0.5,1.1-0.6,1.4-0.3c3.7,3.8,7.8,0.2,9.4-1.8c0.1-0.1,0.2-0.2,0.2-0.3c0-0.1,0-0.2-0.1-0.3c-0.1-0.1-0.2-0.2-0.3-0.2
			C185.4,116.1,185.3,116.1,185.2,116.1L185.2,116.1z"/>
		<path class="st25" d="M154.2,88.3c0,0,2.7,1.8,3.9-1.7"/>
		<path class="st25" d="M153.3,90.8c0,0,1.7,0.8,2.2-1.7"/>
		<path class="st22" d="M148.6,75.8c0,0,3.2-3,1.9,1.9L148.6,75.8z"/>
		<path class="st22" d="M149.8,78.7c0,0,3.2-3,1.9,1.9L149.8,78.7z"/>
		<path class="st9" d="M157,83c-0.1,0.9-3.1,0.8-7-6.2c-2.6-4.6-4.7-2.6-4.4,0c0.2,1.3,0.1,2.7-0.3,4c-0.5,1.7-0.7,3.5-0.7,5.3
			c0,0.8,10.8,0,10.8,0l3.9-2.3L157,83z"/>
		<path class="st25" d="M146.3,125.1c0,0-2.1,3.7-5.2,0.5"/>
		<path class="st25" d="M148.9,126.9c0,0-2,1.7-3.4-0.4"/>
		<path class="st26" d="M157.9,96.7c0,1.6-2.6,4.6-5.8,4.6c-0.6,0-1.1,0-1.6-0.2c-0.5-0.2-1-0.5-1.4-0.9c-0.4-0.4-0.7-0.9-0.9-1.4
			c-0.2-0.5-0.3-1.1-0.2-1.6c0.1-1.6,0.9,0,4.2,0S157.9,95.1,157.9,96.7z"/>
		<path class="st8" d="M108.4,24.7c-0.5-0.3-0.9-0.8-1.3-1.3c-0.3-0.5-0.5-1.1-0.6-1.7l-0.3-2.1c0,0,0-0.1-0.1-0.1
			c0,0-0.1-0.1-0.1-0.1c-0.1,0-0.1,0-0.1,0.1c0,0-0.1,0.1-0.1,0.1l-0.3,2.1c-0.1,0.6-0.3,1.2-0.6,1.7c-0.3,0.5-0.8,0.9-1.3,1.3
			l-0.3,0.2c0,0-0.1,0-0.1,0.1s0,0.1,0,0.1c0,0,0,0.1,0,0.1c0,0,0,0.1,0.1,0.1l0.3,0.2c0.5,0.3,0.9,0.8,1.3,1.3
			c0.3,0.5,0.5,1.1,0.6,1.7l0.3,2.1c0,0,0,0.1,0.1,0.1c0,0,0.1,0,0.1,0.1c0.1,0,0.1,0,0.1-0.1c0,0,0.1-0.1,0.1-0.1l0.3-2.1
			c0.1-0.6,0.3-1.2,0.6-1.7c0.3-0.5,0.8-0.9,1.3-1.3l0.3-0.2c0,0,0.1,0,0.1-0.1c0,0,0-0.1,0-0.1c0,0,0-0.1,0-0.1c0,0,0-0.1-0.1-0.1
			L108.4,24.7z"/>
		<path class="st4" d="M150.5,40.5c-0.4-0.2-0.6-0.5-0.9-0.9s-0.4-0.7-0.4-1.2L149,37c0,0,0-0.1,0-0.1c0,0-0.1,0-0.1,0
			c0,0-0.1,0-0.1,0s0,0.1,0,0.1l-0.2,1.4c-0.1,0.4-0.2,0.8-0.4,1.2c-0.2,0.4-0.5,0.6-0.9,0.9l-0.2,0.1c0,0,0,0,0,0.1c0,0,0,0,0,0.1
			c0,0,0,0,0,0.1s0,0,0,0l0.2,0.1c0.4,0.2,0.7,0.5,0.9,0.9c0.2,0.4,0.4,0.7,0.4,1.2l0.2,1.4c0,0,0,0.1,0,0.1c0,0,0.1,0,0.1,0
			c0,0,0.1,0,0.1,0c0,0,0-0.1,0-0.1l0.2-1.4c0.1-0.4,0.2-0.8,0.4-1.2c0.2-0.4,0.5-0.6,0.9-0.9l0.2-0.1c0,0,0,0,0,0c0,0,0,0,0-0.1
			c0,0,0,0,0-0.1c0,0,0,0,0-0.1L150.5,40.5z"/>
		<path class="st27" d="M73.3,50.4c-0.3-0.2-0.5-0.4-0.7-0.7c-0.2-0.3-0.3-0.6-0.3-0.9l-0.2-1.1c0,0,0-0.1,0-0.1c0,0,0,0-0.1,0
			c0,0-0.1,0-0.1,0c0,0,0,0,0,0.1l-0.2,1.1c0,0.3-0.2,0.7-0.3,0.9c-0.2,0.3-0.4,0.5-0.7,0.7l-0.2,0.1c0,0,0,0,0,0c0,0,0,0,0,0.1
			c0,0,0,0,0,0.1c0,0,0,0,0,0l0.2,0.1c0.3,0.2,0.5,0.4,0.7,0.7c0.2,0.3,0.3,0.6,0.3,0.9l0.2,1.1c0,0,0,0.1,0,0.1c0,0,0,0,0.1,0
			c0,0,0.1,0,0.1,0c0,0,0,0,0-0.1l0.2-1.1c0-0.3,0.2-0.7,0.3-0.9s0.4-0.5,0.7-0.7l0.2-0.1c0,0,0,0,0,0c0,0,0,0,0-0.1c0,0,0,0,0-0.1
			c0,0,0,0,0,0L73.3,50.4z"/>
		<path class="st28" d="M178.7,58.9c-0.4-0.2-0.7-0.6-0.9-0.9c-0.2-0.4-0.4-0.8-0.5-1.2l-0.2-1.5c0,0,0-0.1-0.1-0.1s-0.1,0-0.1,0
			c0,0-0.1,0-0.1,0s0,0.1-0.1,0.1l-0.2,1.5c-0.1,0.4-0.2,0.9-0.5,1.2c-0.2,0.4-0.6,0.7-0.9,0.9l-0.2,0.1c0,0,0,0,0,0.1
			c0,0,0,0,0,0.1s0,0,0,0.1c0,0,0,0,0,0.1l0.2,0.1c0.4,0.2,0.7,0.6,0.9,0.9c0.2,0.4,0.4,0.8,0.5,1.2l0.2,1.5c0,0,0,0.1,0.1,0.1
			c0,0,0.1,0,0.1,0c0,0,0.1,0,0.1,0c0,0,0-0.1,0.1-0.1l0.2-1.5c0.1-0.4,0.2-0.9,0.5-1.2c0.2-0.4,0.6-0.7,0.9-0.9l0.2-0.1
			c0,0,0,0,0-0.1s0,0,0-0.1s0,0,0-0.1s0,0,0-0.1L178.7,58.9z"/>
		<path class="st12" d="M87.5,96.3l-3.3,9.2c-0.8,2.2-1,4.6-0.5,6.9l3.5,19.1h15.1c-0.3-1.4-0.7-3.3-1.2-5.6
			c-1.9-8.4-4.2-16.3,0.5-24.9L87.5,96.3z"/>
		<path class="st12" d="M97.7,100l0.7,7.8c0.1,3.8,1.1,7.5,2.8,10.9l7.5,12.7h16.8l-9.4-14.8c-1.9-3.3-2.8-7.1-2.5-11l0.2-2.6
			L97.7,100z"/>
		<path d="M88.3,100c0,0,7.6,9.6,27.3,15l3.1-6.1C118.8,108.9,89.1,103.6,88.3,100z"/>
		<path class="st26" d="M83.3,98.3c10.4,7.3,22.7,11.5,35.4,12.2l0.7-3.2L87.6,94.7L83.3,98.3z"/>
		<path class="st29" d="M100.8,74.5c0,0-1.6-14.8,1.1-23c2.3-1.1,4.9-1.5,7.5-1.1c0,0-0.8,4.7,0,6.2c0,0,3.9-9,10.6-12.4
			c0,0,11.3,2.2,14.4,12.4c0,0-4.7,1.6-6.2,6.2c0,0,3.9-3.1,8.6-3.1c2.3,1.6,4.7,6.2,3.9,12.5c-2.7-0.5-5.5,0.1-7.8,1.6
			c0,0,4.7,0,7,1.6c-0.6,3-1.6,5.9-3.1,8.6c0,0-7.4-3.1-15,0L100.8,74.5z"/>
		<path class="st23" d="M114.9,108c0,0-19.1-4.7-29-11.6c-0.6-0.4-1.1-1-1.5-1.7c-0.3-0.7-0.5-1.5-0.5-2.2s0.3-1.5,0.7-2.2
			c0.4-0.7,1-1.2,1.6-1.6c4.2-2.2,9.1-5.2,13.9-14.3L125,89.3C125,89.3,125,97.1,114.9,108z"/>
		<path class="st23" d="M127.5,104.2c1.2-1.7,1.9-3.7,2.2-5.8c0.3-2.1,0.1-4.2-0.5-6.2l-0.1-0.2c-1-3.3-3.1-6.2-5.8-8.2
			c-5.8-4.3-10.7-8.5-25.1-11.8c-0.9-0.2-1.7-0.7-2.3-1.4s-1-1.5-1.1-2.4c-0.4-4.4-0.2-8.8,0.5-13.2c0.8-7,7.8-10.9,7.8-10.9
			c-0.8-5.5-8.6-7-8.6-7c-2.3,2.3-4.7,7.8-4.7,7.8c-0.8-1.6,0-4.7,0-4.7L86.8,41c0,0-5.5,27.3-3.1,34.3c2.7,8,12.5,7,12.5,7
			s26.5,12.5,26.3,12.7c-8.1,8.4-10.5,15.4-11.2,19c-0.1,0.8,0,1.6,0.3,2.3c0.4,0.7,0.9,1.3,1.7,1.6c7.1,3.3,11-1.2,11-1.2
			c-0.1-0.2-0.2-0.3-0.3-0.5c-0.6-1-0.9-2.2-0.9-3.4c0-1.2,0.4-2.4,1.1-3.4L127.5,104.2z"/>
		<path class="st29" d="M95.4,55c0.8-7,7.8-10.9,7.8-10.9c-0.8-5.5-8.6-7.8-8.6-7.8c-3.9,3.1-4.7,8.6-4.7,8.6c-0.8-1.6,0-4.7,0-4.7
			L86.8,41c-1.4,3-2,6.4-1.7,9.8c7.2-0.4,10.3,4.4,10.3,4.4L95.4,55z"/>
		<path class="st22" d="M112.2,68.6c-0.8,4.2-0.8,7.8-1.8,7.6s-2.6-4.1-1.8-8.3c0.9-4.2,3.9-7.2,4.8-7S113.1,64.3,112.2,68.6z"/>
		<path d="M111.7,62.3c-0.1,0-0.2-0.1-0.3-0.1c-1.2,1.4-2.1,3.1-2.6,4.9c0.1,0.2,0.2,0.3,0.4,0.4c0.8,0.4,1.9-0.5,2.6-2
			S112.4,62.7,111.7,62.3z"/>
		<path class="st22" d="M118.9,71.7c-2.8,3.3-4.5,6.4-5.3,5.7c-0.8-0.7-0.3-4.8,2.6-8.1c2.8-3.3,6.9-4.3,7.7-3.7
			C124.5,66.3,121.7,68.4,118.9,71.7z"/>
		<path d="M119.9,66.7c-0.1-0.1-0.1-0.1-0.2-0.2c-1.3,0.7-2.5,1.7-3.5,2.8c-0.5,0.6-0.9,1.2-1.3,1.8c0,0,0,0,0,0.1
			c0.7,0.7,2.3,0.3,3.7-0.9C119.9,69,120.5,67.4,119.9,66.7z"/>
		<path d="M118.8,77c0,0,4.6-5.8,7.8-2.9C129.7,77,123,80.3,118.8,77z"/>
		<path class="st9" d="M121.2,78.2c2.5,0.6,5.2-0.3,5.9-1.7c-0.7-0.3-1.4-0.4-2.1-0.4C123.2,76,121.6,76.9,121.2,78.2z"/>
		<path class="st23" d="M100.8,74.5l20.8,9.4c1.9-0.8,4.1,0,5.4-1.3c-2.1-7.3-6.8-3.3-9.9-7.3c-6.9-8.7-12.5-7.8-16.8-7.4
			C99.7,70,99.9,72.4,100.8,74.5z"/>
		<path class="st30" d="M128.9,72.9c0.5,0.5,0.8,1.2,0.9,1.9c0.1,0.7,0,1.4-0.3,2.1"/>
		<path d="M125.1,83.3c-1.8-1.7-3.8-3.1-6-4.2c-0.2-0.1-0.4-0.1-0.6,0c-0.2,0.1-0.3,0.2-0.4,0.4c-0.1,0.2-0.1,0.4,0,0.6
			c0.1,0.2,0.2,0.3,0.4,0.4c1.6,0.8,3.1,1.7,4.5,2.9C123.6,83.4,124.4,83.4,125.1,83.3z"/>
		<path d="M100.2,72.5c0.9,0.2,1.7,0.6,2.5,1.1c0.1,0.1,0.3,0.1,0.4,0.1c0.1,0,0.3,0,0.4-0.1c0.1-0.1,0.2-0.1,0.3-0.3
			c0.1-0.1,0.1-0.2,0.1-0.3c0-0.1,0-0.2,0-0.3c0-0.1-0.1-0.2-0.1-0.3c-0.1-0.1-0.1-0.2-0.2-0.2c-1.1-0.7-2.3-1.2-3.6-1.5
			C100,71.4,100.1,72,100.2,72.5z"/>
		<path class="st26" d="M98.7,102.7c-0.5-0.5-1-1-1.4-1.6c-0.7-0.9-1-2.1-1-3.2c0-0.5,0.1-1.1,0.3-1.6c0.5-1.2,1.8-2,3.1-2.8
			c0.5-0.3,1.1-0.6,1.6-1c2.3-1.6,3.8-4,4.3-6.8c0.1-0.7,0.2-1.4,0.2-2.2c0.1-0.6,0.1-1.2,0.2-1.8c0.1-1.1,0.6-2.2,1.5-3
			c0.3-0.2,0.6-0.4,0.9-0.5c0.7-0.3,1.3-0.8,1.8-1.4c0.4-0.7,0.7-1.4,0.7-2.2c0-0.2,0.1-0.4,0.1-0.6c0.3-1.3,0.9-2.5,2-3.3
			c-0.4-0.3-0.8-0.7-1.3-0.9c-1.1,1.1-1.9,2.5-2.2,4c0,0.2-0.1,0.4-0.1,0.6c0,0.5-0.2,1.1-0.4,1.5c-0.4,0.4-0.8,0.7-1.3,0.9
			c-0.4,0.2-0.8,0.4-1.1,0.7c-1.2,1-1.9,2.4-2.1,4c-0.1,0.7-0.2,1.3-0.2,2c0,0.7-0.1,1.3-0.2,2c-0.4,2.3-1.8,4.4-3.7,5.8
			c-0.5,0.3-1,0.6-1.5,0.9c-1.5,0.9-3.1,1.8-3.8,3.5c-0.3,0.7-0.4,1.4-0.4,2.2c0,1.3,0.4,2.6,1.1,3.7c1,0.4,2.1,0.8,3.1,1.3
			L98.7,102.7z"/>
		<path class="st31" d="M118,99.4c1.3-2,3.2-3.6,5.4-4.5"/>
		<path class="st31" d="M119.6,97.1c-1.6-3.1-0.3-7.3-0.3-7.3"/>
		<path class="st29" d="M124.1,109.3l0.6-0.8c0,0-1.4-6-8.5-5.8c0,0-1.3,2-1.8,3c-0.6,1.1-1.4,2.1-2.3,2.9c-1.3,1.1-2.9,1.9-4.6,2.3
			l1.9,3.4c0.6-0.1,1.3-0.3,1.9-0.5c0,0.2-0.1,0.3-0.1,0.5c-0.1,0.7,0,1.4,0.3,2c0.3,0.6,0.8,1.1,1.5,1.4c7.3,3.5,11.3-1.1,11.3-1.1
			c-0.1-0.1-0.2-0.3-0.3-0.4c-0.6-1-1-2.2-0.9-3.4S123.4,110.3,124.1,109.3L124.1,109.3z"/>
		<path class="st6" d="M115.6,113c0-0.1,0.1-0.2,0.1-0.3s0-0.2,0-0.3c0-0.1-0.1-0.2-0.2-0.3c-0.1-0.1-0.1-0.1-0.2-0.2
			c-0.1,0-0.2-0.1-0.3-0.1s-0.2,0-0.3,0c-0.1,0-0.2,0.1-0.3,0.2s-0.1,0.2-0.2,0.2c-0.1,0.1-0.9,2-0.7,5.6c0.5,0.2,1.1,0.4,1.6,0.6
			C114.7,114.9,115.6,113.1,115.6,113z"/>
		<path class="st6" d="M120.3,114.4c0-0.1,0-0.2,0-0.3c0-0.1-0.1-0.2-0.1-0.3c-0.1-0.1-0.1-0.2-0.2-0.2s-0.2-0.1-0.3-0.1
			c-0.2,0-0.4,0-0.6,0.1s-0.3,0.3-0.3,0.5c-0.3,1.6-0.3,3.3,0,4.9c0.5,0,1-0.1,1.5-0.2C120.1,117.3,120.1,115.8,120.3,114.4z"/>
		<path class="st10" d="M105.5,131.4c0,0,2.8-7.2,10.1-3.1c2.9,1.6,6.1,2.7,9.3,3.1H105.5z"/>
		<path class="st6" d="M99.1,38.4c-0.5-0.3-1-0.6-1.4-0.9c-1.5,1.3-2.8,2.8-3.7,4.6c-0.1,0.2-0.1,0.4,0,0.6s0.2,0.4,0.4,0.5
			c0.1,0.1,0.2,0.1,0.3,0.1c0.1,0,0.3,0,0.4-0.1c0.1-0.1,0.2-0.2,0.3-0.3C96.2,41.1,97.5,39.6,99.1,38.4z"/>
		<path class="st6" d="M102.4,41.8c-0.3-0.5-0.6-0.9-0.9-1.3c-1.6,0.8-2.9,1.9-3.9,3.3c-0.1,0.1-0.1,0.3-0.1,0.4
			c0,0.1,0,0.3,0.1,0.4s0.2,0.2,0.3,0.3s0.3,0.1,0.4,0.1c0.1,0,0.3,0,0.4-0.1s0.2-0.2,0.3-0.3C99.8,43.4,101,42.4,102.4,41.8z"/>
		<path d="M94.8,82.3l2.7-3.5c0,0-2.9,1.9-9.1,1.9C90.3,81.8,92.5,82.3,94.8,82.3z"/>
		<path class="st10" d="M80.6,131.4c0,0,2.8-7.2,10.1-3.1c2.9,1.6,6.1,2.7,9.4,3.1H80.6z"/>
		<path d="M86.8,139.2c1.7,0,3.1-1.4,3.1-3.1s-1.4-3.1-3.1-3.1s-3.1,1.4-3.1,3.1S85.1,139.2,86.8,139.2z"/>
		<path d="M142.4,139.2c1.7,0,3.1-1.4,3.1-3.1s-1.4-3.1-3.1-3.1s-3.1,1.4-3.1,3.1S140.7,139.2,142.4,139.2z"/>
		<path class="st29" d="M186.9,122h-4.9c-0.7,0-1.4,0.2-2,0.5c-0.6,0.4-1.1,0.9-1.5,1.5l-1.1,1.8c-1,1.7-2.4,3.1-4,4
			s-3.6,1.5-5.5,1.5H89c-1.9,0-3.8-0.5-5.5-1.5c-1.7-1-3.1-2.3-4-4l-1.3-2.2c-0.3-0.5-0.7-0.9-1.2-1.2c-0.5-0.3-1.1-0.4-1.7-0.4
			h-5.3c-0.6,0-1.2,0.1-1.7,0.4c-0.5,0.3-0.9,0.7-1.2,1.2s-0.5,1.1-0.5,1.6c0,0.6,0.1,1.2,0.3,1.7c1.9,3.8,5.7,8.5,9.9,8.5H180
			c2.6,0,5.1-1.8,7.1-4.1c1.1-1.3,2.1-2.8,2.9-4.4c0.3-0.5,0.4-1.1,0.4-1.7c0-0.6-0.2-1.2-0.5-1.6c-0.3-0.5-0.7-0.9-1.2-1.2
			C188,122.2,187.4,122,186.9,122L186.9,122z"/>
		<path d="M114.6,139.2c1.7,0,3.1-1.4,3.1-3.1s-1.4-3.1-3.1-3.1s-3.1,1.4-3.1,3.1S112.9,139.2,114.6,139.2z"/>
		<path class="st29" d="M114.6,137.3c0.7,0,1.3-0.6,1.3-1.3c0-0.7-0.6-1.3-1.3-1.3c-0.7,0-1.3,0.6-1.3,1.3
			C113.3,136.7,113.9,137.3,114.6,137.3z"/>
		<path d="M169.9,139.2c1.7,0,3.1-1.4,3.1-3.1s-1.4-3.1-3.1-3.1s-3.1,1.4-3.1,3.1S168.2,139.2,169.9,139.2z"/>
		<path class="st29" d="M169.9,137.3c0.7,0,1.3-0.6,1.3-1.3c0-0.7-0.6-1.3-1.3-1.3s-1.3,0.6-1.3,1.3
			C168.7,136.7,169.3,137.3,169.9,137.3z"/>
	</g>
</g>
</svg>
